ter-u24n.sfdir
StartChar: exclam
Encoding: 33 33 2
Width: 1024
VWidth: 0
Flags: W
HStem: 0 256<448 576> 1260 20G<456 568>
VStem: 448 128<0 256 448 1280>
LayerCount: 3
Back
Fore
SplineSet
464 256 m 2,0,-1
 560 256 l 2,1,2
 576 256 576 256 576 240 c 2,3,-1
 576 16 l 2,4,5
 576 0 576 0 560 0 c 2,6,-1
 464 0 l 2,7,8
 448 0 448 0 448 16 c 2,9,-1
 448 240 l 2,10,11
 448 256 448 256 464 256 c 2,0,-1
464 1280 m 2,12,-1
 560 1280 l 2,13,14
 576 1280 576 1280 576 1264 c 2,15,-1
 576 464 l 2,16,17
 576 448 576 448 560 448 c 2,18,-1
 464 448 l 2,19,20
 448 448 448 448 448 464 c 2,21,-1
 448 1264 l 2,22,23
 448 1280 448 1280 464 1280 c 2,12,-1
EndSplineSet
Validated: 19457
Layer: 2
SplineSet
483 256 m 2,0,-1
 541 256 l 2,1,2
 555 256 555 256 555 242 c 2,3,-1
 555 14 l 2,4,5
 555 0 555 0 541 0 c 2,6,-1
 483 0 l 6,7,8
 469 0 469 0 469 14 c 2,9,-1
 469 242 l 2,10,11
 469 256 469 256 483 256 c 2,0,-1
483 1280 m 2,12,-1
 541 1280 l 2,13,14
 555 1280 555 1280 555 1266 c 2,15,-1
 555 441 l 2,16,17
 555 427 555 427 541 427 c 2,18,-1
 483 427 l 2,19,20
 469 427 469 427 469 441 c 2,21,-1
 469 1266 l 2,22,23
 469 1280 469 1280 483 1280 c 2,12,-1
EndSplineSet
Colour: 8000
EndChar
StartChar: numbersign
Encoding: 35 35 4
Width: 288
VWidth: 0
Flags: MW
LayerCount: 2
Back
Fore
SplineSet
108 236 m 2,0,-1
 108 124 l 2,1,2
 108 120 108 120 112 120 c 2,3,-1
 176 120 l 2,4,5
 180 120 180 120 180 124 c 2,6,-1
 180 236 l 2,7,8
 180 240 180 240 176 240 c 2,9,-1
 112 240 l 2,10,11
 108 240 108 240 108 236 c 2,0,-1
88 360 m 2,12,-1
 104 360 l 2,13,14
 108 360 108 360 108 356 c 2,15,-1
 108 268 l 2,16,17
 108 264 108 264 112 264 c 2,18,-1
 176 264 l 2,19,20
 180 264 180 264 180 268 c 2,21,-1
 180 356 l 2,22,23
 180 360 180 360 184 360 c 2,24,-1
 200 360 l 2,25,26
 204 360 204 360 204 356 c 2,27,-1
 204 268 l 2,28,29
 204 264 204 264 208 264 c 2,30,-1
 248 264 l 2,31,32
 252 264 252 264 252 260 c 2,33,-1
 252 244 l 2,34,35
 252 240 252 240 248 240 c 2,36,-1
 208 240 l 2,37,38
 204 240 204 240 204 236 c 2,39,-1
 204 124 l 2,40,41
 204 120 204 120 208 120 c 2,42,-1
 248 120 l 2,43,44
 252 120 252 120 252 116 c 2,45,-1
 252 100 l 2,46,47
 252 96 252 96 248 96 c 2,48,-1
 208 96 l 2,49,50
 204 96 204 96 204 92 c 2,51,-1
 204 4 l 2,52,53
 204 0 204 0 200 0 c 2,54,-1
 184 0 l 2,55,56
 180 0 180 0 180 4 c 2,57,-1
 180 92 l 2,58,59
 180 96 180 96 176 96 c 2,60,-1
 112 96 l 2,61,62
 108 96 108 96 108 92 c 2,63,-1
 108 4 l 2,64,65
 108 0 108 0 104 0 c 2,66,-1
 88 0 l 2,67,68
 84 0 84 0 84 4 c 2,69,-1
 84 92 l 2,70,71
 84 96 84 96 80 96 c 2,72,-1
 40 96 l 2,73,74
 36 96 36 96 36 100 c 2,75,-1
 36 116 l 2,76,77
 36 120 36 120 40 120 c 2,78,-1
 80 120 l 2,79,80
 84 120 84 120 84 124 c 2,81,-1
 84 236 l 2,82,83
 84 240 84 240 80 240 c 2,84,-1
 40 240 l 2,85,86
 36 240 36 240 36 244 c 2,87,-1
 36 260 l 2,88,89
 36 264 36 264 40 264 c 2,90,-1
 80 264 l 2,91,92
 84 264 84 264 84 268 c 2,93,-1
 84 356 l 2,94,95
 84 360 84 360 88 360 c 2,12,-1
EndSplineSet
Validated: 1
Colour: 8000
EndChar
StartChar: dollar
Encoding: 36 36 5
Width: 288
VWidth: 0
Flags: MW
LayerCount: 2
Back
Fore
SplineSet
160 48 m 2,0,-1
 180 48 l 2,1,2
 196 48 196 48 212 64 c 128,-1,3
 228 80 228 80 228 96 c 2,4,-1
 228 120 l 2,5,6
 228 136 228 136 212 152 c 128,-1,7
 196 168 196 168 180 168 c 2,8,-1
 160 168 l 2,9,10
 156 168 156 168 156 164 c 2,11,-1
 156 52 l 2,12,13
 156 48 156 48 160 48 c 2,0,-1
76 296 m 128,-1,15
 60 280 60 280 60 264 c 2,16,-1
 60 240 l 2,17,18
 60 224 60 224 76 208 c 128,-1,19
 92 192 92 192 108 192 c 2,20,-1
 128 192 l 2,21,22
 132 192 132 192 132 196 c 2,23,-1
 132 308 l 2,24,25
 132 312 132 312 128 312 c 2,26,-1
 108 312 l 2,27,14
 92 312 92 312 76 296 c 128,-1,15
132 340 m 2,28,-1
 132 380 l 2,29,30
 132 384 132 384 136 384 c 2,31,-1
 152 384 l 2,32,33
 156 384 156 384 156 380 c 2,34,-1
 156 340 l 2,35,36
 156 336 156 336 160 336 c 2,37,-1
 180 336 l 2,38,39
 204 336 204 336 228 312 c 128,-1,40
 252 288 252 288 252 264 c 0,41,42
 252 260 252 260 248 260 c 2,43,-1
 232 260 l 2,44,45
 228 260 228 260 228 264 c 0,46,47
 228 280 228 280 212 296 c 128,-1,48
 196 312 196 312 180 312 c 2,49,-1
 160 312 l 2,50,51
 156 312 156 312 156 308 c 2,52,-1
 156 196 l 2,53,54
 156 192 156 192 160 192 c 2,55,-1
 180 192 l 2,56,57
 204 192 204 192 228 168 c 128,-1,58
 252 144 252 144 252 120 c 2,59,-1
 252 96 l 2,60,61
 252 72 252 72 228 48 c 128,-1,62
 204 24 204 24 180 24 c 2,63,-1
 160 24 l 2,64,65
 156 24 156 24 156 20 c 2,66,-1
 156 -20 l 2,67,68
 156 -24 156 -24 152 -24 c 2,69,-1
 136 -24 l 2,70,71
 132 -24 132 -24 132 -20 c 2,72,-1
 132 20 l 2,73,74
 132 24 132 24 128 24 c 2,75,-1
 108 24 l 2,76,77
 84 24 84 24 60 48 c 128,-1,78
 36 72 36 72 36 96 c 0,79,80
 36 100 36 100 40 100 c 2,81,-1
 56 100 l 2,82,83
 60 100 60 100 60 96 c 0,84,85
 60 80 60 80 76 64 c 128,-1,86
 92 48 92 48 108 48 c 2,87,-1
 128 48 l 2,88,89
 132 48 132 48 132 52 c 2,90,-1
 132 164 l 2,91,92
 132 168 132 168 128 168 c 2,93,-1
 108 168 l 2,94,95
 84 168 84 168 60 192 c 128,-1,96
 36 216 36 216 36 240 c 2,97,-1
 36 264 l 2,98,99
 36 288 36 288 60 312 c 128,-1,100
 84 336 84 336 108 336 c 2,101,-1
 128 336 l 2,102,103
 132 336 132 336 132 340 c 2,28,-1
EndSplineSet
Validated: 1
Colour: 8000
EndChar
StartChar: percent
Encoding: 37 37 6
Width: 288
VWidth: 0
Flags: MW
LayerCount: 2
Back
Fore
SplineSet
64 332 m 128,-1,1
 60 328 60 328 60 324 c 2,2,-1
 60 300 l 2,3,4
 60 296 60 296 64 292 c 128,-1,5
 68 288 68 288 72 288 c 2,6,-1
 96 288 l 2,7,8
 100 288 100 288 104 292 c 128,-1,9
 108 296 108 296 108 300 c 2,10,-1
 108 324 l 2,11,12
 108 328 108 328 104 332 c 128,-1,13
 100 336 100 336 96 336 c 2,14,-1
 72 336 l 2,15,0
 68 336 68 336 64 332 c 128,-1,1
48 348 m 128,-1,17
 60 360 60 360 72 360 c 2,18,-1
 96 360 l 2,19,20
 108 360 108 360 120 348 c 128,-1,21
 132 336 132 336 132 324 c 2,22,-1
 132 300 l 2,23,24
 132 288 132 288 120 276 c 128,-1,25
 108 264 108 264 96 264 c 2,26,-1
 72 264 l 2,27,28
 60 264 60 264 48 276 c 128,-1,29
 36 288 36 288 36 300 c 2,30,-1
 36 324 l 2,31,16
 36 336 36 336 48 348 c 128,-1,17
184 68 m 128,-1,33
 180 64 180 64 180 60 c 2,34,-1
 180 36 l 2,35,36
 180 32 180 32 184 28 c 128,-1,37
 188 24 188 24 192 24 c 2,38,-1
 216 24 l 2,39,40
 220 24 220 24 224 28 c 128,-1,41
 228 32 228 32 228 36 c 2,42,-1
 228 60 l 2,43,44
 228 64 228 64 224 68 c 128,-1,45
 220 72 220 72 216 72 c 2,46,-1
 192 72 l 2,47,32
 188 72 188 72 184 68 c 128,-1,33
168 84 m 128,-1,49
 180 96 180 96 192 96 c 2,50,-1
 216 96 l 2,51,52
 228 96 228 96 240 84 c 128,-1,53
 252 72 252 72 252 60 c 2,54,-1
 252 36 l 2,55,56
 252 24 252 24 240 12 c 128,-1,57
 228 0 228 0 216 0 c 2,58,-1
 192 0 l 2,59,60
 180 0 180 0 168 12 c 128,-1,61
 156 24 156 24 156 36 c 2,62,-1
 156 60 l 2,63,48
 156 72 156 72 168 84 c 128,-1,49
252 356 m 2,64,-1
 60 4 l 2,65,66
 56 0 56 0 52 0 c 2,67,-1
 36 0 l 2,68,69
 32 0 32 0 36 4 c 2,70,-1
 228 356 l 2,71,72
 232 360 232 360 236 360 c 2,73,-1
 252 360 l 2,74,75
 256 360 256 360 252 356 c 2,64,-1
EndSplineSet
Validated: 1
Colour: 8000
EndChar
StartChar: ampersand
Encoding: 38 38 7
Width: 1024
VWidth: 0
Flags: MW
LayerCount: 3
Back
Fore
SplineSet
416 576 m 262,0,1
 352 576 l 258,2,3
 320 576 320 576 288 544 c 282,4,-1
 224 480 l 258,5,6
 192 448 192 448 192 416 c 258,7,-1
 192 208 l 258,8,9
 192 192 192 192 208 176 c 258,10,11
 240 144 l 258,12,13
 256 128 256 128 272 128 c 258,14,-1
 480 128 l 258,15,16
 512 128 512 128 544 160 c 258,17,18
 608 224 l 258,19,20
 640 256 640 256 640 288 c 258,21,-1
 640 341 l 258,22,23
 640 384 640 384 608 416 c 258,24,-1
 480 544 l 258,25,26
 448 576 448 576 416 576 c 262,0,1
272 1104 m 258,27,28
 256 1088 256 1088 256 1072 c 258,29,-1
 256 928 l 258,30,31
 256 896 256 896 288 864 c 258,32,33
 352 800 l 258,34,35
 384 768 384 768 416 768 c 256,36,37
 448 768 448 768 480 800 c 258,38,-1
 544 864 l 258,39,40
 576 896 576 896 576 928 c 258,41,-1
 576 1072 l 258,42,43
 576 1088 576 1088 560 1104 c 258,44,-1
 528 1136 l 258,45,46
 512 1152 512 1152 496 1152 c 258,47,-1
 336 1152 l 258,48,49
 320 1152 320 1152 304 1136 c 258,50,-1
 272 1104 l 258,27,28
288 1280 m 258,51,-1
 544 1280 l 258,52,53
 576 1280 576 1280 608 1248 c 258,54,-1
 672 1184 l 258,55,56
 704 1152 704 1152 704 1120 c 258,57,-1
 704 871 l 258,58,59
 704 832 704 832 679 807 c 258,60,-1
 576 704 l 258,61,62
 544 672 544 672 576 640 c 258,63,-1
 688 528 l 258,64,65
 704 512 704 512 720 528 c 258,66,-1
 752 560 l 258,67,68
 768 576 768 576 768 592 c 258,69,-1
 768 624 l 258,70,71
 768 640 768 640 784 640 c 282,72,-1
 880 640 l 258,73,74
 896 640 896 640 896 624 c 258,75,-1
 896 543 l 258,76,77
 896 512 896 512 863 479 c 258,78,79
 799 415 l 258,80,81
 768 384 768 384 768 351 c 258,82,83
 768 289 l 258,84,85
 768 256 768 256 800 224 c 258,86,-1
 864 160 l 258,87,88
 896 128 896 128 896 96 c 258,89,-1
 896 16 l 258,90,91
 896 0 896 0 880 0 c 258,92,-1
 784 0 l 258,93,94
 768 0 768 0 768 16 c 258,95,-1
 768 48 l 258,96,97
 768 64 768 64 752 80 c 258,98,-1
 720 112 l 258,99,100
 704 128 704 128 688 112 c 258,101,-1
 608 32 l 266,102,103
 576 0 576 0 544 0 c 258,104,-1
 224 0 l 258,105,106
 192 0 192 0 160 32 c 258,107,-1
 96 96 l 258,108,109
 64 128 64 128 64 160 c 258,110,-1
 64 484 l 258,111,112
 64 512 64 512 96 544 c 258,113,-1
 224 672 l 2,114,115
 256 704 256 704 224 736 c 2,116,-1
 160 800 l 258,117,118
 128 832 128 832 128 864 c 258,119,-1
 128 1120 l 258,120,121
 128 1152 128 1152 160 1184 c 258,122,-1
 224 1248 l 258,123,124
 256 1280 256 1280 288 1280 c 258,51,-1
EndSplineSet
Layer: 2
SplineSet
426.5 683 m 128,-1,1
 412 683 412 683 398 668 c 2,2,-1
 270 540 l 2,3,4
 213 483 213 483 213 427 c 2,5,-1
 213 256 l 2,6,7
 213 199 213 199 270 142 c 128,-1,8
 327 85 327 85 384 85 c 2,9,-1
 555 85 l 2,10,11
 612 85 612 85 668.5 142 c 128,-1,12
 725 199 725 199 725 256 c 2,13,-1
 725 341 l 2,14,15
 725 398 725 398 668 455 c 2,16,-1
 455 668 l 2,17,0
 441 683 441 683 426.5 683 c 128,-1,1
313 1180.5 m 128,-1,19
 299 1166 299 1166 299 1152 c 2,20,-1
 299 939 l 2,21,22
 299 882 299 882 355.5 825 c 128,-1,23
 412 768 412 768 469 768 c 128,-1,24
 526 768 526 768 583 825 c 128,-1,25
 640 882 640 882 640 939 c 2,26,-1
 640 1152 l 2,27,28
 640 1166 640 1166 626 1180.5 c 128,-1,29
 612 1195 612 1195 597 1195 c 2,30,-1
 341 1195 l 2,31,18
 327 1195 327 1195 313 1180.5 c 128,-1,19
341 1280 m 2,32,-1
 597 1280 l 2,33,34
 640 1280 640 1280 682.5 1237.5 c 128,-1,35
 725 1195 725 1195 725 1152 c 2,36,-1
 725 939 l 2,37,38
 725 854 725 854 640 768 c 2,39,-1
 569 697 l 2,40,41
 555 683 555 683 569 668 c 2,42,-1
 768 469 l 2,43,44
 782 455 782 455 796.5 455 c 128,-1,45
 811 455 811 455 811 469 c 2,46,-1
 811 583 l 2,47,48
 811 597 811 597 825 597 c 2,49,-1
 882 597 l 2,50,51
 896 597 896 597 896 583 c 2,52,-1
 896 469 l 2,53,54
 896 426 896 426 853.5 383.5 c 128,-1,55
 811 341 811 341 811 298.5 c 128,-1,56
 811 256 811 256 853.5 213.5 c 128,-1,57
 896 171 896 171 896 128 c 2,58,-1
 896 14 l 2,59,60
 896 0 896 0 882 0 c 2,61,-1
 825 0 l 2,62,63
 811 0 811 0 811 14 c 2,64,-1
 811 128 l 2,65,66
 811 142 811 142 796.5 142 c 128,-1,67
 782 142 782 142 768 128 c 2,68,-1
 725 85 l 2,69,70
 640 0 640 0 555 0 c 2,71,-1
 384 0 l 2,72,73
 299 0 299 0 213.5 85.5 c 128,-1,74
 128 171 128 171 128 256 c 2,75,-1
 128 427 l 2,76,77
 128 512 128 512 213 597 c 2,78,-1
 313 697 l 2,79,80
 327 711 327 711 327 725.5 c 128,-1,81
 327 740 327 740 313 754 c 2,82,-1
 299 768 l 2,83,84
 214 853 214 853 213 939 c 2,85,-1
 213 1152 l 2,86,87
 213 1195 213 1195 255.5 1237.5 c 128,-1,88
 298 1280 298 1280 341 1280 c 2,32,-1
EndSplineSet
Colour: 8000
EndChar
StartChar: quotesingle
Encoding: 39 39 8
Width: 288
VWidth: 0
Flags: MW
LayerCount: 2
Back
Fore
SplineSet
136 408 m 2,0,-1
 152 408 l 2,1,2
 156 408 156 408 156 404 c 2,3,-1
 156 292 l 6,4,5
 156 288 156 288 152 288 c 6,6,-1
 136 288 l 6,7,8
 132 288 132 288 132 292 c 6,9,-1
 132 404 l 2,10,11
 132 408 132 408 136 408 c 2,0,-1
EndSplineSet
Validated: 1
Colour: 8000
EndChar
StartChar: parenleft
Encoding: 40 40 9
Width: 288
VWidth: 0
Flags: MW
LayerCount: 2
Back
Fore
SplineSet
188 24 m 4,0,1
 192 24 192 24 192 20 c 2,2,-1
 192 4 l 2,3,4
 192 0 192 0 188 0 c 0,5,6
 168 0 168 0 148 20 c 2,7,-1
 116 52 l 2,8,9
 96 72 96 72 96 92 c 2,10,-1
 96 268 l 2,11,12
 96 288 96 288 116 308 c 2,13,-1
 148 340 l 2,14,15
 168 360 168 360 188 360 c 0,16,17
 192 360 192 360 192 356 c 2,18,-1
 192 340 l 2,19,20
 192 336 192 336 188 336 c 0,21,22
 176 336 176 336 164 324 c 2,23,-1
 132 292 l 2,24,25
 120 280 120 280 120 268 c 2,26,-1
 120 92 l 2,27,28
 120 80 120 80 132 68 c 2,29,-1
 164 36 l 2,30,31
 176 24 176 24 188 24 c 4,0,1
EndSplineSet
Validated: 1
Colour: 8000
EndChar
StartChar: asterisk
Encoding: 42 42 11
Width: 288
VWidth: 0
Flags: MW
LayerCount: 2
Back
Fore
SplineSet
36 172 m 2,0,-1
 36 188 l 2,1,2
 36 192 36 192 40 192 c 2,3,-1
 104 192 l 2,4,5
 108 192 108 192 108 196 c 128,-1,6
 108 200 108 200 104 204 c 2,7,-1
 56 252 l 2,8,9
 52 256 52 256 56 260 c 2,10,-1
 64 268 l 2,11,12
 68 272 68 272 72 268 c 2,13,-1
 140 200 l 2,14,15
 144 196 144 196 148 200 c 2,16,-1
 216 268 l 2,17,18
 220 272 220 272 224 268 c 2,19,-1
 232 260 l 2,20,21
 236 256 236 256 232 252 c 2,22,-1
 184 204 l 2,23,24
 180 200 180 200 180 196 c 128,-1,25
 180 192 180 192 184 192 c 2,26,-1
 248 192 l 2,27,28
 252 192 252 192 252 188 c 2,29,-1
 252 172 l 2,30,31
 252 168 252 168 248 168 c 2,32,-1
 184 168 l 2,33,34
 180 168 180 168 180 164 c 128,-1,35
 180 160 180 160 184 156 c 2,36,-1
 232 108 l 2,37,38
 236 104 236 104 232 100 c 2,39,-1
 224 92 l 2,40,41
 220 88 220 88 216 92 c 2,42,-1
 148 160 l 6,43,44
 144 164 144 164 140 160 c 2,45,-1
 72 92 l 2,46,47
 68 88 68 88 64 92 c 2,48,-1
 56 100 l 2,49,50
 52 104 52 104 56 108 c 2,51,-1
 104 156 l 2,52,53
 108 160 108 160 108 164 c 128,-1,54
 108 168 108 168 104 168 c 2,55,-1
 40 168 l 2,56,57
 36 168 36 168 36 172 c 2,0,-1
EndSplineSet
Validated: 1
Colour: 8000
EndChar
StartChar: plus
Encoding: 43 43 12
Width: 1024
VWidth: 0
Flags: MW
LayerCount: 3
Back
Fore
SplineSet
464 1024 m 258,0,-1
 560 1024 l 258,1,2
 576 1024 576 1024 576 1008 c 258,3,-1
 576 720 l 258,4,5
 576 704 576 704 592 704 c 258,6,-1
 880 704 l 258,7,8
 896 704 896 704 896 688 c 258,9,-1
 896 592 l 258,10,11
 896 576 896 576 880 576 c 258,12,-1
 592 576 l 258,13,14
 576 576 576 576 576 560 c 258,15,-1
 576 272 l 258,16,17
 576 256 576 256 560 256 c 258,18,-1
 464 256 l 258,19,20
 448 256 448 256 448 272 c 258,21,-1
 448 560 l 258,22,23
 448 576 448 576 432 576 c 258,24,-1
 144 576 l 258,25,26
 128 576 128 576 128 592 c 258,27,-1
 128 688 l 258,28,29
 128 704 128 704 144 704 c 258,30,-1
 432 704 l 258,31,32
 448 704 448 704 448 720 c 258,33,-1
 448 1008 l 262,34,35
 448 1024 448 1024 464 1024 c 258,0,-1
EndSplineSet
Layer: 2
SplineSet
484 1024 m 6,0,-1
 540 1024 l 6,1,2
 555 1024 555 1024 555 1010 c 2,3,-1
 555 697 l 2,4,5
 555 683 555 683 569 683 c 2,6,-1
 882 683 l 2,7,8
 896 683 896 683 896 668 c 2,9,-1
 896 612 l 6,10,11
 896 597 896 597 882 597 c 6,12,-1
 569 597 l 2,13,14
 555 597 555 597 555 583 c 2,15,-1
 555 270 l 2,16,17
 555 256 555 256 540 256 c 2,18,-1
 484 256 l 6,19,20
 469 256 469 256 469 270 c 2,21,-1
 469 583 l 2,22,23
 469 597 469 597 455 597 c 2,24,-1
 142 597 l 2,25,26
 128 597 128 597 128 612 c 2,27,-1
 128 668 l 6,28,29
 128 683 128 683 142 683 c 2,30,-1
 455 683 l 2,31,32
 469 683 469 683 469 697 c 2,33,-1
 469 1010 l 2,34,35
 469 1024 469 1024 484 1024 c 6,0,-1
EndSplineSet
Colour: 8000
EndChar
StartChar: comma
Encoding: 44 44 13
Width: 288
VWidth: 0
Flags: MW
LayerCount: 2
Back
Fore
SplineSet
124 72 m 6,0,-1
 140 72 l 6,1,2
 144 72 144 72 144 68 c 6,3,-1
 144 36 l 2,4,5
 144 8 144 8 116 -20 c 0,6,7
 112 -24 112 -24 108 -20 c 2,8,-1
 100 -12 l 2,9,10
 96 -8 96 -8 100 -4 c 0,11,12
 120 16 120 16 120 36 c 2,13,-1
 120 68 l 6,14,15
 120 72 120 72 124 72 c 6,0,-1
EndSplineSet
Validated: 1
Colour: 8000
EndChar
StartChar: hyphen
Encoding: 45 45 14
Width: 1024
VWidth: 0
Flags: MW
LayerCount: 3
Back
Fore
SplineSet
128 612 m 6,0,-1
 128 668 l 6,1,2
 128 683 128 683 142 683 c 2,3,-1
 882 683 l 2,4,5
 896 683 896 683 896 668 c 6,6,-1
 896 612 l 6,7,8
 896 597 896 597 882 597 c 2,9,-1
 142 597 l 2,10,11
 128 597 128 597 128 612 c 6,0,-1
EndSplineSet
Layer: 2
SplineSet
128 612 m 6,0,-1
 128 668 l 6,1,2
 128 683 128 683 142 683 c 2,3,-1
 882 683 l 2,4,5
 896 683 896 683 896 668 c 6,6,-1
 896 612 l 6,7,8
 896 597 896 597 882 597 c 2,9,-1
 142 597 l 2,10,11
 128 597 128 597 128 612 c 6,0,-1
EndSplineSet
Colour: 8000
EndChar
StartChar: period
Encoding: 46 46 15
Width: 288
VWidth: 0
Flags: MW
LayerCount: 2
Back
Fore
SplineSet
124 72 m 6,0,-1
 140 72 l 2,1,2
 144 72 144 72 144 68 c 2,3,-1
 144 4 l 2,4,5
 144 0 144 0 140 0 c 2,6,-1
 124 0 l 2,7,8
 120 0 120 0 120 4 c 2,9,-1
 120 68 l 2,10,11
 120 72 120 72 124 72 c 6,0,-1
EndSplineSet
Validated: 1
Colour: 8000
EndChar
StartChar: slash
Encoding: 47 47 16
Width: 1024
VWidth: 0
Flags: MW
LayerCount: 3
Back
Fore
SplineSet
720 1280 m 6,0,-1
 816 1280 l 2,1,2
 833 1280 833 1280 825.7875 1264 c 2,3,-1
 263.2125 16 l 2,4,5
 256 0 256 0 240 0 c 2,6,-1
 144 0 l 2,7,8
 128 0 128 0 135.2125 16 c 2,9,-1
 697.7875 1264 l 2,10,11
 705 1280 705 1280 720 1280 c 6,0,-1
EndSplineSet
Layer: 2
SplineSet
811 1180 m 2,0,-1
 299 14 l 2,1,2
 293 0 293 0 284 0 c 2,3,-1
 228 0 l 6,4,5
 206.852487136 -2.27373675443e-13 206.852487136 -2.27373675443e-13 213 14 c 2,6,-1
 725 1180 l 6,7,8
 732 1195 732 1195 740 1195 c 2,9,-1
 796 1195 l 2,10,11
 818 1195 818 1195 811 1180 c 2,0,-1
EndSplineSet
Colour: 8000
EndChar
StartChar: zero
Encoding: 48 48 17
Width: 288
VWidth: 0
Flags: MW
LayerCount: 2
Back
Fore
SplineSet
180 336 m 2,0,-1
 108 336 l 2,1,2
 92 336 92 336 76 320 c 128,-1,3
 60 304 60 304 60 284 c 2,4,-1
 60 124 l 2,5,6
 60 120 60 120 64 120 c 128,-1,7
 68 120 68 120 72 124 c 2,8,-1
 220 272 l 2,9,10
 228 280 228 280 228 288 c 0,11,12
 228 304 228 304 212 320 c 128,-1,13
 196 336 196 336 180 336 c 2,0,-1
108 24 m 2,14,-1
 180 24 l 2,15,16
 196 24 196 24 212 40 c 128,-1,17
 228 56 228 56 228 72 c 2,18,-1
 228 236 l 2,19,20
 228 240 228 240 224 240 c 128,-1,21
 220 240 220 240 216 236 c 2,22,-1
 68 88 l 2,23,24
 60 80 60 80 60 72 c 0,25,26
 60 56 60 56 76 40 c 128,-1,27
 92 24 92 24 108 24 c 2,14,-1
36 72 m 2,28,-1
 36 284 l 2,29,30
 36 312 36 312 60 336 c 128,-1,31
 84 360 84 360 108 360 c 2,32,-1
 180 360 l 2,33,34
 204 360 204 360 228 336 c 128,-1,35
 252 312 252 312 252 288 c 2,36,-1
 252 72 l 2,37,38
 252 48 252 48 228 24 c 128,-1,39
 204 0 204 0 180 0 c 2,40,-1
 108 0 l 2,41,42
 84 0 84 0 60 24 c 128,-1,43
 36 48 36 48 36 72 c 2,28,-1
EndSplineSet
Validated: 1
Colour: 8000
EndChar
StartChar: one
Encoding: 49 49 18
Width: 1024
VWidth: 0
Flags: MW
LayerCount: 3
Back
Fore
SplineSet
576 1264 m 258,0,-1
 576 144 l 258,1,2
 576 128 576 128 592 128 c 258,3,-1
 752 128 l 258,4,5
 768 128 768 128 768 112 c 258,6,-1
 768 16 l 258,7,8
 768 0 768 0 752 0 c 258,9,-1
 272 0 l 258,10,11
 256 0 256 0 256 16 c 258,12,-1
 256 112 l 258,13,14
 256 128 256 128 272 128 c 258,15,-1
 432 128 l 258,16,17
 448 128 448 128 448 144 c 258,18,-1
 448 1010 l 258,19,20
 448 1024 448 1024 434 1024 c 256,21,22
 421.527272727 1024 421.527272727 1024 406 1010 c 258,23,-1
 284 900 l 258,24,25
 269 887 269 887 256 900 c 258,26,-1
 228 928 l 258,27,28
 215.70781893 940.29218107 215.70781893 940.29218107 228 957 c 258,29,-1
 434 1237 l 258,30,31
 448 1256 448 1256 448 1264 c 256,32,33
 448 1280 448 1280 464 1280 c 258,34,-1
 560 1280 l 258,35,36
 576 1280 576 1280 576 1264 c 258,0,-1
EndSplineSet
Layer: 2
SplineSet
555 1266 m 2,0,-1
 555 100 l 6,1,2
 555 85 555 85 569 85 c 2,3,-1
 796 85 l 6,4,5
 811 85 811 85 811 71 c 2,6,-1
 811 14 l 2,7,8
 811 0 811 0 796 0 c 2,9,-1
 228 0 l 6,10,11
 213 0 213 0 213 14 c 2,12,-1
 213 71 l 2,13,14
 213 85 213 85 228 85 c 2,15,-1
 455 85 l 2,16,17
 469 85 469 85 469 100 c 2,18,-1
 469 1095 l 6,19,20
 469 1109 469 1109 455 1109 c 128,-1,21
 441 1109 441 1109 427 1095 c 2,22,-1
 284 953 l 2,23,24
 270 939 270 939 256 953 c 2,25,-1
 228 981 l 2,26,27
 214 995 214 995 228 1010 c 2,28,-1
 455 1237 l 2,29,30
 469 1251 469 1251 469 1265.5 c 128,-1,31
 469 1280 469 1280 484 1280 c 2,32,-1
 540 1280 l 2,33,34
 555 1280 555 1280 555 1266 c 2,0,-1
EndSplineSet
Colour: 8000
EndChar
StartChar: two
Encoding: 50 50 19
Width: 288
VWidth: 0
Flags: MW
LayerCount: 2
Back
Fore
SplineSet
212 208 m 2,0,1
 228 224 228 224 228 240 c 2,2,-1
 228 288 l 2,3,4
 228 304 228 304 212 320 c 128,-1,5
 196 336 196 336 180 336 c 2,6,-1
 108 336 l 2,7,8
 92 336 92 336 76 320 c 128,-1,9
 60 304 60 304 60 288 c 2,10,-1
 60 244 l 2,11,12
 60 240 60 240 56 240 c 2,13,-1
 40 240 l 2,14,15
 36 240 36 240 36 244 c 2,16,-1
 36 288 l 2,17,18
 36 312 36 312 60 336 c 128,-1,19
 84 360 84 360 108 360 c 2,20,-1
 180 360 l 2,21,22
 204 360 204 360 228 336 c 128,-1,23
 252 312 252 312 252 288 c 2,24,-1
 252 240 l 2,25,26
 252 216 252 216 228 192 c 2,27,-1
 72 36 l 2,28,29
 68 32 68 32 68 28 c 152,-1,30
 68 24 68 24 72 24 c 2,31,-1
 248 24 l 2,32,33
 252 24 252 24 252 20 c 2,34,-1
 252 4 l 2,35,36
 252 0 252 0 248 0 c 2,37,-1
 40 0 l 2,38,39
 36 0 36 0 36 4 c 2,40,-1
 36 24 l 2,41,42
 36 32 36 32 44 40 c 2,43,-1
 212 208 l 2,0,1
EndSplineSet
Validated: 1
Colour: 8000
EndChar
StartChar: three
Encoding: 51 51 20
Width: 1024
VWidth: 0
Flags: W
HStem: 0 128<275 749> 576 128<320 749> 1152 128<275 749>
VStem: 128 128<160.5 320 960 1119.5> 768 128<147 557 723 1133>
CounterMasks: 1 e0
LayerCount: 3
Back
Fore
SplineSet
256 208 m 258,0,1
 256 192 256 192 272 176 c 2,2,3
 304 144 l 258,4,5
 320 128 320 128 336 128 c 258,6,-1
 688 128 l 258,7,8
 704 128 704 128 720 144 c 258,9,10
 752 176 l 2,11,12
 768 192 768 192 768 208 c 258,13,-1
 768 496 l 258,14,15
 768 512 768 512 752 528 c 258,16,17
 720 560 l 2,18,19
 704 576 704 576 688 576 c 258,20,-1
 336 576 l 258,21,22
 320 576 320 576 320 592 c 258,23,-1
 320 688 l 258,24,25
 320 704 320 704 336 704 c 258,26,-1
 688 704 l 258,27,28
 704 704 704 704 720 720 c 2,29,30
 752 752 l 258,31,32
 768 768 768 768 768 784 c 258,33,-1
 768 1072 l 258,34,35
 768 1088 768 1088 752 1104 c 258,36,37
 720 1136 l 2,38,39
 704 1152 704 1152 688 1152 c 2,40,-1
 336 1152 l 258,41,42
 320 1152 320 1152 304 1136 c 2,43,-1
 272 1104 l 258,44,45
 256 1088 256 1088 256 1072 c 258,46,47
 256 976 l 2,48,49
 256 960 256 960 240 960 c 258,50,-1
 144 960 l 258,51,52
 128 960 128 960 128 976 c 2,53,54
 128 1120 l 258,55,56
 128 1152 128 1152 160 1184 c 258,57,-1
 224 1248 l 2,58,59
 256 1280 256 1280 288 1280 c 258,60,-1
 736 1280 l 258,61,62
 768 1280 768 1280 800 1248 c 2,63,-1
 864 1184 l 258,64,65
 896 1152 896 1152 896 1120 c 258,66,-1
 896 736 l 258,67,68
 896 704 896 704 864 672 c 258,69,-1
 848 656 l 6,70,71
 832 640 832 640 848 624 c 6,72,-1
 864 608 l 258,73,74
 896 576 896 576 896 544 c 258,75,-1
 896 160 l 258,76,77
 896 128 896 128 864 96 c 2,78,-1
 800 32 l 258,79,80
 768 0 768 0 736 0 c 258,81,-1
 288 0 l 258,82,83
 256 0 256 0 224 32 c 2,84,-1
 160 96 l 258,85,86
 128 128 128 128 128 160 c 2,87,-1
 128 304 l 258,88,89
 128 320 128 320 144 320 c 258,90,-1
 240 320 l 258,91,92
 256 320 256 320 256 304 c 26,93,-1
 256 208 l 258,0,1
EndSplineSet
Layer: 2
SplineSet
213 256 m 0,0,1
 213 199 213 199 270 142 c 128,-1,2
 327 85 327 85 384 85 c 2,3,-1
 640 85 l 2,4,5
 697 85 697 85 754 142 c 128,-1,6
 811 199 811 199 811 256 c 2,7,-1
 811 427 l 2,8,9
 811 484 811 484 754 540.5 c 128,-1,10
 697 597 697 597 640 597 c 2,11,-1
 398 597 l 2,12,13
 384 597 384 597 384 612 c 2,14,-1
 384 668 l 6,15,16
 384 683 384 683 398 683 c 2,17,-1
 640 683 l 2,18,19
 697 683 697 683 754 739.5 c 128,-1,20
 811 796 811 796 811 853 c 2,21,-1
 811 1024 l 2,22,23
 811 1081 811 1081 754 1138 c 128,-1,24
 697 1195 697 1195 640 1195 c 2,25,-1
 384 1195 l 2,26,27
 327 1195 327 1195 270 1138 c 128,-1,28
 213 1081 213 1081 213 1024 c 0,29,30
 213 1010 213 1010 199 1010 c 2,31,-1
 142 1010 l 2,32,33
 128 1010 128 1010 128 1024 c 0,34,35
 128 1109 128 1109 213.5 1194.5 c 128,-1,36
 299 1280 299 1280 384 1280 c 2,37,-1
 640 1280 l 2,38,39
 725 1280 725 1280 810.5 1194.5 c 128,-1,40
 896 1109 896 1109 896 1024 c 2,41,-1
 896 853 l 6,42,43
 896 766 896 766 811 683 c 4,44,45
 782 655 782 655 782 640.5 c 128,-1,46
 782 626 782 626 811 597 c 0,47,48
 896 512 896 512 896 427 c 2,49,-1
 896 256 l 2,50,51
 896 171 896 171 810.5 85.5 c 128,-1,52
 725 0 725 0 640 0 c 2,53,-1
 384 0 l 2,54,55
 299 0 299 0 213.5 85.5 c 128,-1,56
 128 171 128 171 128 256 c 0,57,58
 128 270 128 270 142 270 c 2,59,-1
 199 270 l 2,60,61
 213 270 213 270 213 256 c 0,0,1
EndSplineSet
Colour: 8000
EndChar
StartChar: four
Encoding: 52 52 21
Width: 1024
VWidth: 0
Flags: MW
LayerCount: 3
Back
Fore
SplineSet
228 341 m 6,0,-1
 796 341 l 6,1,2
 811 341 811 341 811 356 c 4,3,-1
 811 1095 l 6,4,5
 811 1109 811 1109 796.5 1109 c 132,-1,6
 782 1109 782 1109 768 1095 c 6,7,-1
 242 569 l 6,8,9
 213 540 213 540 213 512 c 6,10,-1
 213 356 l 6,11,12
 213 341 213 341 228 341 c 6,0,-1
882 0 m 6,13,-1
 825 0 l 6,14,15
 811 0 811 0 811 14 c 6,16,-1
 811 242 l 6,17,18
 811 256 811 256 796 256 c 6,19,-1
 142 256 l 6,20,21
 128 256 128 256 128 270 c 6,22,-1
 128 512 l 6,23,24
 128 569 128 569 185 626 c 6,25,-1
 796 1237 l 6,26,27
 811 1252 811 1252 811 1266 c 132,-1,28
 811 1280 811 1280 825 1280 c 6,29,-1
 882 1280 l 6,30,31
 896 1280 896 1280 896 1266 c 6,32,-1
 896 14 l 6,33,34
 896 0 896 0 882 0 c 6,13,-1
EndSplineSet
Colour: 8000
EndChar
StartChar: five
Encoding: 53 53 22
Width: 288
VWidth: 0
Flags: MW
LayerCount: 2
Back
Fore
SplineSet
252 356 m 2,0,-1
 252 340 l 2,1,2
 252 336 252 336 248 336 c 6,3,-1
 64 336 l 2,4,5
 60 336 60 336 60 332 c 26,6,-1
 60 220 l 2,7,8
 60 216 60 216 64 216 c 2,9,-1
 180 216 l 2,10,11
 204 216 204 216 228 192 c 128,-1,12
 252 168 252 168 252 144 c 2,13,-1
 252 72 l 2,14,15
 252 48 252 48 228 24 c 128,-1,16
 204 0 204 0 180 0 c 2,17,-1
 108 0 l 2,18,19
 84 0 84 0 60 24 c 128,-1,20
 36 48 36 48 36 72 c 0,21,22
 36 76 36 76 40 76 c 2,23,-1
 56 76 l 2,24,25
 60 76 60 76 60 72 c 0,26,27
 60 56 60 56 76 40 c 128,-1,28
 92 24 92 24 108 24 c 2,29,-1
 180 24 l 2,30,31
 196 24 196 24 212 40 c 128,-1,32
 228 56 228 56 228 72 c 2,33,-1
 228 144 l 2,34,35
 228 160 228 160 212 176 c 128,-1,36
 196 192 196 192 180 192 c 2,37,-1
 40 192 l 2,38,39
 36 192 36 192 36 196 c 2,40,-1
 36 356 l 2,41,42
 36 360 36 360 40 360 c 2,43,-1
 248 360 l 2,44,45
 252 360 252 360 252 356 c 2,0,-1
EndSplineSet
Validated: 1
Colour: 8000
EndChar
StartChar: six
Encoding: 54 54 23
Width: 288
VWidth: 0
Flags: MW
LayerCount: 2
Back
Fore
SplineSet
180 192 m 2,0,-1
 64 192 l 2,1,2
 60 192 60 192 60 188 c 2,3,-1
 60 72 l 2,4,5
 60 56 60 56 76 40 c 128,-1,6
 92 24 92 24 108 24 c 2,7,-1
 180 24 l 2,8,9
 196 24 196 24 212 40 c 128,-1,10
 228 56 228 56 228 72 c 2,11,-1
 228 144 l 2,12,13
 228 160 228 160 212 176 c 128,-1,14
 196 192 196 192 180 192 c 2,0,-1
228 356 m 2,15,-1
 228 340 l 2,16,17
 228 336 228 336 224 336 c 2,18,-1
 108 336 l 2,19,20
 92 336 92 336 76 320 c 128,-1,21
 60 304 60 304 60 288 c 2,22,-1
 60 220 l 6,23,24
 60 216 60 216 64 216 c 2,25,-1
 180 216 l 2,26,27
 204 216 204 216 228 192 c 128,-1,28
 252 168 252 168 252 144 c 2,29,-1
 252 72 l 2,30,31
 252 48 252 48 228 24 c 128,-1,32
 204 0 204 0 180 0 c 2,33,-1
 108 0 l 2,34,35
 84 0 84 0 60 24 c 128,-1,36
 36 48 36 48 36 72 c 2,37,-1
 36 288 l 2,38,39
 36 312 36 312 60 336 c 128,-1,40
 84 360 84 360 108 360 c 2,41,-1
 224 360 l 2,42,43
 228 360 228 360 228 356 c 2,15,-1
EndSplineSet
Validated: 1
Colour: 8000
EndChar
StartChar: seven
Encoding: 55 55 24
Width: 288
VWidth: 0
Flags: MW
LayerCount: 2
Back
Fore
SplineSet
56 288 m 2,0,-1
 40 288 l 2,1,2
 36 288 36 288 36 292 c 2,3,-1
 36 356 l 2,4,5
 36 360 36 360 40 360 c 2,6,-1
 248 360 l 2,7,8
 252 360 252 360 252 356 c 2,9,-1
 252 280 l 2,10,11
 252 232 252 232 204 184 c 128,-1,12
 156 136 156 136 156 88 c 2,13,-1
 156 4 l 2,14,15
 156 0 156 0 152 0 c 2,16,-1
 136 0 l 2,17,18
 132 0 132 0 132 4 c 2,19,-1
 132 96 l 2,20,21
 132 144 132 144 180 192 c 128,-1,22
 228 240 228 240 228 288 c 2,23,-1
 228 332 l 2,24,25
 228 336 228 336 224 336 c 2,26,-1
 64 336 l 2,27,28
 60 336 60 336 60 332 c 6,29,-1
 60 292 l 2,30,31
 60 288 60 288 56 288 c 2,0,-1
EndSplineSet
Validated: 1
Colour: 8000
EndChar
StartChar: eight
Encoding: 56 56 25
Width: 1024
VWidth: 0
Flags: MW
LayerCount: 2
Back
Fore
SplineSet
754 540.5 m 128,-1,1
 697 597 697 597 640 597 c 2,2,-1
 384 597 l 2,3,4
 327 597 327 597 270 540.5 c 128,-1,5
 213 484 213 484 213 427 c 2,6,-1
 213 256 l 2,7,8
 213 199 213 199 270 142 c 128,-1,9
 327 85 327 85 384 85 c 2,10,-1
 640 85 l 2,11,12
 697 85 697 85 754 142 c 128,-1,13
 811 199 811 199 811 256 c 2,14,-1
 811 427 l 2,15,0
 811 484 811 484 754 540.5 c 128,-1,1
811 853 m 2,16,-1
 811 1024 l 2,17,18
 811 1081 811 1081 754 1138 c 128,-1,19
 697 1195 697 1195 640 1195 c 2,20,-1
 384 1195 l 2,21,22
 327 1195 327 1195 270 1138 c 128,-1,23
 213 1081 213 1081 213 1024 c 2,24,-1
 213 853 l 2,25,26
 213 796 213 796 270 739.5 c 128,-1,27
 327 683 327 683 384 683 c 2,28,-1
 640 683 l 2,29,30
 697 683 697 683 754 739.5 c 128,-1,31
 811 796 811 796 811 853 c 2,16,-1
128 853 m 2,32,-1
 128 1024 l 2,33,34
 128 1109 128 1109 213.5 1194.5 c 128,-1,35
 299 1280 299 1280 384 1280 c 2,36,-1
 640 1280 l 2,37,38
 725 1280 725 1280 810.5 1194.5 c 128,-1,39
 896 1109 896 1109 896 1024 c 2,40,-1
 896 853 l 2,41,42
 896 768 896 768 811 683 c 0,43,44
 782 654 l 26,45,46
 768 640 768 640 782 626 c 26,47,-1
 811 597 l 0,48,49
 896 512 896 512 896 427 c 2,50,-1
 896 256 l 2,51,52
 896 171 896 171 810.5 85.5 c 128,-1,53
 725 0 725 0 640 0 c 2,54,-1
 384 0 l 2,55,56
 299 0 299 0 213.5 85.5 c 128,-1,57
 128 171 128 171 128 256 c 2,58,-1
 128 427 l 2,59,60
 128 512 128 512 213 597 c 2,61,-1
 242 626 l 18,62,63
 256 640 256 640 242 654 c 26,64,-1
 213 683 l 2,65,66
 128 768 128 768 128 853 c 2,32,-1
EndSplineSet
Colour: 8000
EndChar
StartChar: less
Encoding: 60 60 29
Width: 288
VWidth: 0
Flags: MW
LayerCount: 2
Back
Fore
SplineSet
53 188 m 2,0,-1
 221 356 l 2,1,2
 225 360 225 360 229 356 c 2,3,-1
 237 348 l 2,4,5
 241 344 241 344 237 340 c 6,6,-1
 85 188 l 2,7,8
 81 184 81 184 81 180 c 128,-1,9
 81 176 81 176 85 172 c 2,10,-1
 237 20 l 2,11,12
 241 16 241 16 237 12 c 2,13,-1
 229 4 l 2,14,15
 225 0 225 0 221 4 c 2,16,-1
 53 172 l 2,17,18
 49 176 49 176 49 180 c 128,-1,19
 49 184 49 184 53 188 c 2,0,-1
EndSplineSet
Validated: 1
Colour: 8000
EndChar
StartChar: question
Encoding: 63 63 32
Width: 288
VWidth: 0
Flags: MW
LayerCount: 2
Back
Fore
SplineSet
136 56 m 6,0,-1
 152 56 l 2,1,2
 156 56 156 56 156 52 c 2,3,-1
 156 4 l 2,4,5
 156 0 156 0 152 0 c 2,6,-1
 136 0 l 2,7,8
 132 0 132 0 132 4 c 2,9,-1
 132 52 l 2,10,11
 132 56 132 56 136 56 c 6,0,-1
60 244 m 2,12,13
 60 240 60 240 56 240 c 2,14,-1
 40 240 l 2,15,16
 36 240 36 240 36 244 c 2,17,-1
 36 288 l 2,18,19
 36 312 36 312 60 336 c 128,-1,20
 84 360 84 360 108 360 c 2,21,-1
 180 360 l 2,22,23
 204 360 204 360 228 336 c 128,-1,24
 252 312 252 312 252 288 c 2,25,-1
 252 240 l 0,26,-1
 252 232 l 2,27,28
 252 216 252 216 236 200 c 2,29,-1
 172 136 l 2,30,31
 156 120 156 120 156 104 c 2,32,-1
 156 92 l 2,33,34
 156 88 156 88 152 88 c 2,35,-1
 136 88 l 2,36,37
 132 88 132 88 132 92 c 2,38,-1
 132 112 l 2,39,40
 132 128 132 128 148 144 c 2,41,-1
 212 208 l 2,42,43
 228 224 228 224 228 240 c 2,44,-1
 228 288 l 2,45,46
 228 304 228 304 212 320 c 128,-1,47
 196 336 196 336 180 336 c 2,48,-1
 108 336 l 2,49,50
 92 336 92 336 76 320 c 128,-1,51
 60 304 60 304 60 288 c 2,52,-1
 60 244 l 2,12,13
EndSplineSet
Validated: 1
Colour: 8000
EndChar
StartChar: at
Encoding: 64 64 33
Width: 288
VWidth: 0
Flags: MW
LayerCount: 2
Back
Fore
SplineSet
236 264 m 2,0,-1
 168 264 l 2,1,2
 152 264 152 264 136 248 c 128,-1,3
 120 232 120 232 120 216 c 2,4,-1
 120 144 l 2,5,6
 120 128 120 128 136 112 c 128,-1,7
 152 96 152 96 168 96 c 2,8,-1
 192 96 l 2,9,10
 208 96 208 96 224 112 c 128,-1,11
 240 128 240 128 240 144 c 2,12,-1
 240 260 l 2,13,14
 240 264 240 264 236 264 c 2,0,-1
96 360 m 2,15,-1
 192 360 l 2,16,17
 216 360 216 360 240 336 c 128,-1,18
 264 312 264 312 264 288 c 2,19,-1
 264 76 l 2,20,21
 264 72 264 72 260 72 c 2,22,-1
 244 72 l 2,23,24
 240 72 240 72 236 76 c 128,-1,25
 232 80 232 80 228 80 c 128,-1,26
 224 80 224 80 220 76 c 128,-1,27
 216 72 216 72 212 72 c 2,28,-1
 168 72 l 2,29,30
 144 72 144 72 120 96 c 128,-1,31
 96 120 96 120 96 144 c 2,32,-1
 96 216 l 2,33,34
 96 240 96 240 120 264 c 128,-1,35
 144 288 144 288 168 288 c 2,36,-1
 236 288 l 2,37,38
 240 288 240 288 240 292 c 2,39,-1
 240 304 l 1,40,-1
 224 320 l 2,41,42
 208 336 208 336 192 336 c 2,43,-1
 96 336 l 2,44,45
 80 336 80 336 64 320 c 128,-1,46
 48 304 48 304 48 288 c 2,47,-1
 48 72 l 2,48,49
 48 56 48 56 64 40 c 128,-1,50
 80 24 80 24 96 24 c 2,51,-1
 260 24 l 2,52,53
 264 24 264 24 264 20 c 2,54,-1
 264 4 l 2,55,56
 264 0 264 0 260 0 c 6,57,-1
 96 0 l 2,58,59
 72 0 72 0 48 24 c 128,-1,60
 24 48 24 48 24 72 c 2,61,-1
 24 288 l 2,62,63
 24 312 24 312 48 336 c 128,-1,64
 72 360 72 360 96 360 c 2,15,-1
EndSplineSet
Validated: 1
Colour: 8000
EndChar
StartChar: A
Encoding: 65 65 34
Width: 1024
VWidth: 0
Flags: MW
LayerCount: 3
Back
Fore
SplineSet
213 1024 m 2,0,-1
 213 612 l 6,1,2
 213 597 213 597 228 597 c 2,3,-1
 796 597 l 6,4,5
 811 597 811 597 811 612 c 2,6,-1
 811 1024 l 2,7,8
 811 1081 811 1081 754 1138 c 128,-1,9
 697 1195 697 1195 640 1195 c 2,10,-1
 384 1195 l 2,11,12
 327 1195 327 1195 270 1138 c 128,-1,13
 213 1081 213 1081 213 1024 c 2,0,-1
213.5 1194.5 m 128,-1,15
 299 1280 299 1280 384 1280 c 2,16,-1
 640 1280 l 2,17,18
 725 1280 725 1280 810.5 1194.5 c 128,-1,19
 896 1109 896 1109 896 1024 c 2,20,-1
 896 14 l 2,21,22
 896 0 896 0 882 0 c 2,23,-1
 825 0 l 2,24,25
 811 0 811 0 811 14 c 2,26,-1
 811 498 l 2,27,28
 811 512 811 512 796 512 c 2,29,-1
 228 512 l 6,30,31
 213 512 213 512 213 498 c 2,32,-1
 213 14 l 2,33,34
 213 0 213 0 199 0 c 2,35,-1
 142 0 l 2,36,37
 128 0 128 0 128 14 c 2,38,-1
 128 1024 l 2,39,14
 128 1109 128 1109 213.5 1194.5 c 128,-1,15
EndSplineSet
Colour: 8000
EndChar
StartChar: B
Encoding: 66 66 35
Width: 1024
VWidth: 0
Flags: MWO
LayerCount: 3
Back
Fore
SplineSet
271 85 m 258,0,-1
 640 85 l 258,1,2
 697 85 697 85 754 142 c 256,3,4
 811 199 811 199 811 256 c 258,5,-1
 811 512 l 258,6,7
 811 526 811 526 754 583 c 256,8,9
 697 640 697 640 640 640 c 258,10,-1
 272 640 l 258,11,12
 256 640 256 640 256 625 c 262,13,-1
 256 100 l 258,14,15
 256 85 256 85 271 85 c 258,0,-1
271 768 m 258,16,-1
 640 768 l 258,17,18
 697 768 697 768 754 825 c 256,19,20
 811 882 811 882 811 939 c 258,21,-1
 811 1024 l 258,22,23
 811 1081 811 1081 754 1138 c 256,24,25
 697 1195 697 1195 640 1195 c 258,26,-1
 271 1195 l 258,27,28
 256 1195 256 1195 256 1180 c 258,29,-1
 256 782 l 258,30,31
 256 768 256 768 271 768 c 258,16,-1
810 1194 m 256,32,33
 896 1108 896 1108 896 1024 c 258,34,-1
 896 939 l 258,35,36
 896 854 896 854 811 768 c 258,37,-1
 782 740 l 274,38,39
 768 726 768 726 782 711 c 266,40,-1
 811 683 l 258,41,42
 896 598 896 598 896 512 c 258,43,-1
 896 256 l 258,44,45
 896 172 896 172 810 86 c 256,46,47
 724 0 724 0 640 0 c 258,48,-1
 142 0 l 258,49,50
 128 0 128 0 128 14 c 258,51,-1
 128 1266 l 258,52,53
 128 1280 128 1280 142 1280 c 258,54,-1
 640 1280 l 258,55,56
 724 1280 724 1280 810 1194 c 256,32,33
EndSplineSet
Layer: 2
SplineSet
228 85 m 6,0,-1
 640 85 l 2,1,2
 697 85 697 85 754 142 c 128,-1,3
 811 199 811 199 811 256 c 2,4,-1
 811 512 l 2,5,6
 811 569 811 569 754 626 c 128,-1,7
 697 683 697 683 640 683 c 2,8,-1
 228 683 l 6,9,10
 213 683 213 683 213 668 c 2,11,-1
 213 100 l 2,12,13
 213 85 213 85 228 85 c 6,0,-1
228 768 m 6,14,-1
 640 768 l 2,15,16
 697 768 697 768 754 825 c 128,-1,17
 811 882 811 882 811 939 c 2,18,-1
 811 1024 l 2,19,20
 811 1081 811 1081 754 1138 c 128,-1,21
 697 1195 697 1195 640 1195 c 2,22,-1
 228 1195 l 6,23,24
 213 1195 213 1195 213 1180 c 2,25,-1
 213 782 l 2,26,27
 213 768 213 768 228 768 c 6,14,-1
810.5 1194.5 m 128,-1,29
 896 1109 896 1109 896 1024 c 2,30,-1
 896 939 l 2,31,32
 896 854 896 854 811 768 c 2,33,-1
 782 740 l 18,34,35
 768 726 768 726 782 711 c 10,36,-1
 811 683 l 2,37,38
 896 598 896 598 896 512 c 2,39,-1
 896 256 l 2,40,41
 896 171 896 171 810.5 85.5 c 128,-1,42
 725 0 725 0 640 0 c 2,43,-1
 142 0 l 2,44,45
 128 0 128 0 128 14 c 2,46,-1
 128 1266 l 2,47,48
 128 1280 128 1280 142 1280 c 2,49,-1
 640 1280 l 2,50,28
 725 1280 725 1280 810.5 1194.5 c 128,-1,29
EndSplineSet
Colour: 8000
EndChar
StartChar: C
Encoding: 67 67 36
Width: 288
VWidth: 0
Flags: MW
LayerCount: 2
Back
Fore
SplineSet
228 268 m 6,0,-1
 228 288 l 2,1,2
 228 304 228 304 212 320 c 128,-1,3
 196 336 196 336 180 336 c 2,4,-1
 108 336 l 2,5,6
 92 336 92 336 76 320 c 128,-1,7
 60 304 60 304 60 288 c 2,8,-1
 60 72 l 2,9,10
 60 56 60 56 76 40 c 128,-1,11
 92 24 92 24 108 24 c 2,12,-1
 180 24 l 2,13,14
 196 24 196 24 212 40 c 128,-1,15
 228 56 228 56 228 72 c 2,16,-1
 228 92 l 2,17,18
 228 96 228 96 232 96 c 2,19,-1
 248 96 l 2,20,21
 252 96 252 96 252 92 c 2,22,-1
 252 72 l 2,23,24
 252 48 252 48 228 24 c 128,-1,25
 204 0 204 0 180 0 c 2,26,-1
 108 0 l 2,27,28
 84 0 84 0 60 24 c 128,-1,29
 36 48 36 48 36 72 c 2,30,-1
 36 288 l 2,31,32
 36 312 36 312 60 336 c 128,-1,33
 84 360 84 360 108 360 c 2,34,-1
 180 360 l 2,35,36
 204 360 204 360 228 336 c 128,-1,37
 252 312 252 312 252 288 c 2,38,-1
 252 268 l 2,39,40
 252 264 252 264 248 264 c 2,41,-1
 232 264 l 2,42,43
 228 264 228 264 228 268 c 6,0,-1
EndSplineSet
Validated: 1
Colour: 8000
EndChar
StartChar: D
Encoding: 68 68 37
Width: 1024
VWidth: 0
Flags: MW
LayerCount: 3
Back
Fore
SplineSet
213 1180 m 6,0,-1
 213 100 l 6,1,2
 213 85 213 85 228 85 c 6,3,-1
 640 85 l 2,4,5
 697 85 697 85 754 142 c 128,-1,6
 811 199 811 199 811 256 c 2,7,-1
 811 1024 l 2,8,9
 811 1081 811 1081 754 1138 c 128,-1,10
 697 1195 697 1195 640 1195 c 2,11,-1
 228 1195 l 2,12,13
 213 1195 213 1195 213 1180 c 6,0,-1
142 1280 m 2,14,-1
 640 1280 l 2,15,16
 725 1280 725 1280 810.5 1194.5 c 128,-1,17
 896 1109 896 1109 896 1024 c 2,18,-1
 896 256 l 2,19,20
 896 171 896 171 810.5 85.5 c 128,-1,21
 725 0 725 0 640 0 c 2,22,-1
 142 0 l 2,23,24
 128 0 128 0 128 14 c 2,25,-1
 128 1266 l 2,26,27
 128 1280 128 1280 142 1280 c 2,14,-1
EndSplineSet
Layer: 2
SplineSet
213 1180 m 6,0,-1
 213 100 l 6,1,2
 213 85 213 85 228 85 c 6,3,-1
 640 85 l 2,4,5
 697 85 697 85 754 142 c 128,-1,6
 811 199 811 199 811 256 c 2,7,-1
 811 1024 l 2,8,9
 811 1081 811 1081 754 1138 c 128,-1,10
 697 1195 697 1195 640 1195 c 2,11,-1
 228 1195 l 2,12,13
 213 1195 213 1195 213 1180 c 6,0,-1
142 1280 m 2,14,-1
 640 1280 l 2,15,16
 725 1280 725 1280 810.5 1194.5 c 128,-1,17
 896 1109 896 1109 896 1024 c 2,18,-1
 896 256 l 2,19,20
 896 171 896 171 810.5 85.5 c 128,-1,21
 725 0 725 0 640 0 c 2,22,-1
 142 0 l 2,23,24
 128 0 128 0 128 14 c 2,25,-1
 128 1266 l 2,26,27
 128 1280 128 1280 142 1280 c 2,14,-1
EndSplineSet
Colour: 8000
EndChar
StartChar: E
Encoding: 69 69 38
Width: 288
VWidth: 0
Flags: MW
LayerCount: 2
Back
Fore
SplineSet
40 360 m 2,0,-1
 248 360 l 2,1,2
 252 360 252 360 252 356 c 2,3,-1
 252 340 l 2,4,5
 252 336 252 336 248 336 c 2,6,-1
 64 336 l 2,7,8
 60 336 60 336 60 332 c 2,9,-1
 60 196 l 2,10,11
 60 192 60 192 64 192 c 2,12,-1
 200 192 l 2,13,14
 204 192 204 192 204 188 c 2,15,-1
 204 172 l 2,16,17
 204 168 204 168 200 168 c 2,18,-1
 64 168 l 2,19,20
 60 168 60 168 60 164 c 2,21,-1
 60 28 l 6,22,23
 60 24 60 24 64 24 c 2,24,-1
 248 24 l 2,25,26
 252 24 252 24 252 20 c 2,27,-1
 252 4 l 2,28,29
 252 0 252 0 248 0 c 2,30,-1
 40 0 l 2,31,32
 36 0 36 0 36 4 c 2,33,-1
 36 356 l 2,34,35
 36 360 36 360 40 360 c 2,0,-1
EndSplineSet
Validated: 1
Colour: 8000
EndChar
StartChar: F
Encoding: 70 70 39
Width: 1024
VWidth: 0
Flags: MW
LayerCount: 3
Back
Fore
SplineSet
142 1280 m 2,0,-1
 882 1280 l 2,1,2
 896 1280 896 1280 896 1266 c 2,3,-1
 896 1209 l 2,4,5
 896 1195 896 1195 882 1195 c 2,6,-1
 228 1195 l 6,7,8
 213 1195 213 1195 213 1180 c 2,9,-1
 213 697 l 6,10,11
 213 683 213 683 228 683 c 2,12,-1
 711 683 l 2,13,14
 725 683 725 683 725 668 c 2,15,-1
 725 612 l 6,16,17
 725 597 725 597 711 597 c 2,18,-1
 228 597 l 6,19,20
 213 597 213 597 213 583 c 2,21,-1
 213 14 l 2,22,23
 213 0 213 0 199 0 c 2,24,-1
 142 0 l 2,25,26
 128 0 128 0 128 14 c 2,27,-1
 128 1266 l 2,28,29
 128 1280 128 1280 142 1280 c 2,0,-1
EndSplineSet
Colour: 8000
EndChar
StartChar: G
Encoding: 71 71 40
Width: 288
VWidth: 0
Flags: MW
LayerCount: 2
Back
Fore
SplineSet
224 168 m 6,0,-1
 136 168 l 2,1,2
 132 168 132 168 132 172 c 2,3,-1
 132 188 l 2,4,5
 132 192 132 192 136 192 c 2,6,-1
 248 192 l 2,7,8
 252 192 252 192 252 188 c 2,9,-1
 252 72 l 2,10,11
 252 48 252 48 228 24 c 128,-1,12
 204 0 204 0 180 0 c 2,13,-1
 108 0 l 2,14,15
 84 0 84 0 60 24 c 128,-1,16
 36 48 36 48 36 72 c 2,17,-1
 36 288 l 2,18,19
 36 312 36 312 60 336 c 128,-1,20
 84 360 84 360 108 360 c 2,21,-1
 180 360 l 2,22,23
 204 360 204 360 228 336 c 128,-1,24
 252 312 252 312 252 288 c 2,25,-1
 252 268 l 2,26,27
 252 264 252 264 248 264 c 2,28,-1
 232 264 l 2,29,30
 228 264 228 264 228 268 c 2,31,-1
 228 288 l 2,32,33
 228 304 228 304 212 320 c 128,-1,34
 196 336 196 336 180 336 c 2,35,-1
 108 336 l 2,36,37
 92 336 92 336 76 320 c 128,-1,38
 60 304 60 304 60 288 c 2,39,-1
 60 72 l 2,40,41
 60 56 60 56 76 40 c 128,-1,42
 92 24 92 24 108 24 c 2,43,-1
 180 24 l 2,44,45
 196 24 196 24 212 40 c 128,-1,46
 228 56 228 56 228 72 c 2,47,-1
 228 164 l 2,48,49
 228 168 228 168 224 168 c 6,0,-1
EndSplineSet
Validated: 1
Colour: 8000
EndChar
StartChar: H
Encoding: 72 72 41
Width: 288
VWidth: 0
Flags: MW
LayerCount: 2
Back
Fore
SplineSet
40 360 m 2,0,-1
 56 360 l 2,1,2
 60 360 60 360 60 356 c 2,3,-1
 60 196 l 2,4,5
 60 192 60 192 64 192 c 2,6,-1
 224 192 l 2,7,8
 228 192 228 192 228 196 c 2,9,-1
 228 356 l 2,10,11
 228 360 228 360 232 360 c 2,12,-1
 248 360 l 2,13,14
 252 360 252 360 252 356 c 2,15,-1
 252 4 l 2,16,17
 252 0 252 0 248 0 c 2,18,-1
 232 0 l 2,19,20
 228 0 228 0 228 4 c 6,21,-1
 228 164 l 2,22,23
 228 168 228 168 224 168 c 2,24,-1
 64 168 l 2,25,26
 60 168 60 168 60 164 c 2,27,-1
 60 4 l 2,28,29
 60 0 60 0 56 0 c 2,30,-1
 40 0 l 2,31,32
 36 0 36 0 36 4 c 2,33,-1
 36 356 l 2,34,35
 36 360 36 360 40 360 c 2,0,-1
EndSplineSet
Validated: 1
Colour: 8000
EndChar
StartChar: I
Encoding: 73 73 42
Width: 1024
VWidth: 0
Flags: MW
LayerCount: 3
Back
Fore
SplineSet
336 1280 m 2,0,-1
 688 1280 l 2,1,2
 704 1280 704 1280 704 1264 c 2,3,-1
 704 1168 l 2,4,5
 704 1152 704 1152 688 1152 c 2,6,-1
 592 1152 l 2,7,8
 576 1152 576 1152 576 1136 c 2,9,-1
 576 144 l 2,10,11
 576 128 576 128 592 128 c 6,12,-1
 688 128 l 2,13,14
 704 128 704 128 704 112 c 2,15,-1
 704 16 l 2,16,17
 704 0 704 0 688 0 c 2,18,-1
 336 0 l 2,19,20
 320 0 320 0 320 16 c 2,21,-1
 320 112 l 2,22,23
 320 128 320 128 336 128 c 2,24,-1
 432 128 l 2,25,26
 448 128 448 128 448 144 c 2,27,-1
 448 1136 l 2,28,29
 448 1152 448 1152 432 1152 c 2,30,-1
 336 1152 l 2,31,32
 320 1152 320 1152 320 1168 c 2,33,-1
 320 1264 l 2,34,35
 320 1280 320 1280 336 1280 c 2,0,-1
EndSplineSet
Layer: 2
SplineSet
313 1280 m 2,0,-1
 711 1280 l 2,1,2
 725 1280 725 1280 725 1266 c 2,3,-1
 725 1209 l 2,4,5
 725 1195 725 1195 711 1195 c 2,6,-1
 569 1195 l 2,7,8
 555 1195 555 1195 555 1180 c 2,9,-1
 555 100 l 2,10,11
 555 85 555 85 569 85 c 2,12,-1
 711 85 l 2,13,14
 725 85 725 85 725 71 c 2,15,-1
 725 14 l 2,16,17
 725 0 725 0 711 0 c 2,18,-1
 313 0 l 2,19,20
 299 0 299 0 299 14 c 2,21,-1
 299 71 l 2,22,23
 299 85 299 85 313 85 c 2,24,-1
 455 85 l 2,25,26
 469 85 469 85 469 100 c 2,27,-1
 469 1180 l 6,28,29
 469 1195 469 1195 455 1195 c 2,30,-1
 313 1195 l 2,31,32
 299 1195 299 1195 299 1209 c 2,33,-1
 299 1266 l 2,34,35
 299 1280 299 1280 313 1280 c 2,0,-1
EndSplineSet
Colour: 8000
EndChar
StartChar: J
Encoding: 74 74 43
Width: 1024
VWidth: 0
Flags: MW
LayerCount: 3
Back
Fore
SplineSet
960 1264 m 262,0,-1
 960 1168 l 262,1,2
 960 1152 960 1152 944 1152 c 262,3,-1
 848 1152 l 262,4,5
 832 1152 832 1152 832 1136 c 262,6,-1
 832 160 l 262,7,8
 832 128 832 128 800 96 c 262,9,10
 736 32 l 262,11,12
 704 0 704 0 672 0 c 262,13,-1
 288 0 l 262,14,15
 256 0 256 0 224 32 c 262,16,17
 160 96 l 262,18,19
 128 128 128 128 128 160 c 262,20,-1
 128 368 l 262,21,22
 128 384 128 384 144 384 c 262,23,-1
 240 384 l 262,24,25
 256 384 256 384 256 368 c 262,26,-1
 256 208 l 262,27,28
 256 192 256 192 272 176 c 262,29,30
 304 144 l 262,31,32
 320 128 320 128 336 128 c 262,33,-1
 624 128 l 262,34,35
 640 128 640 128 656 144 c 262,36,37
 688 176 l 262,38,39
 704 192 704 192 704 208 c 262,40,-1
 704 1136 l 262,41,42
 704 1152 704 1152 688 1152 c 262,43,-1
 592 1152 l 262,44,45
 576 1152 576 1152 576 1168 c 262,46,-1
 576 1264 l 262,47,48
 576 1280 576 1280 592 1280 c 262,49,-1
 944 1280 l 262,50,51
 960 1280 960 1280 960 1264 c 262,0,-1
EndSplineSet
Layer: 2
SplineSet
939 1266 m 2,0,-1
 939 1209 l 2,1,2
 939 1195 939 1195 924 1195 c 2,3,-1
 782 1195 l 2,4,5
 768 1195 768 1195 768 1180 c 2,6,-1
 768 256 l 2,7,8
 768 171 768 171 682.5 85.5 c 128,-1,9
 597 0 597 0 512 0 c 2,10,-1
 341 0 l 2,11,12
 256 0 256 0 170.5 85.5 c 128,-1,13
 85 171 85 171 85 256 c 2,14,-1
 85 412 l 6,15,16
 85 427 85 427 100 427 c 2,17,-1
 156 427 l 2,18,19
 171 427 171 427 171 412 c 2,20,-1
 171 256 l 2,21,22
 171 199 171 199 227.5 142 c 128,-1,23
 284 85 284 85 341 85 c 2,24,-1
 512 85 l 2,25,26
 569 85 569 85 626 142 c 128,-1,27
 683 199 683 199 683 256 c 2,28,-1
 683 1180 l 2,29,30
 683 1195 683 1195 668 1195 c 2,31,-1
 526 1195 l 2,32,33
 512 1195 512 1195 512 1209 c 2,34,-1
 512 1266 l 2,35,36
 512 1280 512 1280 526 1280 c 2,37,-1
 924 1280 l 2,38,39
 939 1280 939 1280 939 1266 c 2,0,-1
EndSplineSet
Colour: 8000
EndChar
StartChar: K
Encoding: 75 75 44
Width: 1024
VWidth: 0
Flags: MW
LayerCount: 3
Back
Fore
SplineSet
144 1280 m 258,0,-1
 240 1280 l 258,1,2
 256 1280 256 1280 256 1264 c 258,3,-1
 256 784 l 258,4,5
 256 768 256 768 272 768 c 256,6,7
 304 768 l 256,8,9
 320 768 320 768 336 784 c 258,10,-1
 752 1200 l 258,11,12
 768 1216 768 1216 768 1232 c 258,13,-1
 768 1264 l 258,14,15
 768 1280 768 1280 784 1280 c 258,16,-1
 880 1280 l 258,17,18
 896 1280 896 1280 896 1264 c 258,19,-1
 896 1184 l 258,20,21
 896 1152 896 1152 864 1120 c 258,22,-1
 400 656 l 274,23,24
 384 640 384 640 400 624 c 282,25,-1
 864 160 l 258,26,27
 896 128 896 128 896 96 c 258,28,29
 896 14 l 258,30,31
 896 0 896 0 882 0 c 258,32,-1
 784 0 l 258,33,34
 768 0 768 0 768 16 c 258,35,36
 768 48 l 258,37,38
 768 64 768 64 754 78 c 258,39,-1
 331 501 l 258,40,41
 320 512 320 512 304 512 c 258,42,43
 270 512 l 258,44,45
 256 512 256 512 256 496 c 258,46,-1
 256 16 l 258,47,48
 256 0 256 0 240 0 c 258,49,-1
 144 0 l 258,50,51
 128 0 128 0 128 16 c 258,52,-1
 128 1264 l 258,53,54
 128 1280 128 1280 144 1280 c 258,0,-1
EndSplineSet
Layer: 2
SplineSet
142 1280 m 2,0,-1
 199 1280 l 2,1,2
 213 1280 213 1280 213 1266 c 2,3,-1
 213 697 l 2,4,5
 213 683 213 683 227.5 683 c 128,-1,6
 242 683 242 683 256 697 c 2,7,-1
 796 1237 l 2,8,9
 810 1251 810 1251 810 1265.5 c 132,-1,10
 810 1280 810 1280 825 1280 c 2,11,-1
 882 1280 l 2,12,13
 896 1280 896 1280 896 1266 c 0,14,15
 896 1223 896 1223 853 1180 c 2,16,-1
 341 668 l 2,17,18
 327 654 327 654 327 640 c 128,-1,19
 327 626 327 626 341 612 c 2,20,-1
 853 100 l 2,21,22
 896 57 896 57 896 14 c 0,23,24
 896 0 896 0 882 0 c 2,25,-1
 825 0 l 2,26,27
 811 0 811 0 811 14 c 128,-1,28
 811 28 811 28 796 43 c 2,29,-1
 256 583 l 2,30,31
 242 597 242 597 227.5 597 c 128,-1,32
 213 597 213 597 213 583 c 2,33,-1
 213 14 l 2,34,35
 213 0 213 0 199 0 c 2,36,-1
 142 0 l 2,37,38
 128 0 128 0 128 14 c 2,39,-1
 128 1266 l 2,40,41
 128 1280 128 1280 142 1280 c 2,0,-1
EndSplineSet
Colour: 8000
EndChar
StartChar: L
Encoding: 76 76 45
Width: 288
VWidth: 0
Flags: MW
LayerCount: 2
Back
Fore
SplineSet
36 4 m 2,0,-1
 36 356 l 2,1,2
 36 360 36 360 40 360 c 2,3,-1
 56 360 l 2,4,5
 60 360 60 360 60 356 c 2,6,-1
 60 28 l 6,7,8
 60 24 60 24 64 24 c 2,9,-1
 248 24 l 2,10,11
 252 24 252 24 252 20 c 2,12,-1
 252 4 l 2,13,14
 252 0 252 0 248 0 c 2,15,-1
 40 0 l 2,16,17
 36 0 36 0 36 4 c 2,0,-1
EndSplineSet
Validated: 1
Colour: 8000
EndChar
StartChar: M
Encoding: 77 77 46
Width: 1024
VWidth: 0
Flags: MW
LayerCount: 3
Back
Fore
SplineSet
496 560 m 258,0,-1
 304 752 l 258,1,2
 288 768 288 768 272 768 c 256,3,4
 256 768 256 768 256 752 c 258,5,-1
 256 14 l 258,6,7
 256 0 256 0 242 0 c 258,8,-1
 142 0 l 258,9,10
 128 0 128 0 128 14 c 258,11,-1
 128 1264 l 258,12,13
 128 1280 128 1280 144 1280 c 258,14,-1
 240 1280 l 258,15,16
 256 1280 256 1280 256 1264 c 258,17,-1
 256 1248 l 258,18,19
 256 992 256 992 480 768 c 262,20,-1
 496 752 l 262,21,22
 512 736 512 736 528 752 c 262,23,-1
 544 768 l 262,24,25
 768 992 768 992 768 1248 c 258,26,27
 768 1264 l 258,28,29
 768 1280 768 1280 784 1280 c 258,30,-1
 880 1280 l 258,31,32
 896 1280 896 1280 896 1264 c 258,33,-1
 896 14 l 258,34,35
 896 0 896 0 882 0 c 258,36,-1
 782 0 l 258,37,38
 768 0 768 0 768 14 c 258,39,-1
 768 754 l 258,40,41
 768 768 768 768 754 768 c 256,42,43
 739.216494845 768 739.216494845 768 725 754 c 258,44,-1
 528 560 l 258,45,46
 512 544 512 544 496 560 c 258,0,-1
EndSplineSet
Layer: 2
SplineSet
498 597 m 2,0,-1
 256 839 l 2,1,2
 242 853 242 853 227.5 853 c 128,-1,3
 213 853 213 853 213 839 c 2,4,-1
 213 14 l 2,5,6
 213 0 213 0 199 0 c 2,7,-1
 142 0 l 2,8,9
 128 0 128 0 128 14 c 2,10,-1
 128 1266 l 2,11,12
 128 1280 128 1280 142 1280 c 2,13,-1
 199 1280 l 2,14,15
 213 1280 213 1280 213 1266 c 0,16,17
 213 996 213 996 484 725 c 2,18,-1
 498 711 l 2,19,20
 512 697 512 697 526 711 c 2,21,-1
 540 725 l 2,22,23
 810 995 810 995 811 1266 c 0,24,25
 811 1280 811 1280 825 1280 c 2,26,-1
 882 1280 l 2,27,28
 896 1280 896 1280 896 1266 c 2,29,-1
 896 14 l 2,30,31
 896 0 896 0 882 0 c 2,32,-1
 825 0 l 2,33,34
 811 0 811 0 811 14 c 2,35,-1
 811 839 l 2,36,37
 811 853 811 853 796.5 853 c 128,-1,38
 782 853 782 853 768 839 c 2,39,-1
 526 597 l 2,40,41
 512 583 512 583 498 597 c 2,0,-1
EndSplineSet
Colour: 8000
EndChar
StartChar: N
Encoding: 78 78 47
Width: 288
VWidth: 0
Flags: MW
LayerCount: 2
Back
Fore
SplineSet
40 360 m 2,0,-1
 56 360 l 2,1,2
 60 360 60 360 60 356 c 0,3,4
 60 280 60 280 136 204 c 2,5,-1
 216 124 l 2,6,7
 220 120 220 120 224 120 c 128,-1,8
 228 120 228 120 228 124 c 2,9,-1
 228 356 l 2,10,11
 228 360 228 360 232 360 c 2,12,-1
 248 360 l 2,13,14
 252 360 252 360 252 356 c 2,15,-1
 252 4 l 2,16,17
 252 0 252 0 248 0 c 2,18,-1
 232 0 l 2,19,20
 228 0 228 0 228 4 c 0,21,22
 228 80 228 80 152 156 c 2,23,-1
 72 236 l 2,24,25
 68 240 68 240 64 240 c 128,-1,26
 60 240 60 240 60 236 c 2,27,-1
 60 4 l 2,28,29
 60 0 60 0 56 0 c 2,30,-1
 40 0 l 2,31,32
 36 0 36 0 36 4 c 6,33,-1
 36 356 l 2,34,35
 36 360 36 360 40 360 c 2,0,-1
EndSplineSet
Validated: 1
Colour: 8000
EndChar
StartChar: O
Encoding: 79 79 48
Width: 288
VWidth: 0
Flags: MW
LayerCount: 2
Back
Fore
SplineSet
60 288 m 2,0,-1
 60 72 l 2,1,2
 60 56 60 56 76 40 c 128,-1,3
 92 24 92 24 108 24 c 6,4,-1
 180 24 l 2,5,6
 196 24 196 24 212 40 c 128,-1,7
 228 56 228 56 228 72 c 2,8,-1
 228 288 l 2,9,10
 228 304 228 304 212 320 c 128,-1,11
 196 336 196 336 180 336 c 2,12,-1
 108 336 l 2,13,14
 92 336 92 336 76 320 c 128,-1,15
 60 304 60 304 60 288 c 2,0,-1
36 72 m 6,16,-1
 36 288 l 2,17,18
 36 312 36 312 60 336 c 128,-1,19
 84 360 84 360 108 360 c 2,20,-1
 180 360 l 2,21,22
 204 360 204 360 228 336 c 128,-1,23
 252 312 252 312 252 288 c 2,24,-1
 252 72 l 2,25,26
 252 48 252 48 228 24 c 128,-1,27
 204 0 204 0 180 0 c 2,28,-1
 108 0 l 2,29,30
 84 0 84 0 60 24 c 128,-1,31
 36 48 36 48 36 72 c 6,16,-1
EndSplineSet
Validated: 1
Colour: 8000
EndChar
StartChar: P
Encoding: 80 80 49
Width: 288
VWidth: 0
Flags: MW
LayerCount: 2
Back
Fore
SplineSet
64 192 m 2,0,-1
 180 192 l 2,1,2
 196 192 196 192 212 208 c 128,-1,3
 228 224 228 224 228 240 c 2,4,-1
 228 288 l 2,5,6
 228 304 228 304 212 320 c 128,-1,7
 196 336 196 336 180 336 c 2,8,-1
 64 336 l 6,9,10
 60 336 60 336 60 332 c 2,11,-1
 60 196 l 2,12,13
 60 192 60 192 64 192 c 2,0,-1
36 4 m 2,14,-1
 36 356 l 2,15,16
 36 360 36 360 40 360 c 2,17,-1
 180 360 l 2,18,19
 204 360 204 360 228 336 c 128,-1,20
 252 312 252 312 252 288 c 2,21,-1
 252 240 l 2,22,23
 252 216 252 216 228 192 c 128,-1,24
 204 168 204 168 180 168 c 2,25,-1
 64 168 l 2,26,27
 60 168 60 168 60 164 c 2,28,-1
 60 4 l 2,29,30
 60 0 60 0 56 0 c 2,31,-1
 40 0 l 2,32,33
 36 0 36 0 36 4 c 2,14,-1
EndSplineSet
Validated: 1
Colour: 8000
EndChar
StartChar: Q
Encoding: 81 81 50
Width: 1024
VWidth: 0
Flags: MW
LayerCount: 3
Back
Fore
SplineSet
128 160 m 258,0,-1
 128 1120 l 258,1,2
 128 1152 128 1152 160 1184 c 258,3,4
 224 1248 l 258,5,6
 256 1280 256 1280 288 1280 c 258,7,-1
 736 1280 l 258,8,9
 768 1280 768 1280 800 1248 c 258,10,11
 864 1184 l 258,12,13
 896 1152 896 1152 896 1120 c 258,14,-1
 896 160 l 258,15,16
 896 128 896 128 864 96 c 258,17,-1
 848 80 l 282,18,19
 832 64 832 64 832 48 c 256,20,21
 832 32 832 32 848 16 c 258,22,-1
 944 -80 l 258,23,24
 960 -96 960 -96 960 -112 c 256,25,26
 960 -128 960 -128 944 -128 c 258,27,-1
 848 -128 l 258,28,29
 832 -128 832 -128 816 -112 c 258,30,-1
 720 -16 l 258,31,32
 704 0 704 0 688 0 c 258,33,-1
 288 0 l 258,34,35
 256 0 256 0 224 32 c 258,36,-1
 160 96 l 258,37,38
 128 128 128 128 128 160 c 258,0,-1
256 1072 m 258,39,-1
 256 208 l 258,40,41
 256 190 256 190 272 176 c 256,42,-1
 304 144 l 258,43,44
 320 128 320 128 336 128 c 258,45,-1
 496 128 l 258,46,47
 512 128 512 128 512 144 c 256,48,49
 512 160 512 160 496 176 c 257,50,-1
 464 208 l 258,51,52
 448 224 448 224 448 240 c 256,53,54
 448 256 448 256 464 256 c 258,55,-1
 528 256 l 258,56,57
 544 256 544 256 560 240 c 258,58,-1
 656 144 l 258,59,60
 672 128 672 128 688 128 c 280,61,62
 704 128 704 128 720 144 c 258,63,-1
 752 176 l 258,64,65
 768 192 768 192 768 208 c 258,66,-1
 768 1072 l 258,67,68
 768 1088 768 1088 752 1104 c 258,69,-1
 720 1136 l 258,70,71
 704 1152 704 1152 688 1152 c 258,72,-1
 336 1152 l 258,73,74
 320 1152 320 1152 304 1136 c 258,75,-1
 272 1104 l 258,76,77
 256 1088 256 1088 256 1072 c 258,39,-1
EndSplineSet
Layer: 2
SplineSet
128 256 m 2,0,-1
 128 1024 l 2,1,2
 128 1109 128 1109 213.5 1194.5 c 128,-1,3
 299 1280 299 1280 384 1280 c 2,4,-1
 640 1280 l 2,5,6
 725 1280 725 1280 810.5 1194.5 c 128,-1,7
 896 1109 896 1109 896 1024 c 2,8,-1
 896 256 l 2,9,10
 896 171 896 171 811 85 c 2,11,-1
 782 57 l 2,12,13
 768 43 768 43 768 28.5 c 128,-1,14
 768 14 768 14 782 0 c 2,15,-1
 882 -100 l 2,16,17
 896 -114 896 -114 882 -128 c 2,18,-1
 853 -156 l 2,19,20
 839 -170 839 -170 825 -156 c 2,21,-1
 697 -28 l 2,22,23
 669 0 669 0 640 0 c 2,24,-1
 384 0 l 2,25,26
 299 0 299 0 213.5 85.5 c 128,-1,27
 128 171 128 171 128 256 c 2,0,-1
213 1024 m 2,28,-1
 213 256 l 2,29,30
 213 199 213 199 270 142 c 128,-1,31
 327 85 327 85 384 85 c 2,32,-1
 540 85 l 6,33,34
 555 85 555 85 555 99.5 c 128,-1,35
 555 114 555 114 540 128 c 2,36,-1
 484 185 l 2,37,38
 470 199 470 199 484 213 c 2,39,-1
 512 242 l 2,40,41
 526 256 526 256 540 242 c 2,42,-1
 683 100 l 2,43,44
 697 86 697 86 711 100 c 6,45,-1
 754 142 l 2,46,47
 811 199 811 199 811 256 c 2,48,-1
 811 1024 l 2,49,50
 811 1081 811 1081 754 1138 c 128,-1,51
 697 1195 697 1195 640 1195 c 2,52,-1
 384 1195 l 2,53,54
 327 1195 327 1195 270 1138 c 128,-1,55
 213 1081 213 1081 213 1024 c 2,28,-1
EndSplineSet
Colour: 8000
EndChar
StartChar: R
Encoding: 82 82 51
Width: 1024
VWidth: 0
Flags: MWO
LayerCount: 3
Back
Fore
SplineSet
271 683 m 258,0,-1
 640 683 l 258,1,2
 697 684 697 684 754 740 c 256,3,4
 811 796 811 796 811 853 c 258,5,-1
 811 1024 l 258,6,7
 811 1081 811 1081 754 1117 c 256,8,9
 697 1153 697 1153 640 1153 c 258,10,-1
 271 1153 l 258,11,12
 256 1153 256 1153 256 1138 c 258,13,-1
 256 697 l 258,14,15
 256 683 256 683 271 683 c 258,0,-1
128 14 m 258,16,-1
 128 1266 l 258,17,18
 128 1280 128 1280 142 1280 c 258,19,-1
 640 1280 l 258,20,21
 724 1280 724 1280 810 1194 c 256,22,23
 896 1108 896 1108 896 1024 c 258,24,-1
 896 769 l 258,25,26
 896 684 896 684 810 598 c 256,27,28
 724 512 724 512 640 512 c 258,29,-1
 528 512 l 258,30,31
 512 512 512 512 512 496 c 260,32,33
 512 479 512 479 528 464 c 258,34,-1
 864 144 l 262,35,36
 896 114 896 114 896 80 c 2,37,38
 896 16 l 258,39,40
 896 0 896 0 880 0 c 258,41,-1
 784 0 l 258,42,43
 768 0 768 0 768 16 c 274,44,-1
 768 48 l 2,45,46
 768 65.2008830022 768 65.2008830022 752 80 c 258,47,-1
 299 499 l 258,48,49
 284 513 284 513 270 513 c 256,50,51
 256 513 256 513 256 499 c 258,52,-1
 256 14 l 258,53,54
 256 0 256 0 242 0 c 258,55,-1
 142 0 l 258,56,57
 128 0 128 0 128 14 c 258,16,-1
EndSplineSet
Layer: 2
SplineSet
228 683 m 6,0,-1
 640 683 l 2,1,2
 697 683 697 683 754 739.5 c 128,-1,3
 811 796 811 796 811 853 c 2,4,-1
 811 1024 l 2,5,6
 811 1081 811 1081 754 1138 c 128,-1,7
 697 1195 697 1195 640 1195 c 2,8,-1
 228 1195 l 6,9,10
 213 1195 213 1195 213 1180 c 2,11,-1
 213 697 l 2,12,13
 213 683 213 683 228 683 c 6,0,-1
128 14 m 2,14,-1
 128 1266 l 2,15,16
 128 1280 128 1280 142 1280 c 2,17,-1
 640 1280 l 2,18,19
 725 1280 725 1280 810.5 1194.5 c 128,-1,20
 896 1109 896 1109 896 1024 c 2,21,-1
 896 853 l 2,22,23
 896 768 896 768 810.5 682.5 c 128,-1,24
 725 597 725 597 640 597 c 2,25,-1
 398 597 l 2,26,27
 384 597 384 597 384 583 c 128,-1,28
 384 569 384 569 398 555 c 2,29,-1
 853 100 l 2,30,31
 896 57 896 57 896 14 c 0,32,33
 896 0 896 0 882 0 c 2,34,-1
 825 0 l 2,35,36
 811 0 811 0 811 14 c 128,-1,37
 811 28 811 28 796 43 c 2,38,-1
 256 583 l 2,39,40
 242 597 242 597 227.5 597 c 128,-1,41
 213 597 213 597 213 583 c 2,42,-1
 213 14 l 2,43,44
 213 0 213 0 199 0 c 2,45,-1
 142 0 l 2,46,47
 128 0 128 0 128 14 c 2,14,-1
EndSplineSet
Colour: 8000
EndChar
StartChar: S
Encoding: 83 83 52
Width: 1024
VWidth: 0
Flags: MW
LayerCount: 3
Back
Fore
SplineSet
880 960 m 258,0,-1
 784 960 l 262,1,2
 768 960 768 960 768 976 c 258,3,4
 768 1072 l 258,5,6
 768 1088 768 1088 752 1104 c 258,7,8
 720 1136 l 258,9,10
 704 1152 704 1152 688 1152 c 258,11,-1
 336 1152 l 258,12,13
 320 1152 320 1152 304 1136 c 258,14,15
 272 1104 l 258,16,17
 256 1088 256 1088 256 1072 c 258,18,-1
 256 784 l 258,19,20
 256 768 256 768 272 752 c 2,21,22
 304 720 l 258,23,24
 320 704 320 704 336 704 c 258,25,-1
 736 704 l 258,26,27
 768 704 768 704 800 672 c 258,28,-1
 864 608 l 258,29,30
 896 576 896 576 896 544 c 258,31,-1
 896 160 l 258,32,33
 896 128 896 128 864 96 c 258,34,35
 800 32 l 258,36,37
 768 0 768 0 736 0 c 258,38,-1
 288 0 l 258,39,40
 256 0 256 0 224 32 c 258,41,42
 160 96 l 258,43,44
 128 128 128 128 128 160 c 256,45,46
 128 304 l 256,47,48
 128 320 128 320 144 320 c 258,49,-1
 240 320 l 258,50,51
 256 320 256 320 256 304 c 256,52,53
 256 208 l 258,54,55
 256 192 256 192 272 176 c 258,56,57
 304 144 l 258,58,59
 320 128 320 128 336 128 c 258,60,-1
 688 128 l 258,61,62
 704 128 704 128 720 144 c 258,63,-1
 752 176 l 258,64,65
 768 192 768 192 768 208 c 258,66,-1
 768 496 l 258,67,68
 768 512 768 512 752 528 c 2,69,-1
 720 560 l 258,70,71
 704 576 704 576 688 576 c 258,72,-1
 288 576 l 258,73,74
 256 576 256 576 224 608 c 258,75,76
 160 672 l 2,77,78
 128 704 128 704 128 736 c 258,79,-1
 128 1120 l 258,80,81
 128 1152 128 1152 160 1184 c 258,82,-1
 224 1248 l 258,83,84
 256 1280 256 1280 288 1280 c 258,85,-1
 736 1280 l 258,86,87
 768 1280 768 1280 800 1248 c 258,88,-1
 864 1184 l 258,89,90
 896 1152 896 1152 896 1120 c 258,91,-1
 896 976 l 258,92,93
 896 960 896 960 880 960 c 258,0,-1
EndSplineSet
Layer: 2
SplineSet
882 1010 m 2,0,-1
 825 1010 l 2,1,2
 811 1010 811 1010 811 1024 c 0,3,4
 811 1081 811 1081 754 1138 c 128,-1,5
 697 1195 697 1195 640 1195 c 2,6,-1
 384 1195 l 2,7,8
 327 1195 327 1195 270 1138 c 128,-1,9
 213 1081 213 1081 213 1024 c 2,10,-1
 213 853 l 2,11,12
 213 796 213 796 270 739.5 c 128,-1,13
 327 683 327 683 384 683 c 2,14,-1
 640 683 l 2,15,16
 725 683 725 683 810.5 597.5 c 128,-1,17
 896 512 896 512 896 427 c 2,18,-1
 896 256 l 2,19,20
 896 171 896 171 810.5 85.5 c 128,-1,21
 725 0 725 0 640 0 c 2,22,-1
 384 0 l 2,23,24
 299 0 299 0 213.5 85.5 c 128,-1,25
 128 171 128 171 128 256 c 0,26,27
 128 270 128 270 142 270 c 6,28,-1
 199 270 l 6,29,30
 213 270 213 270 213 256 c 0,31,32
 213 199 213 199 270 142 c 128,-1,33
 327 85 327 85 384 85 c 2,34,-1
 640 85 l 2,35,36
 697 85 697 85 754 142 c 128,-1,37
 811 199 811 199 811 256 c 2,38,-1
 811 427 l 2,39,40
 811 484 811 484 754 540.5 c 128,-1,41
 697 597 697 597 640 597 c 2,42,-1
 384 597 l 2,43,44
 299 597 299 597 213.5 682.5 c 128,-1,45
 128 768 128 768 128 853 c 2,46,-1
 128 1024 l 2,47,48
 128 1109 128 1109 213.5 1194.5 c 128,-1,49
 299 1280 299 1280 384 1280 c 2,50,-1
 640 1280 l 2,51,52
 725 1280 725 1280 810.5 1194.5 c 128,-1,53
 896 1109 896 1109 896 1024 c 0,54,55
 896 1010 896 1010 882 1010 c 2,0,-1
EndSplineSet
Colour: 8000
EndChar
StartChar: T
Encoding: 84 84 53
Width: 288
VWidth: 0
Flags: MW
LayerCount: 2
Back
Fore
SplineSet
40 360 m 2,0,-1
 248 360 l 2,1,2
 252 360 252 360 252 356 c 2,3,-1
 252 340 l 2,4,5
 252 336 252 336 248 336 c 2,6,-1
 160 336 l 2,7,8
 156 336 156 336 156 332 c 2,9,-1
 156 4 l 2,10,11
 156 0 156 0 152 0 c 2,12,-1
 136 0 l 2,13,14
 132 0 132 0 132 4 c 2,15,-1
 132 332 l 2,16,17
 132 336 132 336 128 336 c 6,18,-1
 40 336 l 2,19,20
 36 336 36 336 36 340 c 2,21,-1
 36 356 l 2,22,23
 36 360 36 360 40 360 c 2,0,-1
EndSplineSet
Validated: 1
Colour: 8000
EndChar
StartChar: U
Encoding: 85 85 54
Width: 288
VWidth: 0
Flags: MW
LayerCount: 2
Back
Fore
SplineSet
232 360 m 2,0,-1
 248 360 l 2,1,2
 252 360 252 360 252 356 c 2,3,-1
 252 72 l 2,4,5
 252 48 252 48 228 24 c 128,-1,6
 204 0 204 0 180 0 c 2,7,-1
 108 0 l 2,8,9
 84 0 84 0 60 24 c 128,-1,10
 36 48 36 48 36 72 c 2,11,-1
 36 356 l 2,12,13
 36 360 36 360 40 360 c 2,14,-1
 56 360 l 2,15,16
 60 360 60 360 60 356 c 2,17,-1
 60 72 l 2,18,19
 60 56 60 56 76 40 c 128,-1,20
 92 24 92 24 108 24 c 2,21,-1
 180 24 l 2,22,23
 196 24 196 24 212 40 c 128,-1,24
 228 56 228 56 228 72 c 2,25,-1
 228 356 l 2,26,27
 228 360 228 360 232 360 c 2,0,-1
EndSplineSet
Validated: 1
Colour: 8000
EndChar
StartChar: V
Encoding: 86 86 55
Width: 1024
VWidth: 0
Flags: MW
LayerCount: 3
Back
Fore
SplineSet
498 7 m 2,0,-1
 441 64 l 2,1,2
 128 377 128 377 128 690 c 2,3,-1
 128 1264 l 2,4,5
 128 1280 128 1280 144 1280 c 2,6,-1
 240 1280 l 2,7,8
 256 1280 256 1280 256 1264 c 2,9,-1
 256 690 l 2,10,11
 256 406 256 406 498 164 c 0,12,13
 512 150 512 150 526 164 c 0,14,15
 768 406 768 406 768 690 c 2,16,-1
 768 1264 l 2,17,18
 768 1280 768 1280 784 1280 c 2,19,-1
 880 1280 l 6,20,21
 896 1280 896 1280 896 1264 c 2,22,-1
 896 690 l 2,23,24
 896 377 896 377 583 64 c 2,25,-1
 526 7 l 2,26,27
 512 -7 512 -7 498 7 c 2,0,-1
EndSplineSet
Layer: 2
SplineSet
498 7 m 6,0,-1
 441 64 l 6,1,2
 128 377 128 377 128 690 c 6,3,-1
 128 1266 l 6,4,5
 128 1280 128 1280 142 1280 c 6,6,-1
 199 1280 l 6,7,8
 213 1280 213 1280 213 1266 c 6,9,-1
 213 690 l 6,10,11
 213 406 213 406 498 121 c 4,12,13
 512 107 512 107 526 121 c 4,14,15
 811 406 811 406 811 690 c 6,16,-1
 811 1266 l 6,17,18
 811 1280 811 1280 825 1280 c 6,19,-1
 882 1280 l 6,20,21
 896 1280 896 1280 896 1266 c 6,22,-1
 896 690 l 6,23,24
 896 377 896 377 583 64 c 6,25,-1
 526 7 l 6,26,27
 512 -7 512 -7 498 7 c 6,0,-1
EndSplineSet
Colour: 8000
EndChar
StartChar: X
Encoding: 88 88 57
Width: 288
VWidth: 0
Flags: MW
LayerCount: 2
Back
Fore
SplineSet
124 184 m 2,0,-1
 120 188 l 26,1,2
 36 272 36 272 36 356 c 0,3,4
 36 360 36 360 40 360 c 2,5,-1
 56 360 l 2,6,7
 60 360 60 360 60 356 c 0,8,9
 60 280 60 280 136 204 c 26,10,-1
 140 200 l 2,11,12
 144 196 144 196 148 200 c 2,13,-1
 152 204 l 26,14,15
 228 280 228 280 228 356 c 0,16,17
 228 360 228 360 232 360 c 2,18,-1
 248 360 l 2,19,20
 252 360 252 360 252 356 c 0,21,22
 252 272 252 272 168 188 c 26,23,-1
 164 184 l 2,24,25
 160 180 160 180 164 176 c 2,26,-1
 168 172 l 26,27,28
 252 88 252 88 252 4 c 0,29,30
 252 0 252 0 248 0 c 2,31,-1
 232 0 l 2,32,33
 228 0 228 0 228 4 c 0,34,35
 228 80 228 80 152 156 c 26,36,-1
 148 160 l 2,37,38
 144 164 144 164 140 160 c 2,39,-1
 136 156 l 26,40,41
 60 80 60 80 60 4 c 0,42,43
 60 0 60 0 56 0 c 2,44,-1
 40 0 l 2,45,46
 36 0 36 0 36 4 c 0,47,48
 36 88 36 88 120 172 c 26,49,-1
 124 176 l 2,50,51
 128 180 128 180 124 184 c 2,0,-1
EndSplineSet
Validated: 1
Colour: 8000
EndChar
StartChar: Y
Encoding: 89 89 58
Width: 288
VWidth: 0
Flags: MW
LayerCount: 2
Back
Fore
SplineSet
132 4 m 2,0,-1
 132 172 l 6,1,2
 132 176 132 176 128 180 c 2,3,-1
 120 188 l 2,4,5
 36 272 36 272 36 356 c 0,6,7
 36 360 36 360 40 360 c 2,8,-1
 56 360 l 2,9,10
 60 360 60 360 60 356 c 0,11,12
 60 280 60 280 136 204 c 2,13,-1
 140 200 l 2,14,15
 144 196 144 196 148 200 c 2,16,-1
 152 204 l 2,17,18
 228 280 228 280 228 356 c 0,19,20
 228 360 228 360 232 360 c 2,21,-1
 248 360 l 2,22,23
 252 360 252 360 252 356 c 0,24,25
 252 272 252 272 168 188 c 2,26,-1
 160 180 l 2,27,28
 156 176 156 176 156 172 c 2,29,-1
 156 4 l 2,30,31
 156 0 156 0 152 0 c 2,32,-1
 136 0 l 2,33,34
 132 0 132 0 132 4 c 2,0,-1
EndSplineSet
Validated: 1
Colour: 8000
EndChar
StartChar: Z
Encoding: 90 90 59
Width: 288
VWidth: 0
Flags: MW
LayerCount: 2
Back
Fore
SplineSet
36 340 m 2,0,-1
 36 356 l 2,1,2
 36 360 36 360 40 360 c 2,3,-1
 248 360 l 2,4,5
 252 360 252 360 252 356 c 2,6,-1
 252 320 l 2,7,8
 252 272 252 272 204 224 c 2,9,-1
 108 128 l 2,10,11
 60 80 60 80 60 32 c 0,12,13
 60 24 60 24 68 24 c 2,14,-1
 248 24 l 2,15,16
 252 24 252 24 252 20 c 2,17,-1
 252 4 l 2,18,19
 252 0 252 0 248 0 c 2,20,-1
 40 0 l 2,21,22
 36 0 36 0 36 4 c 6,23,-1
 36 40 l 2,24,25
 36 88 36 88 84 136 c 2,26,-1
 180 232 l 2,27,28
 228 280 228 280 228 328 c 0,29,30
 228 336 228 336 220 336 c 2,31,-1
 40 336 l 2,32,33
 36 336 36 336 36 340 c 2,0,-1
EndSplineSet
Validated: 1
Colour: 8000
EndChar
StartChar: bracketleft
Encoding: 91 91 60
Width: 1024
VWidth: 0
Flags: MW
LayerCount: 3
Back
Fore
SplineSet
256 16 m 262,0,-1
 256 1264 l 262,1,2
 256 1280 256 1280 272 1280 c 262,3,-1
 688 1280 l 262,4,5
 704 1280 704 1280 704 1264 c 262,6,-1
 704 1166 l 262,7,8
 704 1152 704 1152 692 1152 c 262,9,-1
 400 1152 l 262,10,11
 384 1152 384 1152 384 1136 c 262,12,-1
 384 144 l 262,13,14
 384 128 384 128 400 128 c 262,15,-1
 688 128 l 262,16,17
 704 128 704 128 704 112 c 262,18,-1
 704 16 l 262,19,20
 704 0 704 0 688 0 c 262,21,-1
 272 0 l 262,22,23
 256 0 256 0 256 16 c 262,0,-1
EndSplineSet
Layer: 2
SplineSet
341 14 m 2,0,-1
 341 1266 l 2,1,2
 341 1280 341 1280 355 1280 c 6,3,-1
 669 1280 l 2,4,5
 683 1280 683 1280 683 1266 c 2,6,-1
 683 1209 l 2,7,8
 683 1195 683 1195 669 1195 c 2,9,-1
 441 1195 l 2,10,11
 427 1195 427 1195 427 1180 c 2,12,-1
 427 100 l 2,13,14
 427 85 427 85 441 85 c 2,15,-1
 668 85 l 2,16,17
 683 85 683 85 683 71 c 2,18,-1
 683 14 l 2,19,20
 683 0 683 0 669 0 c 2,21,-1
 356 0 l 2,22,23
 341 0 341 0 341 14 c 2,0,-1
EndSplineSet
Colour: 8000
EndChar
StartChar: backslash
Encoding: 92 92 61
Width: 288
VWidth: 0
UnlinkRmOvrlpSave: 1
Flags: MW
LayerCount: 2
Back
Fore
SplineSet
60 332 m 2,0,1
 60 336 60 336 64 336 c 2,2,-1
 80 336 l 2,3,4
 84 336 84 336 84 332 c 2,5,-1
 228 4 l 2,6,7
 228 0 228 0 224 0 c 2,8,-1
 208 0 l 2,9,10
 204 0 204 0 204 4 c 2,11,-1
 60 332 l 2,0,1
EndSplineSet
Colour: 8000
EndChar
StartChar: asciicircum
Encoding: 94 94 63
Width: 288
VWidth: 0
Flags: MW
LayerCount: 2
Back
Fore
SplineSet
148 408 m 6,0,-1
 248 308 l 2,1,2
 252 304 252 304 248 300 c 2,3,-1
 240 292 l 2,4,5
 236 288 236 288 232 292 c 2,6,-1
 148 376 l 2,7,8
 144 380 144 380 140 376 c 2,9,-1
 56 292 l 2,10,11
 52 288 52 288 48 292 c 2,12,-1
 40 300 l 2,13,14
 36 304 36 304 40 308 c 2,15,-1
 140 408 l 2,16,17
 144 412 144 412 148 408 c 6,0,-1
EndSplineSet
Validated: 1
Colour: 8000
EndChar
StartChar: grave
Encoding: 96 96 65
Width: 1024
VWidth: 0
Flags: MW
LayerCount: 3
Back
Fore
SplineSet
455 1607 m 6,0,-1
 626 1436 l 2,1,2
 640 1422 640 1422 626 1408 c 2,3,-1
 597 1380 l 2,4,5
 583 1366 583 1366 569 1380 c 2,6,-1
 398 1550 l 2,7,8
 384 1564 384 1564 398 1579 c 2,9,-1
 427 1607 l 2,10,11
 441 1621 441 1621 455 1607 c 6,0,-1
EndSplineSet
Validated: 3073
Layer: 2
SplineSet
455 1607 m 6,0,-1
 626 1436 l 2,1,2
 640 1422 640 1422 626 1408 c 2,3,-1
 597 1380 l 2,4,5
 583 1366 583 1366 569 1380 c 2,6,-1
 398 1550 l 2,7,8
 384 1564 384 1564 398 1579 c 2,9,-1
 427 1607 l 2,10,11
 441 1621 441 1621 455 1607 c 6,0,-1
EndSplineSet
Colour: 8000
EndChar
StartChar: a
Encoding: 97 97 66
Width: 1024
VWidth: 0
Flags: MW
LayerCount: 3
Back
Fore
SplineSet
255 341 m 2,0,-1
 255 256 l 2,1,2
 255 199 255 199 291 164 c 128,-1,3
 327 129 327 129 384 129 c 2,4,-1
 749 129 l 2,5,6
 764 129 764 129 764 144 c 2,7,-1
 764 435 l 2,8,9
 764 449 764 449 749 449 c 2,10,-1
 384 449 l 2,11,12
 334 449 334 449 270 392 c 0,13,14
 255 341 l 2,0,-1
128 256 m 2,15,-1
 128 341 l 2,16,17
 128 426 128 426 213.517089844 511.017089844 c 0,18,19
 278.843234146 575.844431144 278.843234146 575.844431144 384 577 c 6,20,-1
 748 581 l 2,21,22
 763 581 763 581 763 596 c 2,23,-1
 763 683 l 2,24,25
 763 740 763 740 730 754 c 128,-1,26
 697 768 697 768 640 768 c 2,27,-1
 196 768 l 2,28,29
 181 768 181 768 181 868 c 2,30,-1
 181 882 l 2,31,32
 181 897 181 897 196 897 c 2,33,-1
 640 897 l 2,34,35
 725 897 725 897 810.5 832.5 c 128,-1,36
 896 768 896 768 896 683 c 2,37,-1
 896 14 l 2,38,39
 896 0 896 0 882 0 c 2,40,-1
 384 0 l 2,41,42
 299 0 299 0 213.5 85.5 c 128,-1,43
 128 171 128 171 128 256 c 2,15,-1
EndSplineSet
Layer: 2
SplineSet
213 341 m 2,0,-1
 213 256 l 2,1,2
 213 199 213 199 270 142 c 128,-1,3
 327 85 327 85 384 85 c 2,4,-1
 796 85 l 2,5,6
 810 85 810 85 811 100 c 6,7,-1
 811 498 l 2,8,9
 811 512 811 512 796 512 c 2,10,-1
 384 512 l 2,11,12
 327 512 327 512 270 455 c 128,-1,13
 213 398 213 398 213 341 c 2,0,-1
128 256 m 2,14,-1
 128 341 l 2,15,16
 128 426 128 426 213.5 511.5 c 128,-1,17
 299 597 299 597 384 597 c 2,18,-1
 796 597 l 2,19,20
 810 597 810 597 811 612 c 2,21,-1
 811 683 l 2,22,23
 811 740 811 740 754 796.5 c 128,-1,24
 697 853 697 853 640 853 c 2,25,-1
 228 853 l 2,26,27
 214 853 214 853 213 868 c 2,28,-1
 213 924 l 2,29,30
 213 938 213 938 228 939 c 2,31,-1
 640 939 l 2,32,33
 725 939 725 939 810.5 853.5 c 128,-1,34
 896 768 896 768 896 683 c 2,35,-1
 896 14 l 2,36,37
 896 0 896 0 882 0 c 2,38,-1
 384 0 l 2,39,40
 299 0 299 0 213.5 85.5 c 128,-1,41
 128 171 128 171 128 256 c 2,14,-1
EndSplineSet
Colour: 8000
EndChar
StartChar: b
Encoding: 98 98 67
Width: 288
VWidth: 0
Flags: MW
LayerCount: 2
Back
Fore
SplineSet
60 236 m 2,0,-1
 60 28 l 2,1,2
 60 24 60 24 64 24 c 2,3,-1
 180 24 l 2,4,5
 196 24 196 24 212 40 c 128,-1,6
 228 56 228 56 228 72 c 2,7,-1
 228 192 l 2,8,9
 228 208 228 208 212 224 c 128,-1,10
 196 240 196 240 180 240 c 2,11,-1
 64 240 l 2,12,13
 60 240 60 240 60 236 c 2,0,-1
36 4 m 2,14,-1
 36 356 l 2,15,16
 36 360 36 360 40 360 c 2,17,-1
 56 360 l 2,18,19
 60 360 60 360 60 356 c 2,20,-1
 60 268 l 2,21,22
 60 264 60 264 64 264 c 2,23,-1
 180 264 l 2,24,25
 204 264 204 264 228 240 c 128,-1,26
 252 216 252 216 252 192 c 2,27,-1
 252 72 l 2,28,29
 252 48 252 48 228 24 c 128,-1,30
 204 0 204 0 180 0 c 2,31,-1
 40 0 l 2,32,33
 36 0 36 0 36 4 c 2,14,-1
EndSplineSet
Validated: 1
Colour: 8000
EndChar
StartChar: c
Encoding: 99 99 68
Width: 288
VWidth: 0
Flags: MW
LayerCount: 2
Back
Fore
SplineSet
228 192 m 0,0,1
 228 208 228 208 212 224 c 128,-1,2
 196 240 196 240 180 240 c 2,3,-1
 108 240 l 2,4,5
 92 240 92 240 76 224 c 128,-1,6
 60 208 60 208 60 192 c 2,7,-1
 60 72 l 2,8,9
 60 56 60 56 76 40 c 128,-1,10
 92 24 92 24 108 24 c 2,11,-1
 180 24 l 2,12,13
 196 24 196 24 212 40 c 128,-1,14
 228 56 228 56 228 72 c 0,15,16
 228 76 228 76 232 76 c 2,17,-1
 248 76 l 2,18,19
 252 76 252 76 252 72 c 0,20,21
 252 48 252 48 228 24 c 128,-1,22
 204 0 204 0 180 0 c 2,23,-1
 108 0 l 2,24,25
 84 0 84 0 60 24 c 128,-1,26
 36 48 36 48 36 72 c 2,27,-1
 36 192 l 2,28,29
 36 216 36 216 60 240 c 128,-1,30
 84 264 84 264 108 264 c 2,31,-1
 180 264 l 2,32,33
 204 264 204 264 228 240 c 128,-1,34
 252 216 252 216 252 192 c 0,35,36
 252 188 252 188 248 188 c 2,37,-1
 232 188 l 2,38,39
 228 188 228 188 228 192 c 0,0,1
EndSplineSet
Validated: 1
Colour: 8000
EndChar
StartChar: d
Encoding: 100 100 69
Width: 288
VWidth: 0
UnlinkRmOvrlpSave: 1
Flags: MW
LayerCount: 2
Back
Fore
SplineSet
228 236 m 2,0,1
 228 240 228 240 224 240 c 2,2,-1
 108 240 l 2,3,4
 92 240 92 240 76 224 c 128,-1,5
 60 208 60 208 60 192 c 2,6,-1
 60 72 l 2,7,8
 60 56 60 56 76 40 c 128,-1,9
 92 24 92 24 108 24 c 2,10,-1
 224 24 l 2,11,12
 228 24 228 24 228 28 c 2,13,-1
 228 236 l 2,0,1
252 4 m 2,14,15
 252 0 252 0 248 0 c 2,16,-1
 108 0 l 2,17,18
 84 0 84 0 60 24 c 128,-1,19
 36 48 36 48 36 72 c 2,20,-1
 36 192 l 2,21,22
 36 216 36 216 60 240 c 128,-1,23
 84 264 84 264 108 264 c 2,24,-1
 224 264 l 2,25,26
 228 264 228 264 228 268 c 2,27,-1
 228 356 l 2,28,29
 228 360 228 360 232 360 c 2,30,-1
 248 360 l 2,31,32
 252 360 252 360 252 356 c 2,33,-1
 252 4 l 2,14,15
EndSplineSet
Colour: 8000
EndChar
StartChar: e
Encoding: 101 101 70
Width: 288
VWidth: 0
Flags: MW
LayerCount: 2
Back
Fore
SplineSet
60 192 m 2,0,-1
 60 148 l 2,1,2
 60 144 60 144 64 144 c 2,3,-1
 224 144 l 2,4,5
 228 144 228 144 228 148 c 2,6,-1
 228 192 l 2,7,8
 228 208 228 208 212 224 c 128,-1,9
 196 240 196 240 180 240 c 2,10,-1
 108 240 l 2,11,12
 92 240 92 240 76 224 c 128,-1,13
 60 208 60 208 60 192 c 2,0,-1
36 72 m 2,14,-1
 36 192 l 2,15,16
 36 216 36 216 60 240 c 128,-1,17
 84 264 84 264 108 264 c 2,18,-1
 180 264 l 2,19,20
 204 264 204 264 228 240 c 128,-1,21
 252 216 252 216 252 192 c 2,22,-1
 252 124 l 2,23,24
 252 120 252 120 248 120 c 2,25,-1
 64 120 l 2,26,27
 60 120 60 120 60 116 c 2,28,-1
 60 72 l 2,29,30
 60 56 60 56 76 40 c 128,-1,31
 92 24 92 24 108 24 c 2,32,-1
 216 24 l 2,33,34
 220 24 220 24 224 28 c 128,-1,35
 228 32 228 32 228 36 c 6,36,-1
 228 44 l 2,37,38
 228 48 228 48 232 48 c 2,39,-1
 248 48 l 2,40,41
 252 48 252 48 252 44 c 2,42,-1
 252 36 l 2,43,44
 252 24 252 24 240 12 c 128,-1,45
 228 0 228 0 216 0 c 2,46,-1
 108 0 l 2,47,48
 84 0 84 0 60 24 c 128,-1,49
 36 48 36 48 36 72 c 2,14,-1
EndSplineSet
Validated: 1
Colour: 8000
EndChar
StartChar: f
Encoding: 102 102 71
Width: 288
VWidth: 0
Flags: MW
LayerCount: 2
Back
Fore
SplineSet
120 268 m 2,0,-1
 120 324 l 2,1,2
 120 336 120 336 132 348 c 128,-1,3
 144 360 144 360 156 360 c 2,4,-1
 236 360 l 2,5,6
 240 360 240 360 240 356 c 2,7,-1
 240 340 l 2,8,9
 240 336 240 336 236 336 c 2,10,-1
 156 336 l 2,11,12
 152 336 152 336 148 332 c 128,-1,13
 144 328 144 328 144 324 c 6,14,-1
 144 268 l 2,15,16
 144 264 144 264 148 264 c 2,17,-1
 212 264 l 2,18,19
 216 264 216 264 216 260 c 2,20,-1
 216 244 l 2,21,22
 216 240 216 240 212 240 c 2,23,-1
 148 240 l 2,24,25
 144 240 144 240 144 236 c 2,26,-1
 144 4 l 2,27,28
 144 0 144 0 140 0 c 2,29,-1
 124 0 l 2,30,31
 120 0 120 0 120 4 c 2,32,-1
 120 236 l 2,33,34
 120 240 120 240 116 240 c 2,35,-1
 52 240 l 2,36,37
 48 240 48 240 48 244 c 2,38,-1
 48 260 l 2,39,40
 48 264 48 264 52 264 c 2,41,-1
 116 264 l 2,42,43
 120 264 120 264 120 268 c 2,0,-1
EndSplineSet
Validated: 1
Colour: 8000
EndChar
StartChar: g
Encoding: 103 103 72
Width: 288
VWidth: 0
Flags: MW
LayerCount: 2
Back
Fore
SplineSet
60 192 m 2,0,-1
 60 72 l 2,1,2
 60 56 60 56 76 40 c 128,-1,3
 92 24 92 24 108 24 c 2,4,-1
 180 24 l 2,5,6
 196 24 196 24 212 40 c 128,-1,7
 228 56 228 56 228 72 c 2,8,-1
 228 236 l 2,9,10
 228 240 228 240 224 240 c 6,11,-1
 108 240 l 2,12,13
 92 240 92 240 76 224 c 128,-1,14
 60 208 60 208 60 192 c 2,0,-1
36 72 m 2,15,-1
 36 192 l 2,16,17
 36 216 36 216 60 240 c 128,-1,18
 84 264 84 264 108 264 c 2,19,-1
 248 264 l 2,20,21
 252 264 252 264 252 260 c 2,22,-1
 252 -24 l 2,23,24
 252 -48 252 -48 228 -72 c 128,-1,25
 204 -96 204 -96 180 -96 c 2,26,-1
 64 -96 l 2,27,28
 60 -96 60 -96 60 -92 c 2,29,-1
 60 -76 l 2,30,31
 60 -72 60 -72 64 -72 c 2,32,-1
 180 -72 l 2,33,34
 196 -72 196 -72 212 -56 c 128,-1,35
 228 -40 228 -40 228 -24 c 2,36,-1
 228 12 l 2,37,38
 228 16 228 16 224 16 c 128,-1,39
 220 16 220 16 216 12 c 0,40,41
 204 0 204 0 192 0 c 2,42,-1
 108 0 l 2,43,44
 84 0 84 0 60 24 c 128,-1,45
 36 48 36 48 36 72 c 2,15,-1
EndSplineSet
Validated: 1
Colour: 8000
EndChar
StartChar: h
Encoding: 104 104 73
Width: 288
VWidth: 0
Flags: MW
LayerCount: 2
Back
Fore
SplineSet
40 360 m 2,0,-1
 56 360 l 2,1,2
 60 360 60 360 60 356 c 2,3,-1
 60 268 l 6,4,5
 60 264 60 264 64 264 c 2,6,-1
 180 264 l 2,7,8
 204 264 204 264 228 240 c 128,-1,9
 252 216 252 216 252 192 c 2,10,-1
 252 4 l 2,11,12
 252 0 252 0 248 0 c 2,13,-1
 232 0 l 2,14,15
 228 0 228 0 228 4 c 2,16,-1
 228 192 l 2,17,18
 228 208 228 208 212 224 c 128,-1,19
 196 240 196 240 180 240 c 2,20,-1
 64 240 l 2,21,22
 60 240 60 240 60 236 c 2,23,-1
 60 4 l 2,24,25
 60 0 60 0 56 0 c 2,26,-1
 40 0 l 2,27,28
 36 0 36 0 36 4 c 2,29,-1
 36 356 l 2,30,31
 36 360 36 360 40 360 c 2,0,-1
EndSplineSet
Validated: 1
Colour: 8000
EndChar
StartChar: i
Encoding: 105 105 74
Width: 1024
VWidth: 0
Flags: MW
LayerCount: 3
Back
Fore
SplineSet
329 907 m 2,0,-1
 556 907 l 2,1,2
 571 907 571 907 571 892 c 2,3,-1
 571 148 l 2,4,5
 571 133 571 133 585 133 c 2,6,-1
 695 133 l 2,7,8
 709 133 709 133 709 119 c 2,9,-1
 709 14 l 2,10,11
 709 0 709 0 695 0 c 2,12,-1
 329 0 l 2,13,14
 315 0 315 0 315 14 c 2,15,-1
 315 119 l 2,16,17
 315 133 315 133 329 133 c 2,18,-1
 439 133 l 6,19,20
 453 133 453 133 453 148 c 6,21,-1
 453 759 l 6,22,23
 453 773 453 773 439 773 c 6,24,-1
 329 773 l 2,25,26
 315 773 315 773 315 788 c 2,27,-1
 315 892 l 2,28,29
 315 907 315 907 329 907 c 2,0,-1
468 1280 m 2,30,-1
 556 1280 l 2,31,32
 571 1280 571 1280 571 1266 c 2,33,-1
 571 1051 l 2,34,35
 571 1036 571 1036 556 1036 c 2,36,-1
 468 1036 l 2,37,38
 453 1036 453 1036 453 1051 c 2,39,-1
 453 1266 l 2,40,41
 453 1280 453 1280 468 1280 c 2,30,-1
EndSplineSet
Layer: 2
SplineSet
313 939 m 2,0,-1
 540 939 l 2,1,2
 554 939 554 939 555 924 c 2,3,-1
 555 100 l 2,4,5
 555 86 555 86 569 85 c 2,6,-1
 711 85 l 2,7,8
 725 85 725 85 725 71 c 2,9,-1
 725 14 l 2,10,11
 725 0 725 0 711 0 c 2,12,-1
 313 0 l 2,13,14
 299 0 299 0 299 14 c 2,15,-1
 299 71 l 2,16,17
 299 85 299 85 313 85 c 2,18,-1
 455 85 l 2,19,20
 469 85 469 85 469 100 c 2,21,-1
 469 839 l 2,22,23
 469 853 469 853 455 853 c 2,24,-1
 313 853 l 2,25,26
 299 853 299 853 299 868 c 2,27,-1
 299 924 l 2,28,29
 299 939 299 939 313 939 c 2,0,-1
484 1280 m 2,30,-1
 540 1280 l 2,31,32
 554 1280 554 1280 555 1266 c 2,33,-1
 555 1067 l 6,34,35
 555 1053 555 1053 540 1052 c 6,36,-1
 484 1052 l 6,37,38
 470 1052 470 1052 469 1067 c 6,39,-1
 469 1266 l 2,40,41
 470 1280 470 1280 484 1280 c 2,30,-1
EndSplineSet
Colour: 8000
EndChar
StartChar: j
Encoding: 106 106 75
Width: 288
VWidth: 0
Flags: MW
LayerCount: 2
Back
Fore
SplineSet
160 264 m 2,0,-1
 224 264 l 2,1,2
 228 264 228 264 228 260 c 2,3,-1
 228 -24 l 2,4,5
 228 -48 228 -48 204 -72 c 128,-1,6
 180 -96 180 -96 156 -96 c 2,7,-1
 132 -96 l 2,8,9
 108 -96 108 -96 84 -72 c 128,-1,10
 60 -48 60 -48 60 -24 c 2,11,-1
 60 -4 l 2,12,13
 60 0 60 0 64 0 c 2,14,-1
 80 0 l 2,15,16
 84 0 84 0 84 -4 c 2,17,-1
 84 -24 l 2,18,19
 84 -40 84 -40 100 -56 c 128,-1,20
 116 -72 116 -72 132 -72 c 2,21,-1
 156 -72 l 2,22,23
 172 -72 172 -72 188 -56 c 128,-1,24
 204 -40 204 -40 204 -24 c 2,25,-1
 204 236 l 2,26,27
 204 240 204 240 200 240 c 6,28,-1
 160 240 l 2,29,30
 156 240 156 240 156 244 c 2,31,-1
 156 260 l 2,32,33
 156 264 156 264 160 264 c 2,0,-1
204 300 m 2,34,-1
 204 356 l 2,35,36
 204 360 204 360 208 360 c 2,37,-1
 224 360 l 2,38,39
 228 360 228 360 228 356 c 2,40,-1
 228 300 l 2,41,42
 228 296 228 296 224 296 c 2,43,-1
 208 296 l 2,44,45
 204 296 204 296 204 300 c 2,34,-1
EndSplineSet
Validated: 1
Colour: 8000
EndChar
StartChar: k
Encoding: 107 107 76
Width: 288
VWidth: 0
Flags: MW
LayerCount: 2
Back
Fore
SplineSet
80 144 m 0,0,1
 104 144 104 144 128 168 c 2,2,-1
 212 252 l 2,3,4
 216 256 216 256 216 260 c 128,-1,5
 216 264 216 264 220 264 c 2,6,-1
 236 264 l 2,7,8
 240 264 240 264 240 260 c 0,9,10
 240 248 240 248 228 236 c 2,11,-1
 132 140 l 2,12,13
 128 136 128 136 128 132 c 128,-1,14
 128 128 128 128 132 124 c 2,15,-1
 228 28 l 2,16,17
 240 16 240 16 240 4 c 0,18,19
 240 0 240 0 236 0 c 2,20,-1
 220 0 l 2,21,22
 216 0 216 0 216 4 c 128,-1,23
 216 8 216 8 212 12 c 2,24,-1
 128 96 l 2,25,26
 104 120 104 120 80 120 c 0,27,28
 72 120 72 120 72 112 c 2,29,-1
 72 4 l 2,30,31
 72 0 72 0 68 0 c 2,32,-1
 52 0 l 2,33,34
 48 0 48 0 48 4 c 6,35,-1
 48 356 l 2,36,37
 48 360 48 360 52 360 c 2,38,-1
 68 360 l 2,39,40
 72 360 72 360 72 356 c 2,41,-1
 72 152 l 2,42,43
 72 144 72 144 80 144 c 0,0,1
EndSplineSet
Validated: 1
Colour: 8000
EndChar
StartChar: l
Encoding: 108 108 77
Width: 288
VWidth: 0
Flags: MW
LayerCount: 2
Back
Fore
SplineSet
84 340 m 2,0,-1
 84 356 l 2,1,2
 84 360 84 360 88 360 c 2,3,-1
 152 360 l 2,4,5
 156 360 156 360 156 356 c 2,6,-1
 156 28 l 2,7,8
 156 24 156 24 160 24 c 6,9,-1
 200 24 l 2,10,11
 204 24 204 24 204 20 c 2,12,-1
 204 4 l 2,13,14
 204 0 204 0 200 0 c 2,15,-1
 88 0 l 2,16,17
 84 0 84 0 84 4 c 2,18,-1
 84 20 l 2,19,20
 84 24 84 24 88 24 c 2,21,-1
 128 24 l 2,22,23
 132 24 132 24 132 28 c 2,24,-1
 132 332 l 2,25,26
 132 336 132 336 128 336 c 2,27,-1
 88 336 l 2,28,29
 84 336 84 336 84 340 c 2,0,-1
EndSplineSet
Validated: 1
Colour: 8000
EndChar
StartChar: m
Encoding: 109 109 78
Width: 1024
VWidth: 0
Flags: MW
LayerCount: 2
Back
Fore
SplineSet
142 939 m 2,0,-1
 640 939 l 2,1,2
 725 939 725 939 810.5 853.5 c 128,-1,3
 896 768 896 768 896 683 c 2,4,-1
 896 14 l 2,5,6
 896 0 896 0 882 0 c 2,7,-1
 825 0 l 2,8,9
 811 0 811 0 811 14 c 2,10,-1
 811 683 l 2,11,12
 811 740 811 740 754 796.5 c 128,-1,13
 697 853 697 853 640 853 c 2,14,-1
 569 853 l 2,15,16
 555 853 555 853 555 839 c 2,17,-1
 555 14 l 2,18,19
 555 0 555 0 540 0 c 2,20,-1
 484 0 l 2,21,22
 470 0 470 0 469 14 c 2,23,-1
 469 839 l 2,24,25
 469 853 469 853 455 853 c 2,26,-1
 228 853 l 2,27,28
 214 853 214 853 213 839 c 6,29,-1
 213 14 l 2,30,31
 213 0 213 0 199 0 c 2,32,-1
 142 0 l 2,33,34
 128 0 128 0 128 14 c 2,35,-1
 128 924 l 2,36,37
 128 939 128 939 142 939 c 2,0,-1
EndSplineSet
Colour: 8000
EndChar
StartChar: n
Encoding: 110 110 79
Width: 288
VWidth: 0
Flags: MW
LayerCount: 2
Back
Fore
SplineSet
56 0 m 2,0,-1
 40 0 l 2,1,2
 36 0 36 0 36 4 c 2,3,-1
 36 260 l 2,4,5
 36 264 36 264 40 264 c 2,6,-1
 180 264 l 2,7,8
 204 264 204 264 228 240 c 128,-1,9
 252 216 252 216 252 192 c 2,10,-1
 252 4 l 2,11,12
 252 0 252 0 248 0 c 2,13,-1
 232 0 l 2,14,15
 228 0 228 0 228 4 c 2,16,-1
 228 192 l 2,17,18
 228 208 228 208 212 224 c 128,-1,19
 196 240 196 240 180 240 c 2,20,-1
 64 240 l 6,21,22
 60 240 60 240 60 236 c 2,23,-1
 60 4 l 2,24,25
 60 0 60 0 56 0 c 2,0,-1
EndSplineSet
Validated: 1
Colour: 8000
EndChar
StartChar: o
Encoding: 111 111 80
Width: 288
VWidth: 0
Flags: MW
LayerCount: 2
Back
Fore
SplineSet
60 192 m 2,0,-1
 60 72 l 2,1,2
 60 56 60 56 76 40 c 128,-1,3
 92 24 92 24 108 24 c 2,4,-1
 180 24 l 2,5,6
 196 24 196 24 212 40 c 128,-1,7
 228 56 228 56 228 72 c 2,8,-1
 228 192 l 2,9,10
 228 208 228 208 212 224 c 128,-1,11
 196 240 196 240 180 240 c 2,12,-1
 108 240 l 2,13,14
 92 240 92 240 76 224 c 128,-1,15
 60 208 60 208 60 192 c 2,0,-1
36 72 m 2,16,-1
 36 192 l 2,17,18
 36 216 36 216 60 240 c 128,-1,19
 84 264 84 264 108 264 c 2,20,-1
 180 264 l 2,21,22
 204 264 204 264 228 240 c 128,-1,23
 252 216 252 216 252 192 c 2,24,-1
 252 72 l 2,25,26
 252 48 252 48 228 24 c 128,-1,27
 204 0 204 0 180 0 c 2,28,-1
 108 0 l 2,29,30
 84 0 84 0 60 24 c 128,-1,31
 36 48 36 48 36 72 c 2,16,-1
EndSplineSet
Validated: 1
Colour: 8000
EndChar
StartChar: p
Encoding: 112 112 81
Width: 288
VWidth: 0
UnlinkRmOvrlpSave: 1
Flags: MW
LayerCount: 2
Back
Fore
SplineSet
60 28 m 2,0,1
 60 24 60 24 64 24 c 2,2,-1
 180 24 l 2,3,4
 196 24 196 24 212 40 c 128,-1,5
 228 56 228 56 228 72 c 2,6,-1
 228 192 l 2,7,8
 228 208 228 208 212 224 c 128,-1,9
 196 240 196 240 180 240 c 2,10,-1
 64 240 l 2,11,12
 60 240 60 240 60 236 c 2,13,-1
 60 28 l 2,0,1
36 260 m 2,14,15
 36 264 36 264 40 264 c 2,16,-1
 180 264 l 2,17,18
 204 264 204 264 228 240 c 128,-1,19
 252 216 252 216 252 192 c 2,20,-1
 252 72 l 2,21,22
 252 48 252 48 228 24 c 128,-1,23
 204 0 204 0 180 0 c 2,24,-1
 64 0 l 2,25,26
 60 0 60 0 60 -4 c 2,27,-1
 60 -92 l 2,28,29
 60 -96 60 -96 56 -96 c 2,30,-1
 40 -96 l 2,31,32
 36 -96 36 -96 36 -92 c 2,33,-1
 36 260 l 2,14,15
EndSplineSet
Colour: 8000
EndChar
StartChar: q
Encoding: 113 113 82
Width: 288
VWidth: 0
UnlinkRmOvrlpSave: 1
Flags: MW
LayerCount: 2
Back
Fore
SplineSet
228 28 m 2,0,1
 228 236 l 2,2,3
 228 240 228 240 224 240 c 2,4,-1
 108 240 l 2,5,6
 92 240 92 240 76 224 c 128,-1,7
 60 208 60 208 60 192 c 2,8,-1
 60 72 l 2,9,10
 60 56 60 56 76 40 c 128,-1,11
 92 24 92 24 108 24 c 2,12,-1
 224 24 l 2,13,14
 228 24 228 24 228 28 c 2,0,1
252 260 m 2,15,-1
 252 -92 l 2,16,17
 252 -96 252 -96 248 -96 c 2,18,-1
 232 -96 l 2,19,20
 228 -96 228 -96 228 -92 c 2,21,-1
 228 -4 l 2,22,23
 228 0 228 0 224 0 c 2,24,-1
 108 0 l 2,25,26
 84 0 84 0 60 24 c 128,-1,27
 36 48 36 48 36 72 c 2,28,-1
 36 192 l 2,29,30
 36 216 36 216 60 240 c 128,-1,31
 84 264 84 264 108 264 c 2,32,-1
 248 264 l 2,33,34
 252 264 252 264 252 260 c 2,15,-1
EndSplineSet
Colour: 8000
EndChar
StartChar: r
Encoding: 114 114 83
Width: 1024
VWidth: 0
Flags: MW
LayerCount: 3
Back
Fore
SplineSet
142 939 m 2,0,-1
 199 939 l 2,1,2
 213 939 213 939 213 924 c 2,3,-1
 213 697 l 2,4,5
 213 683 213 683 227.5 683 c 128,-1,6
 242 683 242 683 256 697 c 2,7,-1
 412 853 l 2,8,9
 497 938 497 938 583 939 c 2,10,-1
 882 939 l 2,11,12
 896 939 896 939 896 924 c 2,13,-1
 896 868 l 2,14,15
 896 854 896 854 882 853 c 2,16,-1
 583 853 l 2,17,18
 526 853 526 853 469 796 c 2,19,-1
 228 555 l 2,20,21
 214 541 214 541 213 526 c 2,22,-1
 213 14 l 2,23,24
 213 0 213 0 199 0 c 2,25,-1
 142 0 l 2,26,27
 128 0 128 0 128 14 c 6,28,-1
 128 924 l 2,29,30
 128 939 128 939 142 939 c 2,0,-1
EndSplineSet
Layer: 2
SplineSet
142 939 m 2,0,-1
 199 939 l 2,1,2
 213 939 213 939 213 924 c 2,3,-1
 213 697 l 2,4,5
 213 683 213 683 227.5 683 c 128,-1,6
 242 683 242 683 256 697 c 2,7,-1
 412 853 l 2,8,9
 497 938 497 938 583 939 c 2,10,-1
 882 939 l 2,11,12
 896 939 896 939 896 924 c 2,13,-1
 896 868 l 2,14,15
 896 854 896 854 882 853 c 2,16,-1
 583 853 l 2,17,18
 526 853 526 853 469 796 c 2,19,-1
 228 555 l 2,20,21
 214 541 214 541 213 526 c 2,22,-1
 213 14 l 2,23,24
 213 0 213 0 199 0 c 2,25,-1
 142 0 l 2,26,27
 128 0 128 0 128 14 c 6,28,-1
 128 924 l 2,29,30
 128 939 128 939 142 939 c 2,0,-1
EndSplineSet
Colour: 8000
EndChar
StartChar: s
Encoding: 115 115 84
Width: 288
VWidth: 0
Flags: MW
LayerCount: 2
Back
Fore
SplineSet
248 216 m 2,0,-1
 232 216 l 2,1,2
 228 216 228 216 228 220 c 26,3,-1
 228 228 l 2,4,5
 228 232 228 232 224 236 c 128,-1,6
 220 240 220 240 216 240 c 2,7,-1
 72 240 l 2,8,9
 68 240 68 240 64 236 c 128,-1,10
 60 232 60 232 60 228 c 6,11,-1
 60 156 l 2,12,13
 60 152 60 152 64 148 c 128,-1,14
 68 144 68 144 72 144 c 2,15,-1
 216 144 l 2,16,17
 228 144 228 144 240 132 c 128,-1,18
 252 120 252 120 252 108 c 2,19,-1
 252 36 l 2,20,21
 252 24 252 24 240 12 c 128,-1,22
 228 0 228 0 216 0 c 2,23,-1
 72 0 l 2,24,25
 60 0 60 0 48 12 c 128,-1,26
 36 24 36 24 36 36 c 2,27,-1
 36 44 l 2,28,29
 36 48 36 48 40 48 c 2,30,-1
 56 48 l 2,31,32
 60 48 60 48 60 44 c 2,33,-1
 60 36 l 2,34,35
 60 32 60 32 64 28 c 128,-1,36
 68 24 68 24 72 24 c 2,37,-1
 216 24 l 2,38,39
 220 24 220 24 224 28 c 128,-1,40
 228 32 228 32 228 36 c 2,41,-1
 228 108 l 2,42,43
 228 112 228 112 224 116 c 128,-1,44
 220 120 220 120 216 120 c 2,45,-1
 72 120 l 2,46,47
 60 120 60 120 48 132 c 128,-1,48
 36 144 36 144 36 156 c 2,49,-1
 36 228 l 2,50,51
 36 240 36 240 48 252 c 128,-1,52
 60 264 60 264 72 264 c 2,53,-1
 216 264 l 2,54,55
 228 264 228 264 240 252 c 128,-1,56
 252 240 252 240 252 228 c 2,57,-1
 252 220 l 2,58,59
 252 216 252 216 248 216 c 2,0,-1
EndSplineSet
Validated: 1
Colour: 8000
EndChar
StartChar: t
Encoding: 116 116 85
Width: 288
VWidth: 0
Flags: MW
LayerCount: 2
Back
Fore
SplineSet
124 360 m 2,0,-1
 140 360 l 2,1,2
 144 360 144 360 144 356 c 2,3,-1
 144 268 l 2,4,5
 144 264 144 264 148 264 c 2,6,-1
 212 264 l 2,7,8
 216 264 216 264 216 260 c 2,9,-1
 216 244 l 2,10,11
 216 240 216 240 212 240 c 2,12,-1
 148 240 l 2,13,14
 144 240 144 240 144 236 c 2,15,-1
 144 36 l 2,16,17
 144 32 144 32 148 28 c 128,-1,18
 152 24 152 24 156 24 c 6,19,-1
 236 24 l 2,20,21
 240 24 240 24 240 20 c 2,22,-1
 240 4 l 2,23,24
 240 0 240 0 236 0 c 2,25,-1
 156 0 l 2,26,27
 144 0 144 0 132 12 c 128,-1,28
 120 24 120 24 120 36 c 2,29,-1
 120 236 l 2,30,31
 120 240 120 240 116 240 c 2,32,-1
 52 240 l 2,33,34
 48 240 48 240 48 244 c 2,35,-1
 48 260 l 2,36,37
 48 264 48 264 52 264 c 2,38,-1
 116 264 l 2,39,40
 120 264 120 264 120 268 c 2,41,-1
 120 356 l 2,42,43
 120 360 120 360 124 360 c 2,0,-1
EndSplineSet
Validated: 1
Colour: 8000
EndChar
StartChar: v
Encoding: 118 118 87
Width: 288
VWidth: 0
Flags: MW
LayerCount: 2
Back
Fore
SplineSet
140 4 m 2,0,-1
 124 20 l 2,1,2
 36 108 36 108 36 196 c 2,3,-1
 36 260 l 2,4,5
 36 264 36 264 40 264 c 2,6,-1
 56 264 l 2,7,8
 60 264 60 264 60 260 c 2,9,-1
 60 196 l 2,10,11
 60 116 60 116 140 36 c 0,12,13
 144 32 144 32 148 36 c 0,14,15
 228 116 228 116 228 196 c 2,16,-1
 228 260 l 2,17,18
 228 264 228 264 232 264 c 2,19,-1
 248 264 l 2,20,21
 252 264 252 264 252 260 c 2,22,-1
 252 196 l 2,23,24
 252 108 252 108 164 20 c 2,25,-1
 148 4 l 2,26,27
 144 0 144 0 140 4 c 2,0,-1
EndSplineSet
Validated: 1
Colour: 8000
EndChar
StartChar: w
Encoding: 119 119 88
Width: 288
VWidth: 0
Flags: MW
LayerCount: 2
Back
Fore
SplineSet
40 264 m 2,0,-1
 56 264 l 2,1,2
 60 264 60 264 60 260 c 2,3,-1
 60 36 l 2,4,5
 60 32 60 32 64 28 c 128,-1,6
 68 24 68 24 72 24 c 6,7,-1
 128 24 l 2,8,9
 132 24 132 24 132 28 c 2,10,-1
 132 164 l 2,11,12
 132 168 132 168 136 168 c 2,13,-1
 152 168 l 2,14,15
 156 168 156 168 156 164 c 2,16,-1
 156 28 l 2,17,18
 156 24 156 24 160 24 c 2,19,-1
 216 24 l 2,20,21
 220 24 220 24 224 28 c 128,-1,22
 228 32 228 32 228 36 c 2,23,-1
 228 260 l 2,24,25
 228 264 228 264 232 264 c 2,26,-1
 248 264 l 2,27,28
 252 264 252 264 252 260 c 2,29,-1
 252 36 l 2,30,31
 252 24 252 24 240 12 c 128,-1,32
 228 0 228 0 216 0 c 2,33,-1
 72 0 l 2,34,35
 60 0 60 0 48 12 c 128,-1,36
 36 24 36 24 36 36 c 2,37,-1
 36 260 l 2,38,39
 36 264 36 264 40 264 c 2,0,-1
EndSplineSet
Validated: 1
Colour: 8000
EndChar
StartChar: x
Encoding: 120 120 89
Width: 288
VWidth: 0
Flags: MW
LayerCount: 2
Back
Fore
SplineSet
124 136 m 2,0,-1
 72 188 l 2,1,2
 36 224 36 224 36 260 c 0,3,4
 36 264 36 264 40 264 c 2,5,-1
 56 264 l 2,6,7
 60 264 60 264 60 260 c 0,8,9
 60 232 60 232 88 204 c 2,10,-1
 140 152 l 2,11,12
 144 148 144 148 148 152 c 2,13,-1
 200 204 l 2,14,15
 228 232 228 232 228 260 c 0,16,17
 228 264 228 264 232 264 c 2,18,-1
 248 264 l 2,19,20
 252 264 252 264 252 260 c 0,21,22
 252 224 252 224 216 188 c 2,23,-1
 164 136 l 2,24,25
 160 132 160 132 164 128 c 2,26,-1
 216 76 l 2,27,28
 252 40 252 40 252 4 c 0,29,30
 252 0 252 0 248 0 c 2,31,-1
 232 0 l 2,32,33
 228 0 228 0 228 4 c 0,34,35
 228 32 228 32 200 60 c 2,36,-1
 148 112 l 2,37,38
 144 116 144 116 140 112 c 2,39,-1
 88 60 l 2,40,41
 60 32 60 32 60 4 c 0,42,43
 60 0 60 0 56 0 c 2,44,-1
 40 0 l 2,45,46
 36 0 36 0 36 4 c 0,47,48
 36 40 36 40 72 76 c 2,49,-1
 124 128 l 2,50,51
 128 132 128 132 124 136 c 2,0,-1
EndSplineSet
Validated: 1
Colour: 8000
EndChar
StartChar: y
Encoding: 121 121 90
Width: 288
VWidth: 0
Flags: MW
LayerCount: 2
Back
Fore
SplineSet
40 264 m 2,0,-1
 56 264 l 2,1,2
 60 264 60 264 60 260 c 2,3,-1
 60 72 l 2,4,5
 60 56 60 56 76 40 c 128,-1,6
 92 24 92 24 108 24 c 2,7,-1
 180 24 l 2,8,9
 196 24 196 24 212 40 c 128,-1,10
 228 56 228 56 228 72 c 2,11,-1
 228 260 l 2,12,13
 228 264 228 264 232 264 c 2,14,-1
 248 264 l 2,15,16
 252 264 252 264 252 260 c 2,17,-1
 252 -24 l 2,18,19
 252 -48 252 -48 228 -72 c 128,-1,20
 204 -96 204 -96 180 -96 c 2,21,-1
 64 -96 l 2,22,23
 60 -96 60 -96 60 -92 c 2,24,-1
 60 -76 l 2,25,26
 60 -72 60 -72 64 -72 c 2,27,-1
 180 -72 l 2,28,29
 196 -72 196 -72 212 -56 c 128,-1,30
 228 -40 228 -40 228 -24 c 2,31,-1
 228 12 l 2,32,33
 228 16 228 16 224 16 c 128,-1,34
 220 16 220 16 216 12 c 0,35,36
 204 0 204 0 180 0 c 2,37,-1
 108 0 l 2,38,39
 84 0 84 0 60 24 c 132,-1,40
 36 48 36 48 36 72 c 2,41,-1
 36 260 l 2,42,43
 36 264 36 264 40 264 c 2,0,-1
EndSplineSet
Validated: 1
Colour: 8000
EndChar
StartChar: z
Encoding: 122 122 91
Width: 288
VWidth: 0
Flags: MW
LayerCount: 2
Back
Fore
SplineSet
40 264 m 2,0,-1
 248 264 l 2,1,2
 252 264 252 264 252 260 c 2,3,4
 252 228 l 14,5,6
 252 224 252 224 248 220 c 2,7,-1
 64 36 l 2,8,9
 60 32 60 32 60 28 c 128,-1,10
 60 24 60 24 64 24 c 2,11,-1
 248 24 l 2,12,13
 252 24 252 24 252 20 c 2,14,-1
 252 4 l 2,15,16
 252 0 252 0 248 0 c 2,17,-1
 40 0 l 2,18,19
 36 0 36 0 36 4 c 2,20,-1
 36 36 l 10,21,22
 36 40 36 40 40 44 c 2,23,-1
 224 228 l 2,24,25
 228 232 228 232 228 236 c 128,-1,26
 228 240 228 240 224 240 c 2,27,-1
 40 240 l 2,28,29
 36 240 36 240 36 244 c 2,30,-1
 36 260 l 2,31,32
 36 264 36 264 40 264 c 2,0,-1
EndSplineSet
Validated: 1
Colour: 8000
EndChar
StartChar: braceleft
Encoding: 123 123 92
Width: 288
VWidth: 0
Flags: MW
LayerCount: 2
Back
Fore
SplineSet
216 356 m 2,0,-1
 216 340 l 2,1,2
 216 336 216 336 212 336 c 2,3,-1
 192 336 l 2,4,5
 176 336 176 336 160 320 c 128,-1,6
 144 304 144 304 144 288 c 2,7,-1
 144 196 l 2,8,9
 144 192 144 192 140 188 c 128,-1,10
 136 184 136 184 136 180 c 128,-1,11
 136 176 136 176 140 172 c 128,-1,12
 144 168 144 168 144 164 c 2,13,-1
 144 72 l 2,14,15
 144 56 144 56 160 40 c 128,-1,16
 176 24 176 24 192 24 c 2,17,-1
 212 24 l 2,18,19
 216 24 216 24 216 20 c 2,20,-1
 216 4 l 2,21,22
 216 0 216 0 212 0 c 2,23,-1
 192 0 l 2,24,25
 168 0 168 0 144 24 c 128,-1,26
 120 48 120 48 120 72 c 2,27,28
 120 164 l 2,29,30
 120 168 120 168 116 168 c 2,31,-1
 76 168 l 2,32,33
 72 168 72 168 72 172 c 2,34,-1
 72 188 l 2,35,36
 72 192 72 192 76 192 c 2,37,-1
 116 192 l 2,38,39
 120 192 120 192 120 196 c 2,40,-1
 120 288 l 2,41,42
 120 312 120 312 144 336 c 128,-1,43
 168 360 168 360 192 360 c 2,44,-1
 212 360 l 2,45,46
 216 360 216 360 216 356 c 2,0,-1
EndSplineSet
Validated: 1
Colour: 8000
EndChar
StartChar: bar
Encoding: 124 124 93
Width: 288
VWidth: 0
Flags: MW
LayerCount: 2
Back
Fore
SplineSet
136 360 m 2,0,-1
 152 360 l 2,1,2
 156 360 156 360 156 356 c 2,3,-1
 156 4 l 2,4,5
 156 0 156 0 152 0 c 2,6,-1
 136 0 l 2,7,8
 132 0 132 0 132 4 c 6,9,-1
 132 356 l 2,10,11
 132 360 132 360 136 360 c 2,0,-1
EndSplineSet
Validated: 1
Colour: 8000
EndChar
StartChar: asciitilde
Encoding: 126 126 95
Width: 288
VWidth: 0
Flags: MW
LayerCount: 2
Back
Fore
SplineSet
56 312 m 2,0,-1
 40 312 l 2,1,2
 36 312 36 312 36 316 c 2,3,-1
 36 372 l 2,4,5
 36 384 36 384 48 396 c 128,-1,6
 60 408 60 408 72 408 c 2,7,-1
 120 408 l 2,8,9
 132 408 132 408 144 396 c 128,-1,10
 156 384 156 384 156 372 c 2,11,-1
 156 348 l 2,12,13
 156 344 156 344 160 340 c 128,-1,14
 164 336 164 336 168 336 c 2,15,-1
 216 336 l 2,16,17
 220 336 220 336 224 340 c 128,-1,18
 228 344 228 344 228 348 c 2,19,-1
 228 404 l 2,20,21
 228 408 228 408 232 408 c 2,22,-1
 248 408 l 2,23,24
 252 408 252 408 252 404 c 2,25,-1
 252 348 l 2,26,27
 252 336 252 336 240 324 c 128,-1,28
 228 312 228 312 216 312 c 2,29,-1
 168 312 l 2,30,31
 156 312 156 312 144 324 c 128,-1,32
 132 336 132 336 132 348 c 2,33,-1
 132 372 l 2,34,35
 132 376 132 376 128 380 c 128,-1,36
 124 384 124 384 120 384 c 2,37,-1
 72 384 l 2,38,39
 68 384 68 384 64 380 c 128,-1,40
 60 376 60 376 60 372 c 6,41,-1
 60 316 l 2,42,43
 60 312 60 312 56 312 c 2,0,-1
EndSplineSet
Validated: 1
Colour: 8000
EndChar
StartChar: softhyphen
Encoding: 173 173 109
Width: 288
VWidth: 0
Flags: MW
LayerCount: 2
Back
Fore
SplineSet
64 192 m 6,0,-1
 224 192 l 2,1,2
 228 192 228 192 228 188 c 2,3,-1
 228 172 l 2,4,5
 228 168 228 168 224 168 c 2,6,-1
 64 168 l 2,7,8
 60 168 60 168 60 172 c 2,9,-1
 60 188 l 2,10,11
 60 192 60 192 64 192 c 6,0,-1
EndSplineSet
Validated: 1
Colour: 7300
EndChar
StartChar: degree
Encoding: 176 176 112
Width: 288
VWidth: 0
Flags: MW
LayerCount: 2
Back
Fore
SplineSet
100 380 m 132,-1,1
 96 376 96 376 96 372 c 2,2,-1
 96 300 l 2,3,4
 96 296 96 296 100 292 c 128,-1,5
 104 288 104 288 108 288 c 2,6,-1
 180 288 l 2,7,8
 184 288 184 288 188 292 c 128,-1,9
 192 296 192 296 192 300 c 2,10,-1
 192 372 l 2,11,12
 192 376 192 376 188 380 c 128,-1,13
 184 384 184 384 180 384 c 2,14,-1
 108 384 l 2,15,0
 104 384 104 384 100 380 c 132,-1,1
108 408 m 6,16,-1
 180 408 l 2,17,18
 192 408 192 408 204 396 c 128,-1,19
 216 384 216 384 216 372 c 2,20,-1
 216 300 l 2,21,22
 216 288 216 288 204 276 c 128,-1,23
 192 264 192 264 180 264 c 2,24,-1
 108 264 l 2,25,26
 96 264 96 264 84 276 c 128,-1,27
 72 288 72 288 72 300 c 2,28,-1
 72 372 l 2,29,30
 72 384 72 384 84 396 c 128,-1,31
 96 408 96 408 108 408 c 6,16,-1
EndSplineSet
Validated: 1
Colour: 7300
EndChar
StartChar: twosuperior
Encoding: 178 178 114
Width: 1024
VWidth: 0
Flags: MW
LayerCount: 3
Back
Fore
SplineSet
256 1195 m 25,0,-1
 256 1365 l 25,1,-1
 341 1451 l 25,2,-1
 683 1451 l 25,3,-1
 768 1365 l 25,4,-1
 768 1166 l 25,5,-1
 370 768 l 29,6,-1
 768 768 l 25,7,-1
 768 683 l 25,8,-1
 256 683 l 25,9,-1
 256 768 l 25,10,-1
 683 1195 l 25,11,-1
 683 1337 l 25,12,-1
 654 1365 l 25,13,-1
 370 1365 l 25,14,-1
 341 1337 l 25,15,-1
 341 1195 l 25,16,-1
 256 1195 l 25,0,-1
EndSplineSet
Layer: 2
SplineSet
256 1195 m 25,0,-1
 256 1365 l 25,1,-1
 341 1451 l 25,2,-1
 683 1451 l 25,3,-1
 768 1365 l 25,4,-1
 768 1166 l 25,5,-1
 370 768 l 29,6,-1
 768 768 l 25,7,-1
 768 683 l 25,8,-1
 256 683 l 25,9,-1
 256 768 l 25,10,-1
 683 1195 l 25,11,-1
 683 1337 l 25,12,-1
 654 1365 l 25,13,-1
 370 1365 l 25,14,-1
 341 1337 l 25,15,-1
 341 1195 l 25,16,-1
 256 1195 l 25,0,-1
EndSplineSet
Colour: 7300
EndChar
StartChar: threesuperior
Encoding: 179 179 115
Width: 288
VWidth: 0
Flags: MW
LayerCount: 2
Back
Fore
SplineSet
72 360 m 29,0,-1
 72 384 l 25,1,-1
 96 408 l 25,2,-1
 192 408 l 25,3,-1
 216 384 l 25,4,-1
 216 312 l 25,5,-1
 204 312 l 25,6,-1
 204 288 l 25,7,-1
 216 288 l 25,8,-1
 216 216 l 25,9,-1
 192 192 l 25,10,-1
 96 192 l 25,11,-1
 72 216 l 25,12,-1
 72 240 l 25,13,-1
 96 240 l 25,14,-1
 96 224 l 25,15,-1
 104 216 l 25,16,-1
 184 216 l 25,17,-1
 192 224 l 25,18,-1
 192 280 l 25,19,-1
 184 288 l 25,20,-1
 120 288 l 25,21,-1
 120 312 l 25,22,-1
 184 312 l 25,23,-1
 192 320 l 25,24,-1
 192 376 l 25,25,-1
 184 384 l 25,26,-1
 104 384 l 25,27,-1
 96 376 l 25,28,-1
 96 360 l 25,29,-1
 72 360 l 29,0,-1
EndSplineSet
Validated: 1
Colour: 7300
EndChar
StartChar: acute
Encoding: 180 180 116
Width: 288
VWidth: 0
Flags: MW
LayerCount: 2
Back
Fore
SplineSet
172 452 m 2,0,1
 176 456 176 456 180 452 c 2,2,-1
 188 444 l 2,3,4
 192 440 192 440 188 436 c 2,5,-1
 140 388 l 2,6,7
 136 384 136 384 132 388 c 2,8,-1
 124 396 l 2,9,10
 120 400 120 400 124 404 c 2,11,-1
 172 452 l 2,0,1
EndSplineSet
Validated: 1
Colour: 7300
EndChar
StartChar: cedilla
Encoding: 184 184 120
Width: 288
VWidth: 0
Flags: MW
LayerCount: 2
Back
Fore
SplineSet
124 0 m 6,0,-1
 140 0 l 6,1,2
 144 0 144 0 144 -4 c 6,3,-1
 144 -36 l 2,4,5
 144 -64 144 -64 116 -92 c 0,6,7
 112 -96 112 -96 108 -92 c 2,8,-1
 100 -84 l 2,9,10
 96 -80 96 -80 100 -76 c 0,11,12
 120 -56 120 -56 120 -36 c 2,13,-1
 120 -4 l 6,14,15
 120 0 120 0 124 0 c 6,0,-1
EndSplineSet
Validated: 1
Colour: 7300
EndChar
StartChar: onesuperior
Encoding: 185 185 121
Width: 1024
VWidth: 0
Flags: MW
LayerCount: 3
Back
Fore
SplineSet
555 768 m 25,0,-1
 725 768 l 25,1,-1
 725 683 l 25,2,-1
 299 683 l 25,3,-1
 299 768 l 25,4,-1
 469 768 l 25,5,-1
 469 1308 l 25,6,-1
 356 1195 l 25,7,-1
 299 1252 l 25,8,-1
 469 1422 l 25,9,-1
 469 1451 l 25,10,-1
 555 1451 l 25,11,-1
 555 768 l 25,0,-1
EndSplineSet
Colour: 7300
EndChar
StartChar: dotlessi
Encoding: 305 305 241
Width: 288
VWidth: 0
Flags: MW
LayerCount: 2
Back
Fore
SplineSet
88 264 m 2,0,-1
 152 264 l 2,1,2
 156 264 156 264 156 260 c 2,3,-1
 156 28 l 2,4,5
 156 24 156 24 160 24 c 2,6,-1
 200 24 l 2,7,8
 204 24 204 24 204 20 c 2,9,-1
 204 4 l 2,10,11
 204 0 204 0 200 0 c 2,12,-1
 88 0 l 2,13,14
 84 0 84 0 84 4 c 2,15,-1
 84 20 l 2,16,17
 84 24 84 24 88 24 c 2,18,-1
 128 24 l 2,19,20
 132 24 132 24 132 28 c 2,21,-1
 132 236 l 2,22,23
 132 240 132 240 128 240 c 2,24,-1
 88 240 l 2,25,26
 84 240 84 240 84 244 c 2,27,-1
 84 260 l 2,28,29
 84 264 84 264 88 264 c 2,0,-1
EndSplineSet
Validated: 1
Colour: 6600
EndChar
StartChar: IJ
Encoding: 306 306 242
Width: 288
VWidth: 0
Flags: MW
LayerCount: 2
Back
Fore
SplineSet
4 360 m 2,0,-1
 68 360 l 2,1,2
 72 360 72 360 72 356 c 2,3,-1
 72 340 l 2,4,5
 72 336 72 336 68 336 c 2,6,-1
 52 336 l 2,7,8
 48 336 48 336 48 332 c 2,9,-1
 48 28 l 2,10,11
 48 24 48 24 52 24 c 2,12,-1
 68 24 l 2,13,14
 72 24 72 24 72 20 c 2,15,-1
 72 4 l 2,16,17
 72 0 72 0 68 0 c 2,18,-1
 4 0 l 2,19,20
 0 0 0 0 0 4 c 2,21,-1
 0 20 l 2,22,23
 0 24 0 24 4 24 c 2,24,-1
 20 24 l 2,25,26
 24 24 24 24 24 28 c 2,27,-1
 24 332 l 2,28,29
 24 336 24 336 20 336 c 2,30,-1
 4 336 l 2,31,32
 0 336 0 336 0 340 c 2,33,-1
 0 356 l 2,34,35
 0 360 0 360 4 360 c 2,0,-1
EndSplineSet
Refer: 43 74 N 1 0 0 1 0 0 2
Validated: 5
Colour: 6600
EndChar
StartChar: dotlessj
Encoding: 567 567 332
Width: 288
VWidth: 0
Flags: MW
LayerCount: 2
Back
Fore
SplineSet
148 264 m 2,0,-1
 212 264 l 2,1,2
 216 264 216 264 216 260 c 2,3,-1
 216 -24 l 2,4,5
 216 -48 216 -48 192 -72 c 128,-1,6
 168 -96 168 -96 144 -96 c 2,7,-1
 120 -96 l 2,8,9
 96 -96 96 -96 72 -72 c 128,-1,10
 48 -48 48 -48 48 -24 c 2,11,-1
 48 -4 l 2,12,13
 48 0 48 0 52 0 c 2,14,-1
 68 0 l 2,15,16
 72 0 72 0 72 -4 c 2,17,-1
 72 -24 l 2,18,19
 72 -40 72 -40 88 -56 c 128,-1,20
 104 -72 104 -72 120 -72 c 2,21,-1
 144 -72 l 2,22,23
 160 -72 160 -72 176 -56 c 128,-1,24
 192 -40 192 -40 192 -24 c 2,25,-1
 192 236 l 2,26,27
 192 240 192 240 188 240 c 2,28,-1
 148 240 l 2,29,30
 144 240 144 240 144 244 c 2,31,-1
 144 260 l 2,32,33
 144 264 144 264 148 264 c 2,0,-1
EndSplineSet
Validated: 1
Colour: 5900
EndChar
StartChar: ereversed
Encoding: 600 600 937
Width: 288
VWidth: 0
Flags: MW
LayerCount: 2
Fore
SplineSet
204 192 m 2,0,1
 204 208 204 208 188 224 c 128,-1,2
 172 240 172 240 156 240 c 2,3,-1
 84 240 l 2,4,5
 68 240 68 240 52 224 c 128,-1,6
 36 208 36 208 36 192 c 2,7,8
 36 148 l 2,9,10
 36 144 36 144 40 144 c 2,11,-1
 200 144 l 2,12,13
 204 144 204 144 204 148 c 2,14,-1
 204 192 l 2,0,1
228 72 m 2,15,16
 228 48 228 48 204 24 c 128,-1,17
 180 0 180 0 156 0 c 2,18,-1
 48 0 l 2,19,20
 36 0 36 0 24 12 c 128,-1,21
 12 24 12 24 12 36 c 2,22,-1
 12 44 l 2,23,24
 12 48 12 48 16 48 c 2,25,-1
 32 48 l 2,26,27
 36 48 36 48 36 44 c 2,28,-1
 36 36 l 6,29,30
 36 32 36 32 40 28 c 128,-1,31
 44 24 44 24 48 24 c 2,32,-1
 156 24 l 2,33,34
 172 24 172 24 188 40 c 128,-1,35
 204 56 204 56 204 72 c 2,36,-1
 204 116 l 2,37,38
 204 120 204 120 200 120 c 2,39,-1
 16 120 l 2,40,41
 12 120 12 120 12 124 c 2,42,-1
 12 192 l 2,43,44
 12 216 12 216 36 240 c 128,-1,45
 60 264 60 264 84 264 c 2,46,-1
 156 264 l 2,47,48
 180 264 180 264 204 240 c 128,-1,49
 228 216 228 216 228 192 c 2,50,-1
 228 72 l 2,15,16
EndSplineSet
Validated: 1
EndChar
StartChar: rfishhookreversed
Encoding: 639 639 991
Width: 288
VWidth: 0
Flags: MW
LayerCount: 2
Fore
SplineSet
224 264 m 2,0,1
 228 264 228 264 228 260 c 2,2,-1
 228 4 l 6,3,4
 228 0 228 0 224 0 c 2,5,-1
 208 0 l 2,6,7
 204 0 204 0 204 4 c 2,8,-1
 204 148 l 2,9,10
 204 152 204 152 200 156 c 2,11,-1
 132 224 l 2,12,13
 116 240 116 240 100 240 c 2,14,-1
 16 240 l 2,15,16
 12 240 12 240 12 244 c 2,17,-1
 12 260 l 2,18,19
 12 264 12 264 16 264 c 2,20,-1
 100 264 l 2,21,22
 124 264 124 264 148 240 c 2,23,-1
 192 196 l 2,24,25
 196 192 196 192 200 192 c 128,-1,26
 204 192 204 192 204 196 c 2,27,-1
 204 260 l 2,28,29
 204 264 204 264 208 264 c 2,30,-1
 224 264 l 2,0,1
EndSplineSet
Validated: 1
EndChar
StartChar: Rsmallinverted
Encoding: 641 641 948
Width: 288
VWidth: 0
Flags: MW
LayerCount: 2
Fore
SplineSet
64 168 m 6,0,1
 60 168 60 168 60 164 c 2,2,-1
 60 28 l 2,3,4
 60 24 60 24 64 24 c 2,5,-1
 180 24 l 2,6,7
 196 24 196 24 212 40 c 128,-1,8
 228 56 228 56 228 72 c 2,9,-1
 228 120 l 2,10,11
 228 136 228 136 212 152 c 128,-1,12
 196 168 196 168 180 168 c 2,13,-1
 64 168 l 6,0,1
36 356 m 2,14,15
 36 360 36 360 40 360 c 2,16,-1
 56 360 l 2,17,18
 60 360 60 360 60 356 c 2,19,-1
 60 196 l 2,20,21
 60 192 60 192 64 192 c 128,-1,22
 68 192 68 192 72 196 c 2,23,-1
 224 348 l 2,24,25
 228 352 228 352 228 356 c 128,-1,26
 228 360 228 360 232 360 c 2,27,-1
 248 360 l 2,28,29
 252 360 252 360 252 356 c 0,30,31
 252 344 252 344 240 332 c 2,32,-1
 112 204 l 2,33,34
 108 200 108 200 108 196 c 128,-1,35
 108 192 108 192 112 192 c 2,36,-1
 180 192 l 2,37,38
 204 192 204 192 228 168 c 128,-1,39
 252 144 252 144 252 120 c 2,40,-1
 252 72 l 2,41,42
 252 48 252 48 228 24 c 128,-1,43
 204 0 204 0 180 0 c 2,44,-1
 40 0 l 2,45,46
 36 0 36 0 36 4 c 2,47,-1
 36 356 l 2,14,15
EndSplineSet
Validated: 1
EndChar
StartChar: commareversedmod
Encoding: 701 701 335
Width: 288
VWidth: 0
Flags: MW
LayerCount: 2
Back
Fore
SplineSet
140 456 m 6,0,1
 144 456 144 456 144 452 c 6,2,-1
 144 420 l 2,3,4
 144 400 144 400 164 380 c 0,5,6
 168 376 168 376 164 372 c 2,7,-1
 156 364 l 2,8,9
 152 360 152 360 148 364 c 0,10,11
 120 392 120 392 120 420 c 2,12,-1
 120 452 l 6,13,14
 120 456 120 456 124 456 c 6,15,-1
 140 456 l 6,0,1
EndSplineSet
Validated: 1
EndChar
StartChar: circumflex
Encoding: 710 710 336
Width: 288
VWidth: 0
Flags: MW
LayerCount: 2
Back
Fore
SplineSet
122 434 m 2,0,1
 126 438 126 438 130 438 c 2,2,-1
 134 438 l 2,3,4
 138 438 138 438 142 434 c 2,5,-1
 188 388 l 2,6,7
 192 384 192 384 188 384 c 2,8,-1
 172 384 l 2,9,10
 168 384 168 384 164 388 c 2,11,-1
 142 410 l 2,12,13
 138 414 138 414 134 414 c 2,14,-1
 130 414 l 2,15,16
 126 414 126 414 122 410 c 2,17,-1
 100 388 l 2,18,19
 96 384 96 384 92 384 c 2,20,-1
 76 384 l 2,21,22
 72 384 72 384 76 388 c 2,23,-1
 122 434 l 2,0,1
EndSplineSet
Validated: 1
EndChar
StartChar: breve
Encoding: 728 728 338
Width: 288
VWidth: 0
Flags: MW
LayerCount: 2
Back
Fore
SplineSet
64 456 m 2,0,-1
 80 456 l 2,1,2
 84 456 84 456 84 452 c 2,3,-1
 84 420 l 2,4,5
 84 416 84 416 88 412 c 128,-1,6
 92 408 92 408 96 408 c 2,7,-1
 192 408 l 2,8,9
 196 408 196 408 200 412 c 128,-1,10
 204 416 204 416 204 420 c 2,11,-1
 204 452 l 2,12,13
 204 456 204 456 208 456 c 2,14,-1
 224 456 l 2,15,16
 228 456 228 456 228 452 c 2,17,-1
 228 420 l 2,18,19
 228 408 228 408 216 396 c 128,-1,20
 204 384 204 384 192 384 c 2,21,-1
 96 384 l 2,22,23
 84 384 84 384 72 396 c 128,-1,24
 60 408 60 408 60 420 c 2,25,-1
 60 452 l 2,26,27
 60 456 60 456 64 456 c 2,0,-1
EndSplineSet
Validated: 1
EndChar
StartChar: ring
Encoding: 730 730 1043
Width: 288
VWidth: 0
Flags: MW
LayerCount: 2
Fore
SplineSet
124 428 m 128,-1,1
 120 424 120 424 120 420 c 2,2,-1
 120 396 l 2,3,4
 120 392 120 392 124 388 c 128,-1,5
 128 384 128 384 132 384 c 2,6,-1
 156 384 l 2,7,8
 160 384 160 384 164 388 c 128,-1,9
 168 392 168 392 168 396 c 2,10,-1
 168 420 l 2,11,12
 168 424 168 424 164 428 c 128,-1,13
 160 432 160 432 156 432 c 2,14,-1
 132 432 l 2,15,0
 128 432 128 432 124 428 c 128,-1,1
132 456 m 2,16,-1
 156 456 l 2,17,18
 168 456 168 456 180 444 c 128,-1,19
 192 432 192 432 192 420 c 2,20,-1
 192 396 l 2,21,22
 192 384 192 384 180 372 c 128,-1,23
 168 360 168 360 156 360 c 2,24,-1
 132 360 l 2,25,26
 120 360 120 360 108 372 c 128,-1,27
 96 384 96 384 96 396 c 2,28,-1
 96 420 l 2,29,30
 96 432 96 432 108 444 c 128,-1,31
 120 456 120 456 132 456 c 2,16,-1
EndSplineSet
Validated: 1
EndChar
StartChar: tilde
Encoding: 732 732 341
Width: 288
VWidth: 0
Flags: MW
LayerCount: 2
Back
Fore
SplineSet
80 384 m 2,0,-1
 64 384 l 2,1,2
 60 384 60 384 60 388 c 2,3,-1
 60 420 l 2,4,5
 60 432 60 432 72 444 c 128,-1,6
 84 456 84 456 96 456 c 2,7,-1
 120 456 l 2,8,9
 132 456 132 456 144 444 c 128,-1,10
 156 432 156 432 156 420 c 0,11,12
 156 416 156 416 160 412 c 128,-1,13
 164 408 164 408 168 408 c 2,14,-1
 192 408 l 2,15,16
 196 408 196 408 200 412 c 128,-1,17
 204 416 204 416 204 420 c 2,18,-1
 204 452 l 2,19,20
 204 456 204 456 208 456 c 2,21,-1
 224 456 l 2,22,23
 228 456 228 456 228 452 c 2,24,-1
 228 420 l 2,25,26
 228 408 228 408 216 396 c 128,-1,27
 204 384 204 384 192 384 c 2,28,-1
 168 384 l 2,29,30
 156 384 156 384 144 396 c 128,-1,31
 132 408 132 408 132 420 c 0,32,33
 132 424 132 424 128 428 c 128,-1,34
 124 432 124 432 120 432 c 2,35,-1
 96 432 l 2,36,37
 92 432 92 432 88 428 c 128,-1,38
 84 424 84 424 84 420 c 2,39,-1
 84 388 l 2,40,41
 84 384 84 384 80 384 c 2,0,-1
EndSplineSet
Validated: 1
EndChar
StartChar: overlinecmb
Encoding: 773 773 348
Width: 288
VWidth: 0
Flags: MW
LayerCount: 2
Back
Fore
SplineSet
28 432 m 2,0,-1
 236 432 l 2,1,2
 240 432 240 432 240 428 c 2,3,-1
 240 412 l 2,4,5
 240 408 240 408 236 408 c 2,6,-1
 28 408 l 2,7,8
 24 408 24 408 24 412 c 2,9,-1
 24 428 l 2,10,11
 24 432 24 432 28 432 c 2,0,-1
EndSplineSet
Validated: 1
EndChar
StartChar: verticallinebelowcmb
Encoding: 809 809 355
Width: 1024
VWidth: 0
Flags: MW
LayerCount: 2
Back
Fore
SplineSet
441 -85 m 6,0,-1
 498 -85 l 2,1,2
 512 -85 512 -85 512 -100 c 2,3,-1
 512 -327 l 2,4,5
 512 -341 512 -341 498 -341 c 2,6,-1
 441 -341 l 2,7,8
 427 -341 427 -341 427 -327 c 2,9,-1
 427 -100 l 2,10,11
 427 -85 427 -85 441 -85 c 6,0,-1
EndSplineSet
EndChar
StartChar: horizontalbar
Encoding: 8213 8213 407
Width: 288
VWidth: 0
Flags: MW
LayerCount: 2
Back
Fore
SplineSet
24 172 m 2,0,-1
 24 188 l 2,1,2
 24 192 24 192 28 192 c 2,3,-1
 260 192 l 6,4,5
 264 192 264 192 264 188 c 6,6,-1
 264 172 l 6,7,8
 264 168 264 168 260 168 c 6,9,-1
 28 168 l 2,10,11
 24 168 24 168 24 172 c 2,0,-1
EndSplineSet
Validated: 1
Colour: 808000
EndChar
StartChar: quoteleft
Encoding: 8216 8216 410
Width: 288
VWidth: 0
Flags: MW
LayerCount: 2
Back
Fore
SplineSet
140 288 m 6,0,-1
 124 288 l 6,1,2
 120 288 120 288 120 292 c 6,3,-1
 120 348 l 6,4,5
 120 376 120 376 148 404 c 4,6,7
 152 408 152 408 156 404 c 6,8,-1
 164 396 l 6,9,10
 168 392 168 392 164 388 c 4,11,12
 144 368 144 368 144 348 c 6,13,-1
 144 292 l 6,14,15
 144 288 144 288 140 288 c 6,0,-1
EndSplineSet
Validated: 1
Colour: 808000
EndChar
StartChar: prime
Encoding: 8242 8242 423
Width: 288
VWidth: 0
Flags: MW
LayerCount: 2
Back
Fore
SplineSet
136 408 m 2,0,-1
 152 408 l 2,1,2
 156 408 156 408 156 404 c 2,3,-1
 156 268 l 2,4,5
 156 264 156 264 152 264 c 2,6,-1
 136 264 l 2,7,8
 132 264 132 264 132 268 c 2,9,-1
 132 404 l 2,10,11
 132 408 132 408 136 408 c 2,0,-1
EndSplineSet
Validated: 1
Colour: 808000
EndChar
StartChar: uni2070
Encoding: 8304 8304 429
Width: 288
VWidth: 0
Flags: MW
LayerCount: 2
Back
Fore
SplineSet
96 376 m 29,0,-1
 96 224 l 29,1,-1
 104 216 l 29,2,-1
 184 216 l 29,3,-1
 192 224 l 29,4,-1
 192 376 l 29,5,-1
 184 384 l 29,6,-1
 104 384 l 29,7,-1
 96 376 l 29,0,-1
72 384 m 25,8,-1
 96 408 l 25,9,-1
 192 408 l 25,10,-1
 216 384 l 25,11,-1
 216 216 l 25,12,-1
 192 192 l 25,13,-1
 96 192 l 25,14,-1
 72 216 l 25,15,-1
 72 384 l 25,8,-1
EndSplineSet
Validated: 1
Colour: 800080
EndChar
StartChar: uni2071
Encoding: 8305 8305 430
Width: 288
VWidth: 0
Flags: MW
LayerCount: 2
Back
Fore
SplineSet
96 360 m 25,0,-1
 144 360 l 25,1,-1
 144 216 l 25,2,-1
 168 216 l 25,3,-1
 168 192 l 25,4,-1
 96 192 l 25,5,-1
 96 216 l 25,6,-1
 120 216 l 25,7,-1
 120 336 l 25,8,-1
 96 336 l 25,9,-1
 96 360 l 25,0,-1
120 432 m 25,10,-1
 144 432 l 25,11,-1
 144 384 l 25,12,-1
 120 384 l 25,13,-1
 120 432 l 25,10,-1
EndSplineSet
Validated: 1
Colour: 800080
EndChar
StartChar: uni2074
Encoding: 8308 8308 431
Width: 288
VWidth: 0
Flags: MW
LayerCount: 2
Back
Fore
SplineSet
192 264 m 29,0,-1
 192 368 l 29,1,-1
 96 272 l 29,2,-1
 96 264 l 29,3,-1
 192 264 l 29,0,-1
216 408 m 25,4,-1
 216 192 l 25,5,-1
 192 192 l 25,6,-1
 192 240 l 25,7,-1
 72 240 l 25,8,-1
 72 280 l 25,9,-1
 192 400 l 25,10,-1
 192 408 l 25,11,-1
 216 408 l 25,4,-1
EndSplineSet
Validated: 1
Colour: 800080
EndChar
StartChar: uni2075
Encoding: 8309 8309 432
Width: 288
VWidth: 0
Flags: MW
LayerCount: 2
Back
Fore
SplineSet
192 408 m 29,0,-1
 192 384 l 25,1,-1
 96 384 l 25,2,-1
 96 312 l 25,3,-1
 192 312 l 25,4,-1
 216 288 l 25,5,-1
 216 216 l 25,6,-1
 192 192 l 25,7,-1
 72 192 l 25,8,-1
 72 216 l 25,9,-1
 184 216 l 25,10,-1
 192 224 l 25,11,-1
 192 280 l 25,12,-1
 184 288 l 25,13,-1
 72 288 l 25,14,-1
 72 408 l 25,15,-1
 192 408 l 29,0,-1
EndSplineSet
Validated: 1
Colour: 800080
EndChar
StartChar: uni2076
Encoding: 8310 8310 433
Width: 1024
VWidth: 0
Flags: MW
LayerCount: 2
Back
Fore
SplineSet
341 1024 m 29,0,-1
 341 796 l 25,1,-1
 370 768 l 25,2,-1
 654 768 l 25,3,-1
 683 796 l 25,4,-1
 683 996 l 25,5,-1
 654 1024 l 25,6,-1
 341 1024 l 29,0,-1
683 1451 m 25,7,-1
 683 1365 l 25,8,-1
 370 1365 l 25,9,-1
 341 1337 l 25,10,-1
 341 1109 l 25,11,-1
 683 1109 l 25,12,-1
 768 1024 l 25,13,-1
 768 768 l 25,14,-1
 683 683 l 25,15,-1
 341 683 l 25,16,-1
 256 768 l 25,17,-1
 256 1365 l 25,18,-1
 341 1451 l 25,19,-1
 683 1451 l 25,7,-1
EndSplineSet
Colour: 800080
EndChar
StartChar: uni2077
Encoding: 8311 8311 434
Width: 288
VWidth: 0
Flags: MW
LayerCount: 2
Back
Fore
SplineSet
72 408 m 25,0,-1
 216 408 l 25,1,-1
 216 336 l 29,2,-1
 144 264 l 29,3,-1
 144 192 l 25,4,-1
 120 192 l 25,5,-1
 120 272 l 29,6,-1
 192 344 l 29,7,-1
 192 384 l 25,8,-1
 96 384 l 25,9,-1
 96 360 l 25,10,-1
 72 360 l 25,11,-1
 72 408 l 25,0,-1
EndSplineSet
Validated: 1
Colour: 800080
EndChar
StartChar: uni2078
Encoding: 8312 8312 435
Width: 1024
VWidth: 0
Flags: MW
LayerCount: 3
Back
Fore
SplineSet
370 1024 m 29,0,-1
 341 996 l 29,1,-1
 341 796 l 29,2,-1
 370 768 l 29,3,-1
 654 768 l 29,4,-1
 683 796 l 29,5,-1
 683 996 l 29,6,-1
 654 1024 l 29,7,-1
 370 1024 l 29,0,-1
370 1365 m 25,8,-1
 341 1337 l 25,9,-1
 341 1138 l 25,10,-1
 370 1109 l 25,11,-1
 654 1109 l 25,12,-1
 683 1138 l 25,13,-1
 683 1337 l 25,14,-1
 654 1365 l 25,15,-1
 370 1365 l 25,8,-1
256 1365 m 25,16,-1
 341 1451 l 25,17,-1
 683 1451 l 25,18,-1
 768 1365 l 25,19,-1
 768 1109 l 25,20,-1
 725 1109 l 25,21,-1
 725 1024 l 25,22,-1
 768 1024 l 25,23,-1
 768 768 l 25,24,-1
 683 683 l 25,25,-1
 341 683 l 25,26,-1
 256 768 l 25,27,-1
 256 1024 l 25,28,-1
 299 1024 l 25,29,-1
 299 1109 l 25,30,-1
 256 1109 l 25,31,-1
 256 1365 l 25,16,-1
EndSplineSet
Validated: 3073
Layer: 2
SplineSet
370 1024 m 29,0,-1
 341 996 l 29,1,-1
 341 796 l 29,2,-1
 370 768 l 29,3,-1
 654 768 l 29,4,-1
 683 796 l 29,5,-1
 683 996 l 29,6,-1
 654 1024 l 29,7,-1
 370 1024 l 29,0,-1
370 1365 m 25,8,-1
 341 1337 l 25,9,-1
 341 1138 l 25,10,-1
 370 1109 l 25,11,-1
 654 1109 l 25,12,-1
 683 1138 l 25,13,-1
 683 1337 l 25,14,-1
 654 1365 l 25,15,-1
 370 1365 l 25,8,-1
256 1365 m 25,16,-1
 341 1451 l 25,17,-1
 683 1451 l 25,18,-1
 768 1365 l 25,19,-1
 768 1109 l 25,20,-1
 725 1109 l 25,21,-1
 725 1024 l 25,22,-1
 768 1024 l 25,23,-1
 768 768 l 25,24,-1
 683 683 l 25,25,-1
 341 683 l 25,26,-1
 256 768 l 25,27,-1
 256 1024 l 25,28,-1
 299 1024 l 25,29,-1
 299 1109 l 25,30,-1
 256 1109 l 25,31,-1
 256 1365 l 25,16,-1
EndSplineSet
Colour: 800080
EndChar
StartChar: uni207A
Encoding: 8314 8314 437
Width: 288
VWidth: 0
Flags: MW
LayerCount: 2
Back
Fore
SplineSet
120 384 m 29,0,-1
 144 384 l 25,1,-1
 144 312 l 25,2,-1
 216 312 l 25,3,-1
 216 288 l 25,4,-1
 144 288 l 25,5,-1
 144 216 l 25,6,-1
 120 216 l 25,7,-1
 120 288 l 25,8,-1
 48 288 l 25,9,-1
 48 312 l 25,10,-1
 120 312 l 25,11,-1
 120 384 l 29,0,-1
EndSplineSet
Validated: 1
Colour: 800080
EndChar
StartChar: uni207B
Encoding: 8315 8315 438
Width: 1024
VWidth: 0
Flags: MW
LayerCount: 3
Back
Fore
SplineSet
171 1109 m 29,0,-1
 768 1109 l 25,1,-1
 768 1024 l 25,2,-1
 171 1024 l 25,3,-1
 171 1109 l 29,0,-1
EndSplineSet
Layer: 2
SplineSet
171 1109 m 29,0,-1
 768 1109 l 25,1,-1
 768 1024 l 25,2,-1
 171 1024 l 25,3,-1
 171 1109 l 29,0,-1
EndSplineSet
Colour: 800080
EndChar
StartChar: uni207D
Encoding: 8317 8317 440
Width: 1024
VWidth: 0
Flags: MW
LayerCount: 2
Back
Fore
SplineSet
597 1394 m 25,0,-1
 427 1223 l 25,1,-1
 427 910 l 25,2,-1
 597 740 l 25,3,-1
 540 683 l 25,4,-1
 341 882 l 25,5,-1
 341 1252 l 25,6,-1
 540 1451 l 25,7,-1
 597 1394 l 25,0,-1
EndSplineSet
Colour: 800080
EndChar
StartChar: nsuperior
Encoding: 8319 8319 442
Width: 288
VWidth: 0
Flags: MW
LayerCount: 2
Back
Fore
SplineSet
72 192 m 29,0,-1
 72 384 l 25,1,-1
 192 384 l 25,2,-1
 216 360 l 25,3,-1
 216 192 l 25,4,-1
 192 192 l 25,5,-1
 192 352 l 25,6,-1
 184 360 l 25,7,-1
 96 360 l 25,8,-1
 96 192 l 25,9,-1
 72 192 l 29,0,-1
EndSplineSet
Validated: 1
Colour: 800080
EndChar
StartChar: uni2090
Encoding: 8336 8336 458
Width: 1024
VWidth: 0
Flags: MW
LayerCount: 3
Back
Fore
SplineSet
370 171 m 29,0,-1
 341 142 l 29,1,-1
 341 -57 l 29,2,-1
 370 -85 l 29,3,-1
 683 -85 l 29,4,-1
 683 171 l 29,5,-1
 370 171 l 29,0,-1
341 512 m 25,6,-1
 683 512 l 25,7,-1
 768 427 l 25,8,-1
 768 -171 l 25,9,-1
 341 -171 l 25,10,-1
 256 -85 l 25,11,-1
 256 171 l 25,12,-1
 341 256 l 25,13,-1
 683 256 l 25,14,-1
 683 398 l 25,15,-1
 654 427 l 25,16,-1
 341 427 l 25,17,-1
 341 512 l 25,6,-1
EndSplineSet
Layer: 2
SplineSet
370 171 m 29,0,-1
 341 142 l 29,1,-1
 341 -57 l 29,2,-1
 370 -85 l 29,3,-1
 683 -85 l 29,4,-1
 683 171 l 29,5,-1
 370 171 l 29,0,-1
341 512 m 25,6,-1
 683 512 l 25,7,-1
 768 427 l 25,8,-1
 768 -171 l 25,9,-1
 341 -171 l 25,10,-1
 256 -85 l 25,11,-1
 256 171 l 25,12,-1
 341 256 l 25,13,-1
 683 256 l 25,14,-1
 683 398 l 25,15,-1
 654 427 l 25,16,-1
 341 427 l 25,17,-1
 341 512 l 25,6,-1
EndSplineSet
Colour: 800080
EndChar
StartChar: uni2091
Encoding: 8337 8337 459
Width: 288
VWidth: 0
Flags: MW
LayerCount: 2
Back
Fore
SplineSet
96 112 m 25,0,-1
 96 72 l 25,1,-1
 192 72 l 25,2,-1
 192 112 l 25,3,-1
 184 120 l 25,4,-1
 104 120 l 25,5,-1
 96 112 l 25,0,-1
192 144 m 25,6,-1
 216 120 l 25,7,-1
 216 48 l 25,8,-1
 96 48 l 25,9,-1
 96 -16 l 25,10,-1
 104 -24 l 25,11,-1
 184 -24 l 25,12,-1
 192 -16 l 25,13,-1
 192 0 l 25,14,-1
 216 0 l 25,15,-1
 216 -24 l 25,16,-1
 192 -48 l 25,17,-1
 96 -48 l 25,18,-1
 72 -24 l 25,19,-1
 72 120 l 25,20,-1
 96 144 l 25,21,-1
 192 144 l 25,6,-1
EndSplineSet
Validated: 1
Colour: 800080
EndChar
StartChar: uni2092
Encoding: 8338 8338 460
Width: 288
VWidth: 0
Flags: MW
LayerCount: 2
Back
Fore
SplineSet
96 112 m 29,0,-1
 96 -16 l 29,1,-1
 104 -24 l 29,2,-1
 184 -24 l 29,3,-1
 192 -16 l 29,4,-1
 192 112 l 29,5,-1
 184 120 l 29,6,-1
 104 120 l 29,7,-1
 96 112 l 29,0,-1
72 120 m 25,8,-1
 96 144 l 25,9,-1
 192 144 l 25,10,-1
 216 120 l 25,11,-1
 216 -24 l 25,12,-1
 192 -48 l 25,13,-1
 96 -48 l 25,14,-1
 72 -24 l 25,15,-1
 72 120 l 25,8,-1
EndSplineSet
Validated: 1
Colour: 800080
EndChar
StartChar: uni2093
Encoding: 8339 8339 461
Width: 1024
VWidth: 0
Flags: MW
LayerCount: 2
Back
Fore
SplineSet
256 512 m 25,0,-1
 341 512 l 25,1,-1
 341 398 l 25,2,-1
 484 256 l 25,3,-1
 540 256 l 25,4,-1
 683 398 l 25,5,-1
 683 512 l 25,6,-1
 768 512 l 25,7,-1
 768 370 l 25,8,-1
 597 199 l 25,9,-1
 597 142 l 25,10,-1
 768 -28 l 25,11,-1
 768 -171 l 25,12,-1
 683 -171 l 25,13,-1
 683 -57 l 25,14,-1
 540 85 l 25,15,-1
 484 85 l 25,16,-1
 341 -57 l 25,17,-1
 341 -171 l 25,18,-1
 256 -171 l 25,19,-1
 256 -28 l 25,20,-1
 427 142 l 29,21,-1
 427 199 l 25,22,-1
 256 370 l 25,23,-1
 256 512 l 25,0,-1
EndSplineSet
Colour: 800080
EndChar
StartChar: uni2095
Encoding: 8341 8341 463
Width: 288
VWidth: 0
Flags: MW
LayerCount: 2
Back
Fore
SplineSet
72 216 m 29,0,-1
 96 216 l 25,1,-1
 96 144 l 25,2,-1
 192 144 l 25,3,-1
 216 120 l 25,4,-1
 216 -48 l 25,5,-1
 192 -48 l 25,6,-1
 192 112 l 25,7,-1
 184 120 l 25,8,-1
 96 120 l 25,9,-1
 96 -48 l 25,10,-1
 72 -48 l 25,11,-1
 72 216 l 29,0,-1
EndSplineSet
Validated: 1
Colour: 800080
EndChar
StartChar: uni2096
Encoding: 8342 8342 464
Width: 288
VWidth: 0
Flags: MW
LayerCount: 2
Back
Fore
SplineSet
72 216 m 25,0,-1
 96 216 l 25,1,-1
 96 48 l 25,2,-1
 104 48 l 25,3,-1
 200 144 l 25,4,-1
 216 128 l 25,5,-1
 136 48 l 25,6,-1
 216 -32 l 25,7,-1
 200 -48 l 25,8,-1
 128 24 l 29,9,-1
 96 24 l 25,10,-1
 96 -48 l 25,11,-1
 72 -48 l 25,12,-1
 72 216 l 25,0,-1
EndSplineSet
Validated: 1
Colour: 800080
EndChar
StartChar: uni2097
Encoding: 8343 8343 465
Width: 288
VWidth: 0
Flags: MW
LayerCount: 2
Back
Fore
SplineSet
96 216 m 29,0,-1
 144 216 l 25,1,-1
 144 -24 l 25,2,-1
 168 -24 l 25,3,-1
 168 -48 l 25,4,-1
 96 -48 l 25,5,-1
 96 -24 l 25,6,-1
 120 -24 l 25,7,-1
 120 192 l 25,8,-1
 96 192 l 25,9,-1
 96 216 l 29,0,-1
EndSplineSet
Validated: 1
Colour: 800080
EndChar
StartChar: uni2098
Encoding: 8344 8344 466
Width: 288
VWidth: 0
Flags: MW
LayerCount: 2
Back
Fore
SplineSet
72 144 m 25,0,-1
 192 144 l 25,1,-1
 216 120 l 25,2,-1
 216 -48 l 25,3,-1
 192 -48 l 25,4,-1
 192 112 l 25,5,-1
 184 120 l 25,6,-1
 156 120 l 25,7,-1
 156 -48 l 25,8,-1
 132 -48 l 25,9,-1
 132 120 l 25,10,-1
 96 120 l 25,11,-1
 96 -48 l 25,12,-1
 72 -48 l 25,13,-1
 72 144 l 25,0,-1
EndSplineSet
Validated: 1
Colour: 800080
EndChar
StartChar: uni209A
Encoding: 8346 8346 467
Width: 288
VWidth: 0
Flags: MW
LayerCount: 2
Back
Fore
SplineSet
96 120 m 25,0,-1
 96 -24 l 25,1,-1
 184 -24 l 25,2,-1
 192 -16 l 25,3,-1
 192 112 l 25,4,-1
 184 120 l 25,5,-1
 96 120 l 25,0,-1
96 -120 m 25,6,-1
 72 -120 l 25,7,-1
 72 144 l 25,8,-1
 192 144 l 25,9,-1
 216 120 l 25,10,-1
 216 -24 l 25,11,-1
 192 -48 l 25,12,-1
 96 -48 l 25,13,-1
 96 -120 l 25,6,-1
EndSplineSet
Validated: 1
Colour: 800080
EndChar
StartChar: uni209B
Encoding: 8347 8347 819
Width: 288
VWidth: 0
Flags: MW
LayerCount: 2
Fore
SplineSet
212 96 m 6,0,-1
 196 96 l 6,1,2
 192 96 192 96 192 100 c 30,3,-1
 192 108 l 6,4,5
 192 112 192 112 188 116 c 132,-1,6
 184 120 184 120 180 120 c 6,7,-1
 108 120 l 6,8,9
 104 120 104 120 100 116 c 132,-1,10
 96 112 96 112 96 108 c 6,11,-1
 96 72 l 6,12,13
 96 68 96 68 100 64 c 132,-1,14
 104 60 104 60 108 60 c 6,15,-1
 180 60 l 6,16,17
 192 60 192 60 204 48 c 132,-1,18
 216 36 216 36 216 24 c 6,19,-1
 216 -12 l 6,20,21
 216 -24 216 -24 204 -36 c 132,-1,22
 192 -48 192 -48 180 -48 c 6,23,-1
 108 -48 l 6,24,25
 96 -48 96 -48 84 -36 c 132,-1,26
 72 -24 72 -24 72 -12 c 6,27,-1
 72 -4 l 6,28,29
 72 0 72 0 76 0 c 6,30,-1
 92 0 l 6,31,32
 96 0 96 0 96 -4 c 6,33,-1
 96 -12 l 6,34,35
 96 -16 96 -16 100 -20 c 132,-1,36
 104 -24 104 -24 108 -24 c 6,37,-1
 180 -24 l 6,38,39
 184 -24 184 -24 188 -20 c 132,-1,40
 192 -16 192 -16 192 -12 c 6,41,-1
 192 24 l 6,42,43
 192 28 192 28 188 32 c 132,-1,44
 184 36 184 36 180 36 c 6,45,-1
 108 36 l 6,46,47
 96 36 96 36 84 48 c 132,-1,48
 72 60 72 60 72 72 c 6,49,-1
 72 108 l 6,50,51
 72 120 72 120 84 132 c 132,-1,52
 96 144 96 144 108 144 c 6,53,-1
 180 144 l 6,54,55
 192 144 192 144 204 132 c 132,-1,56
 216 120 216 120 216 108 c 6,57,-1
 216 100 l 6,58,59
 216 96 216 96 212 96 c 6,0,-1
EndSplineSet
Validated: 1
EndChar
StartChar: uni209C
Encoding: 8348 8348 820
Width: 1024
VWidth: 0
Flags: MW
LayerCount: 3
Fore
SplineSet
441 768 m 2,0,-1
 498 768 l 2,1,2
 512 768 512 768 512 754 c 2,3,-1
 512 441 l 2,4,5
 512 427 512 427 526 427 c 2,6,-1
 668 427 l 2,7,8
 682 427 682 427 683 412 c 2,9,-1
 683 356 l 2,10,11
 683 342 683 342 668 341 c 2,12,-1
 526 341 l 2,13,14
 512 341 512 341 512 327 c 2,15,-1
 512 -43 l 2,16,17
 512 -57 512 -57 526 -71 c 128,-1,18
 540 -85 540 -85 555 -85 c 2,19,-1
 754 -85 l 2,20,21
 768 -85 768 -85 768 -100 c 2,22,-1
 768 -156 l 2,23,24
 768 -170 768 -170 754 -171 c 2,25,-1
 555 -171 l 2,26,27
 512 -171 512 -171 469.5 -128 c 128,-1,28
 427 -85 427 -85 427 -43 c 2,29,-1
 427 327 l 2,30,31
 427 341 427 341 412 341 c 2,32,-1
 270 341 l 2,33,34
 256 341 256 341 256 356 c 2,35,-1
 256 412 l 2,36,37
 256 426 256 426 270 427 c 2,38,-1
 412 427 l 2,39,40
 426 427 426 427 427 441 c 2,41,-1
 427 754 l 2,42,43
 427 768 427 768 441 768 c 2,0,-1
EndSplineSet
Layer: 2
SplineSet
441 768 m 2,0,-1
 498 768 l 2,1,2
 512 768 512 768 512 754 c 2,3,-1
 512 441 l 2,4,5
 512 427 512 427 526 427 c 2,6,-1
 668 427 l 2,7,8
 682 427 682 427 683 412 c 2,9,-1
 683 356 l 2,10,11
 683 342 683 342 668 341 c 2,12,-1
 526 341 l 2,13,14
 512 341 512 341 512 327 c 2,15,-1
 512 -43 l 2,16,17
 512 -57 512 -57 526 -71 c 128,-1,18
 540 -85 540 -85 555 -85 c 2,19,-1
 754 -85 l 2,20,21
 768 -85 768 -85 768 -100 c 2,22,-1
 768 -156 l 2,23,24
 768 -170 768 -170 754 -171 c 2,25,-1
 555 -171 l 2,26,27
 512 -171 512 -171 469.5 -128 c 128,-1,28
 427 -85 427 -85 427 -43 c 2,29,-1
 427 327 l 2,30,31
 427 341 427 341 412 341 c 2,32,-1
 270 341 l 2,33,34
 256 341 256 341 256 356 c 2,35,-1
 256 412 l 2,36,37
 256 426 256 426 270 427 c 2,38,-1
 412 427 l 2,39,40
 426 427 426 427 427 441 c 2,41,-1
 427 754 l 2,42,43
 427 768 427 768 441 768 c 2,0,-1
EndSplineSet
EndChar
StartChar: arrowleft
Encoding: 8592 8592 482
Width: 288
VWidth: 0
Flags: MW
LayerCount: 2
Back
Fore
SplineSet
0 180 m 25,0,-1
 92 272 l 25,1,-1
 92 236 l 25,2,-1
 48 192 l 25,3,-1
 216 192 l 25,4,-1
 216 168 l 25,5,-1
 48 168 l 25,6,-1
 92 124 l 25,7,-1
 92 88 l 25,8,-1
 0 180 l 25,0,-1
EndSplineSet
Validated: 1
Colour: 8080
EndChar
StartChar: arrowup
Encoding: 8593 8593 483
Width: 288
VWidth: 0
Flags: MW
LayerCount: 2
Back
Fore
SplineSet
132 360 m 25,0,-1
 224 268 l 25,1,-1
 188 268 l 25,2,-1
 144 312 l 25,3,-1
 144 72 l 29,4,-1
 120 72 l 29,5,-1
 120 312 l 25,6,-1
 76 268 l 25,7,-1
 40 268 l 25,8,-1
 132 360 l 25,0,-1
EndSplineSet
Validated: 1
Colour: 8080
EndChar
StartChar: uni2196
Encoding: 8598 8598 821
Width: 288
VWidth: 0
Flags: MW
LayerCount: 2
Back
SplineSet
0 312 m 1,0,-1
 152 312 l 1,1,-1
 152 160 l 1,2,-1
 0 160 l 1,3,-1
 0 312 l 1,0,-1
EndSplineSet
Fore
SplineSet
0 312 m 25,0,-1
 152 312 l 25,1,-1
 152 288 l 25,2,-1
 40 288 l 25,3,-1
 288 40 l 25,4,-1
 272 24 l 25,5,-1
 24 272 l 25,6,-1
 24 160 l 25,7,-1
 0 160 l 25,8,-1
 0 312 l 25,0,-1
EndSplineSet
Validated: 1
EndChar
StartChar: uni21A4
Encoding: 8612 8612 488
Width: 288
VWidth: 0
Flags: MW
LayerCount: 2
Back
Fore
SplineSet
0 180 m 25,0,-1
 92 272 l 25,1,-1
 92 236 l 25,2,-1
 48 192 l 17,3,-1
 240 192 l 1,4,-1
 240 272 l 1,5,-1
 264 272 l 9,6,-1
 264 88 l 17,7,-1
 240 88 l 1,8,-1
 240 168 l 1,9,-1
 48 168 l 9,10,-1
 92 124 l 25,11,-1
 92 88 l 25,12,-1
 0 180 l 25,0,-1
EndSplineSet
Validated: 1
Colour: 8080
EndChar
StartChar: uni21A5
Encoding: 8613 8613 831
Width: 288
VWidth: 0
Flags: MW
LayerCount: 2
Fore
SplineSet
132 360 m 25,0,-1
 224 268 l 25,1,-1
 188 268 l 25,2,-1
 144 312 l 17,3,-1
 144 24 l 5,4,-1
 224 24 l 5,5,-1
 224 0 l 13,6,-1
 40 0 l 21,7,-1
 40 24 l 5,8,-1
 120 24 l 5,9,-1
 120 312 l 9,10,-1
 76 268 l 25,11,-1
 40 268 l 25,12,-1
 132 360 l 25,0,-1
EndSplineSet
Validated: 1
EndChar
StartChar: uni21C6
Encoding: 8646 8646 842
Width: 288
VWidth: 0
Flags: MW
LayerCount: 2
Fore
SplineSet
288 127 m 25,0,-1
 196 35 l 25,1,-1
 196 71 l 25,2,-1
 240 115 l 25,3,-1
 0 115 l 25,4,-1
 0 139 l 25,5,-1
 240 139 l 25,6,-1
 196 183 l 25,7,-1
 196 219 l 25,8,-1
 288 127 l 25,0,-1
0 233 m 25,9,-1
 92 325 l 25,10,-1
 92 289 l 25,11,-1
 48 245 l 25,12,-1
 288 245 l 25,13,-1
 288 221 l 25,14,-1
 48 221 l 25,15,-1
 92 177 l 25,16,-1
 92 141 l 25,17,-1
 0 233 l 25,9,-1
EndSplineSet
Validated: 1
EndChar
StartChar: uniE0A0
Encoding: 57504 57504 761
Width: 1024
VWidth: 0
Flags: MW
LayerCount: 3
Back
Fore
SplineSet
100 1621 m 2,0,-1
 156 1621 l 2,1,2
 170 1621 170 1621 171 1607 c 2,3,-1
 171 612 l 2,4,5
 171 598 171 598 156 597 c 2,6,-1
 100 597 l 2,7,8
 86 597 86 597 85 612 c 2,9,-1
 85 1607 l 2,10,11
 86 1621 86 1621 100 1621 c 2,0,-1
626 1436 m 2,12,13
 640 1450 640 1450 654 1436 c 2,14,-1
 910 1180 l 2,15,16
 924 1166 924 1166 910 1152 c 2,17,-1
 882 1124 l 2,18,19
 868 1110 868 1110 853 1124 c 2,20,-1
 683 1294 l 9,21,-1
 683 981 l 2,22,23
 683 697 683 697 427 441 c 128,-1,24
 171 185 171 185 171 -43 c 2,25,-1
 171 -412 l 2,26,27
 171 -426 171 -426 156 -427 c 2,28,-1
 100 -427 l 2,29,30
 86 -427 86 -427 85 -412 c 2,31,-1
 85 -43 l 2,32,33
 85 213 85 213 341 469 c 128,-1,34
 597 725 597 725 597 981 c 2,35,-1
 597 1294 l 17,36,-1
 427 1124 l 2,37,38
 413 1110 413 1110 398 1124 c 2,39,-1
 370 1152 l 2,40,41
 356 1166 356 1166 370 1180 c 2,42,-1
 626 1436 l 2,12,13
EndSplineSet
Colour: ff00ff
EndChar
StartChar: uniE0A1
Encoding: 57505 57505 762
Width: 288
VWidth: 0
Flags: MW
LayerCount: 2
Back
Fore
SplineSet
28 360 m 2,0,-1
 44 360 l 2,1,2
 48 360 48 360 48 356 c 0,3,4
 48 280 48 280 124 204 c 2,5,-1
 204 124 l 2,6,7
 208 120 208 120 212 120 c 128,-1,8
 216 120 216 120 216 124 c 2,9,-1
 216 356 l 2,10,11
 216 360 216 360 220 360 c 2,12,-1
 236 360 l 2,13,14
 240 360 240 360 240 356 c 2,15,-1
 240 4 l 2,16,17
 240 0 240 0 236 0 c 2,18,-1
 220 0 l 2,19,20
 216 0 216 0 216 4 c 0,21,22
 216 80 216 80 140 156 c 2,23,-1
 60 236 l 2,24,25
 56 240 56 240 52 240 c 128,-1,26
 48 240 48 240 48 236 c 2,27,-1
 48 4 l 2,28,29
 48 0 48 0 44 0 c 2,30,-1
 28 0 l 2,31,32
 24 0 24 0 24 4 c 2,33,-1
 24 356 l 2,34,35
 24 360 24 360 28 360 c 2,0,-1
EndSplineSet
Validated: 1
Colour: ff00ff
EndChar
StartChar: uniE0A2
Encoding: 57506 57506 763
Width: 1024
VWidth: 0
Flags: MW
LayerCount: 3
Back
Fore
SplineSet
384 512 m 6,0,1
 341 512 341 512 298.5 469.5 c 128,-1,2
 256 427 256 427 256 384 c 2,3,-1
 256 299 l 2,4,5
 256 256 256 256 298.5 213.5 c 128,-1,6
 341 171 341 171 384 171 c 2,7,-1
 555 171 l 2,8,9
 598 171 598 171 640.5 213.5 c 128,-1,10
 683 256 683 256 683 299 c 2,11,-1
 683 384 l 2,12,13
 683 427 683 427 640 469.5 c 128,-1,14
 597 512 597 512 555 512 c 2,15,-1
 384 512 l 6,0,1
683 782 m 2,16,-1
 683 1237 l 2,17,18
 683 1251 683 1251 668.5 1265.5 c 128,-1,19
 654 1280 654 1280 640 1280 c 2,20,-1
 299 1280 l 2,21,22
 285 1280 285 1280 270.5 1266 c 128,-1,23
 256 1252 256 1252 256 1237 c 2,24,-1
 256 782 l 2,25,26
 256 768 256 768 270 768 c 6,27,-1
 668 768 l 2,28,29
 683 768 683 768 683 782 c 2,16,-1
896 725.5 m 128,-1,31
 939 683 939 683 939 640 c 2,32,-1
 939 -71 l 2,33,34
 939 -85 939 -85 924 -85 c 2,35,-1
 14 -85 l 2,36,37
 0 -85 0 -85 0 -71 c 2,38,-1
 0 640 l 2,39,40
 0 683 0 683 42.5 725.5 c 128,-1,41
 85 768 85 768 128 768 c 2,42,-1
 156 768 l 2,43,44
 170 768 170 768 171 782 c 6,45,-1
 171 1237 l 2,46,47
 171 1280 171 1280 213.5 1322.5 c 128,-1,48
 256 1365 256 1365 299 1365 c 2,49,-1
 640 1365 l 2,50,51
 683 1365 683 1365 725.5 1322.5 c 128,-1,52
 768 1280 768 1280 768 1237 c 2,53,-1
 768 782 l 2,54,55
 768 768 768 768 782 768 c 2,56,-1
 811 768 l 2,57,30
 853 768 853 768 896 725.5 c 128,-1,31
EndSplineSet
Layer: 2
SplineSet
384 512 m 6,0,1
 341 512 341 512 298.5 469.5 c 128,-1,2
 256 427 256 427 256 384 c 2,3,-1
 256 299 l 2,4,5
 256 256 256 256 298.5 213.5 c 128,-1,6
 341 171 341 171 384 171 c 2,7,-1
 555 171 l 2,8,9
 598 171 598 171 640.5 213.5 c 128,-1,10
 683 256 683 256 683 299 c 2,11,-1
 683 384 l 2,12,13
 683 427 683 427 640 469.5 c 128,-1,14
 597 512 597 512 555 512 c 2,15,-1
 384 512 l 6,0,1
683 782 m 2,16,-1
 683 1237 l 2,17,18
 683 1251 683 1251 668.5 1265.5 c 128,-1,19
 654 1280 654 1280 640 1280 c 2,20,-1
 299 1280 l 2,21,22
 285 1280 285 1280 270.5 1266 c 128,-1,23
 256 1252 256 1252 256 1237 c 2,24,-1
 256 782 l 2,25,26
 256 768 256 768 270 768 c 6,27,-1
 668 768 l 2,28,29
 683 768 683 768 683 782 c 2,16,-1
896 725.5 m 128,-1,31
 939 683 939 683 939 640 c 2,32,-1
 939 -71 l 2,33,34
 939 -85 939 -85 924 -85 c 2,35,-1
 14 -85 l 2,36,37
 0 -85 0 -85 0 -71 c 2,38,-1
 0 640 l 2,39,40
 0 683 0 683 42.5 725.5 c 128,-1,41
 85 768 85 768 128 768 c 2,42,-1
 156 768 l 2,43,44
 170 768 170 768 171 782 c 6,45,-1
 171 1237 l 2,46,47
 171 1280 171 1280 213.5 1322.5 c 128,-1,48
 256 1365 256 1365 299 1365 c 2,49,-1
 640 1365 l 2,50,51
 683 1365 683 1365 725.5 1322.5 c 128,-1,52
 768 1280 768 1280 768 1237 c 2,53,-1
 768 782 l 2,54,55
 768 768 768 768 782 768 c 2,56,-1
 811 768 l 2,57,30
 853 768 853 768 896 725.5 c 128,-1,31
EndSplineSet
Colour: ff00ff
EndChar
StartChar: uniE0B0
Encoding: 57520 57520 764
Width: 288
VWidth: 0
Flags: MW
LayerCount: 2
Back
Fore
SplineSet
0 456 m 21,0,-1
 284 172 l 6,1,2
 288 168 288 168 284 164 c 6,3,-1
 0 -120 l 13,4,-1
 0 456 l 21,0,-1
EndSplineSet
Validated: 1
Colour: ff00ff
EndChar
StartChar: uniE0B1
Encoding: 57521 57521 765
Width: 288
VWidth: 0
Flags: MW
LayerCount: 2
Back
Fore
SplineSet
288 168 m 29,0,-1
 0 -120 l 25,1,-1
 0 -96 l 25,2,-1
 264 168 l 25,3,-1
 0 432 l 25,4,-1
 0 456 l 25,5,-1
 288 168 l 29,0,-1
EndSplineSet
Validated: 1
Colour: ff00ff
EndChar
